<svg width="58" height="58" viewBox="0 0 58 58" fill="none" xmlns="http://www.w3.org/2000/svg">
<g filter="url(#filter0_d)">
<rect x="4" width="50" height="50" rx="5" fill="#61C294"/>
<path d="M37.8589 30.8588C43.5816 25.1361 43.8319 16.0197 38.6049 10.0045L38.7422 9.86712C39.1694 9.44001 39.1694 8.74747 38.7422 8.32036C38.3151 7.89325 37.6225 7.89318 37.1954 8.32036C36.2728 9.243 35.2717 10.2441 34.3416 11.1742C29.8346 7.44891 23.128 7.69371 18.9111 11.9101C18.911 11.9102 18.9108 11.9104 18.9106 11.9105C14.6933 16.1279 14.4492 22.835 18.1742 27.3415C17.3399 28.1759 16.6337 28.8821 15.3204 30.1954C14.8932 30.6225 14.8932 31.3151 15.3204 31.7422C15.7475 32.1693 16.44 32.1694 16.8671 31.7422L17.0045 31.6048C19.8385 34.0676 23.54 35.474 27.5781 35.3332V40.8125H22.6562C22.0521 40.8125 21.5625 41.3022 21.5625 41.9062C21.5625 42.5103 22.0521 43 22.6562 43H34.6875C35.2916 43 35.7812 42.5103 35.7812 41.9062C35.7812 41.3022 35.2916 40.8125 34.6875 40.8125H29.7656V35.1009C32.815 34.5543 35.6221 33.0956 37.8589 30.8588ZM33.6051 13.4574C33.8064 13.6587 33.9698 14.5101 33.1476 16.2917C32.4137 17.8818 31.1848 19.6004 29.728 21.1811L25.8814 17.3346C27.4622 15.8778 29.1807 14.6489 30.7709 13.915C31.7997 13.4401 32.5182 13.294 32.9805 13.294C33.3189 13.294 33.5201 13.3723 33.6051 13.4574ZM28.1812 22.728C26.6004 24.1848 24.8819 25.4137 23.2917 26.1476C21.5102 26.9699 20.6587 26.8065 20.4574 26.6052C20.2561 26.4039 20.0928 25.5525 20.915 23.7709C21.6489 22.1808 22.8778 20.4622 24.3346 18.8815L28.1812 22.728ZM29.7239 24.2706L32.7861 27.3328C30.0413 29.4993 26.348 29.8971 23.2548 28.5262C25.5576 27.7 27.9299 25.9366 29.7239 24.2706ZM34.3329 25.786L31.2707 22.7239C32.9498 20.9156 34.7029 18.549 35.526 16.2539C36.8972 19.3474 36.4995 23.0411 34.3329 25.786ZM30.8086 11.5367C28.5117 12.3603 26.1472 14.1126 24.3388 15.7918L21.2766 12.7297C24.0007 10.5794 27.6881 10.1535 30.8086 11.5367ZM19.7298 14.2765L22.7919 17.3387C21.1128 19.147 19.3597 21.5136 18.5367 23.8086C17.1653 20.7151 17.5631 17.0215 19.7298 14.2765ZM18.5561 30.0532L19.7211 28.8882C24.2169 32.6045 30.9239 32.3799 35.152 28.1519C39.3693 23.9348 39.6135 17.2276 35.8884 12.721L37.0533 11.556C41.362 16.6342 41.2489 24.3751 36.3122 29.312C31.3765 34.2476 23.636 34.3634 18.5561 30.0532Z" fill="white"/>
</g>
<defs>
<filter id="filter0_d" x="0" y="0" width="58" height="58" filterUnits="userSpaceOnUse" color-interpolation-filters="sRGB">
<feFlood flood-opacity="0" result="BackgroundImageFix"/>
<feColorMatrix in="SourceAlpha" type="matrix" values="0 0 0 0 0 0 0 0 0 0 0 0 0 0 0 0 0 0 127 0"/>
<feOffset dy="4"/>
<feGaussianBlur stdDeviation="2"/>
<feColorMatrix type="matrix" values="0 0 0 0 0 0 0 0 0 0 0 0 0 0 0 0 0 0 0.15 0"/>
<feBlend mode="normal" in2="BackgroundImageFix" result="effect1_dropShadow"/>
<feBlend mode="normal" in="SourceGraphic" in2="effect1_dropShadow" result="shape"/>
</filter>
</defs>
</svg>
