<svg width="58" height="58" viewBox="0 0 58 58" fill="none" xmlns="http://www.w3.org/2000/svg">
<g filter="url(#filter0_d)">
<rect x="4" width="50" height="50" rx="5" fill="#F63665"/>
<path d="M44.8593 35.9377L33.5 24.0102V10.1875C34.1904 10.1875 34.75 9.69777 34.75 9.09375C34.75 8.48973 34.1904 8 33.5 8C30.444 8 26.5766 8 23.5 8C22.8097 8 22.25 8.48973 22.25 9.09375C22.25 9.69777 22.8097 10.1875 23.5 10.1875V24.0102C6.04321 42.3401 15.1911 32.7347 12.1407 35.9377C9.49998 38.7105 11.7273 43 15.921 43H41.079C45.2677 43 47.5021 38.7126 44.8593 35.9377ZM25.7103 25.1065C25.8974 24.9099 25.9999 24.6621 25.9999 24.4062V10.1875H30.9999V12.375H30.3749C29.6845 12.375 29.1249 12.8647 29.1249 13.4688C29.1249 14.0728 29.6845 14.5625 30.3749 14.5625H30.9999V16.75H30.3749C29.6845 16.75 29.1249 17.2397 29.1249 17.8438C29.1249 18.4478 29.6845 18.9375 30.3749 18.9375H30.9999V21.125H30.3749C29.6845 21.125 29.1249 21.6147 29.1249 22.2188C29.1249 22.8228 29.6845 23.3125 30.3749 23.3125H30.9999V24.4062C30.9999 24.6621 31.1025 24.9099 31.2897 25.1065L33.9401 27.8894C32.2392 27.6816 30.1353 27.7976 27.8798 28.9254C26.7485 29.491 24.8015 29.962 21.7157 29.3008L25.7103 25.1065ZM41.079 40.8125H15.921C13.8603 40.8125 12.7611 38.7033 14.0612 37.3381L19.9596 31.1447C22.9777 31.9874 26.3694 32.1999 29.1202 30.8246C32.4785 29.1455 35.246 30.4628 36.7756 30.8666L42.9389 37.338C44.2379 38.7022 43.1421 40.8125 41.079 40.8125Z" fill="white"/>
</g>
<defs>
<filter id="filter0_d" x="0" y="0" width="58" height="58" filterUnits="userSpaceOnUse" color-interpolation-filters="sRGB">
<feFlood flood-opacity="0" result="BackgroundImageFix"/>
<feColorMatrix in="SourceAlpha" type="matrix" values="0 0 0 0 0 0 0 0 0 0 0 0 0 0 0 0 0 0 127 0"/>
<feOffset dy="4"/>
<feGaussianBlur stdDeviation="2"/>
<feColorMatrix type="matrix" values="0 0 0 0 0 0 0 0 0 0 0 0 0 0 0 0 0 0 0.15 0"/>
<feBlend mode="normal" in2="BackgroundImageFix" result="effect1_dropShadow"/>
<feBlend mode="normal" in="SourceGraphic" in2="effect1_dropShadow" result="shape"/>
</filter>
</defs>
</svg>
