<svg width="58" height="58" viewBox="0 0 58 58" fill="none" xmlns="http://www.w3.org/2000/svg">
<g filter="url(#filter0_d)">
<rect x="4" width="50" height="50" rx="5" fill="#FFC212"/>
<path d="M40.0436 18.936L42.3536 14.935L46 8.61926L45.0049 8.04255C41.5708 6.05212 37.6513 5 33.6704 5C21.1699 5 11 15.1699 11 27.6704C11 29.6549 11.2596 31.6292 11.7716 33.5385L12.07 34.651L21.3419 32.1666L23.181 31.6738V40.8111H24.3331C25.6646 40.8111 26.9285 40.3876 27.9881 39.5864C28.6578 39.08 29.2173 38.4339 29.6268 37.7048C30.5773 38.0871 31.5817 38.3334 32.6047 38.4347C33.1335 41.7674 36.0269 44.323 39.5059 44.323H44.4875V27.6704C44.4875 24.087 42.7355 20.9055 40.0436 18.936ZM34.8224 7.33711C37.615 7.49571 40.3482 8.22895 42.8378 9.48767L40.3381 13.8174C40.2678 13.7835 40.1967 13.7515 40.126 13.7187C40.0785 13.6967 40.0313 13.674 39.9836 13.6525C39.8482 13.5915 39.7121 13.5323 39.5752 13.4752C39.5675 13.472 39.56 13.4685 39.5524 13.4654C39.4082 13.4055 39.2629 13.3484 39.117 13.2931C39.0689 13.2748 39.0204 13.2578 38.9721 13.24C38.8731 13.2036 38.774 13.1677 38.6743 13.1333C38.6172 13.1137 38.5599 13.0949 38.5027 13.076C38.4103 13.0453 38.3176 13.0153 38.2245 12.9864C38.165 12.968 38.1054 12.9499 38.0458 12.9321C37.9524 12.9044 37.8588 12.8777 37.765 12.8518C37.7067 12.8357 37.6485 12.8194 37.5902 12.804C37.4889 12.7773 37.3871 12.7522 37.2853 12.7274C37.2346 12.7152 37.1841 12.7022 37.1333 12.6904C36.9864 12.6565 36.8391 12.6244 36.6913 12.5947C36.6856 12.5936 36.6799 12.5922 36.6742 12.591C36.5211 12.5605 36.3672 12.5327 36.2131 12.5069C36.1625 12.4983 36.1117 12.4911 36.061 12.4831C35.9564 12.4666 35.8517 12.4506 35.7467 12.4364C35.6872 12.4282 35.6275 12.421 35.5679 12.4135C35.4705 12.4014 35.3729 12.39 35.2752 12.3797C35.2136 12.3732 35.152 12.3671 35.0903 12.3614C35.0011 12.3531 34.912 12.3457 34.8226 12.339V7.33711H34.8224ZM32.5183 7.33742V12.3374C30.5549 12.4835 28.693 12.9997 27.0023 13.8167L24.5029 9.48759C26.9364 8.25567 29.6488 7.49832 32.5183 7.33742ZM22.5095 10.6434L25.0091 14.9727C23.4264 16.0557 22.0557 17.4264 20.9728 19.009L16.6434 16.5095C18.1774 14.1772 20.177 12.1775 22.5095 10.6434ZM13.7305 31.8206C13.5253 30.8338 13.3946 29.8314 13.3376 28.8225H18.338C18.3462 28.9318 18.3553 29.0412 18.3659 29.1504C18.3691 29.1841 18.3731 29.2178 18.3765 29.2516C18.3888 29.3705 18.4024 29.4891 18.4175 29.6076C18.4227 29.6491 18.4279 29.6907 18.4335 29.7321C18.4535 29.8799 18.4748 30.0276 18.4991 30.1747C18.4999 30.1796 18.5009 30.1844 18.5016 30.1893C18.5203 30.3017 18.54 30.4141 18.5612 30.526L13.7305 31.8206ZM18.3374 26.5183H13.3374C13.4982 23.6489 14.2557 20.9364 15.4876 18.5029L19.8168 21.0023C18.9998 22.693 18.4835 24.5549 18.3374 26.5183ZM22.8533 27.6704C22.8533 28.2311 22.8966 28.79 22.9824 29.3416L20.7958 29.9274C20.791 29.8998 20.7855 29.8723 20.7808 29.8446C20.7755 29.8137 20.7706 29.7828 20.7656 29.7519C20.7466 29.634 20.7288 29.5158 20.713 29.3973C20.712 29.3895 20.7107 29.3818 20.7097 29.3741C20.6934 29.2494 20.6794 29.1243 20.6666 28.9991C20.6634 28.9676 20.6604 28.9361 20.6574 28.9047C20.6459 28.7827 20.6355 28.6605 20.6274 28.5382C20.6271 28.5337 20.6266 28.5292 20.6264 28.5247C20.6182 28.3985 20.6124 28.2722 20.6078 28.1457C20.6067 28.1144 20.6057 28.0831 20.6047 28.0518C20.6011 27.9247 20.5985 27.7976 20.5985 27.6704C20.5985 20.4626 26.4626 14.5985 33.6704 14.5985C33.8031 14.5985 33.9356 14.601 34.0681 14.605C34.1105 14.6063 34.1528 14.6086 34.1952 14.6103C34.2859 14.614 34.3766 14.6182 34.4672 14.6237C34.516 14.6267 34.5648 14.6302 34.6136 14.6338C34.6991 14.64 34.7845 14.647 34.8698 14.6549C34.9185 14.6594 34.9671 14.6639 35.0157 14.6689C35.1061 14.6783 35.1964 14.689 35.2865 14.7003C35.3281 14.7055 35.3697 14.7101 35.4111 14.7157C35.5416 14.7333 35.6719 14.7523 35.8017 14.7739C35.8088 14.775 35.8159 14.7765 35.8231 14.7777C35.9459 14.7982 36.0682 14.8207 36.1903 14.8447C36.2331 14.8531 36.2755 14.8625 36.3182 14.8713C36.4052 14.8894 36.4922 14.908 36.5788 14.9278C36.627 14.9388 36.6751 14.9503 36.7231 14.9618C36.8055 14.9816 36.8876 15.0023 36.9697 15.0237C37.0171 15.0361 37.0644 15.0484 37.1117 15.0613C37.1992 15.0853 37.2865 15.1105 37.3735 15.1362C37.4132 15.148 37.4531 15.1592 37.4928 15.1713C37.6183 15.2097 37.7433 15.2496 37.8676 15.2919C37.879 15.2958 37.8904 15.3001 37.9018 15.304C38.015 15.3428 38.1275 15.3831 38.2397 15.4251C38.2804 15.4403 38.3208 15.4563 38.3613 15.472C38.4444 15.504 38.5274 15.5366 38.6099 15.5703C38.6551 15.5888 38.7002 15.6078 38.7452 15.6267C38.8243 15.6602 38.9031 15.6944 38.9816 15.7294C39.0253 15.7489 39.069 15.7682 39.1125 15.7882C39.1354 15.7987 39.1581 15.81 39.1811 15.8207L38.0497 17.7806C36.7101 17.1851 35.2282 16.8533 33.6701 16.8533C27.7059 16.8533 22.8533 21.7059 22.8533 27.6704ZM42.1833 29.7351V42.0189H39.5059C36.9234 42.0189 34.8224 39.918 34.8224 37.3355V36.1834H33.6703C32.2452 36.1834 30.8356 35.8246 29.5938 35.1456L28.3457 34.4633L27.9375 35.8258C27.5786 37.0238 26.6384 37.9476 25.4852 38.3235V30.0211L25.4461 29.8749C25.2546 29.1583 25.1575 28.4167 25.1575 27.6704C25.1575 22.9764 28.9763 19.1575 33.6704 19.1575C38.2843 19.1575 42.0524 22.8471 42.1797 27.4309H37.4992V29.7351H42.1833Z" fill="white"/>
</g>
<defs>
<filter id="filter0_d" x="0" y="0" width="58" height="58" filterUnits="userSpaceOnUse" color-interpolation-filters="sRGB">
<feFlood flood-opacity="0" result="BackgroundImageFix"/>
<feColorMatrix in="SourceAlpha" type="matrix" values="0 0 0 0 0 0 0 0 0 0 0 0 0 0 0 0 0 0 127 0"/>
<feOffset dy="4"/>
<feGaussianBlur stdDeviation="2"/>
<feColorMatrix type="matrix" values="0 0 0 0 0 0 0 0 0 0 0 0 0 0 0 0 0 0 0.15 0"/>
<feBlend mode="normal" in2="BackgroundImageFix" result="effect1_dropShadow"/>
<feBlend mode="normal" in="SourceGraphic" in2="effect1_dropShadow" result="shape"/>
</filter>
</defs>
</svg>
