<svg width="58" height="58" viewBox="0 0 58 58" fill="none" xmlns="http://www.w3.org/2000/svg">
<g filter="url(#filter0_d)">
<rect x="4" width="50" height="50" rx="5" fill="#ED63D2"/>
<path d="M18.7937 34.1233C18.4248 33.904 17.9483 33.9378 17.6151 34.2094C17.2817 34.4813 17.1578 34.9445 17.3002 35.3477C17.4426 35.7508 17.8388 36.0278 18.2661 36.0278C18.7512 36.0278 19.1767 35.676 19.2731 35.2027C19.3584 34.7837 19.1611 34.3416 18.7937 34.1233Z" fill="white"/>
<path d="M18.2663 15.5195H24.0452C24.6123 15.5195 25.0721 15.0604 25.0721 14.4941C25.0721 13.9279 24.6123 13.4688 24.0452 13.4688H18.2663C17.6992 13.4688 17.2395 13.9279 17.2395 14.4941C17.2395 15.0604 17.6993 15.5195 18.2663 15.5195Z" fill="white"/>
<path d="M46.7179 13.5459C44.7858 11.3019 41.3289 10.9954 39.0118 12.8625L37.1206 14.3865C37.1064 14.3979 37.0854 14.3878 37.0854 14.3697V9.02539C37.0854 8.4591 36.6257 8 36.0586 8H14.0268C13.4597 8 13 8.4591 13 9.02539V37.42C13 40.4968 15.575 43 18.7401 43H38.9083C40.857 43 42.4424 41.4474 42.4424 39.539C42.4424 37.6382 40.8633 36.0856 38.9224 36.0621H37.1069C37.095 36.062 37.0853 36.0524 37.0853 36.0405V27.9316C37.1086 27.9332 37.1318 27.9347 37.155 27.9347C37.3878 27.9347 37.6159 27.8555 37.7998 27.7073L46.0117 21.0902C47.149 20.1736 47.8474 18.8804 47.978 17.4486C48.1078 16.0263 47.6603 14.6402 46.7179 13.5459ZM34.9775 21.8132L32.5077 23.8403C32.4936 23.8519 32.4725 23.8419 32.4725 23.8236L32.4718 20.778C32.4718 20.7714 32.4748 20.7653 32.4799 20.7612L34.9496 18.7711C34.9637 18.7598 34.9847 18.7698 34.9847 18.7879L34.9854 21.7965C34.9854 21.803 34.9825 21.8091 34.9775 21.8132ZM40.3887 39.539C40.3887 40.3166 39.7246 40.9492 38.9083 40.9492H23.2095C23.1913 40.9492 23.1816 40.9283 23.1931 40.9142C23.8469 40.1216 24.2836 39.2081 24.4143 38.1474C24.4156 38.1367 24.4247 38.1286 24.4356 38.1286H38.9144C39.7273 38.1319 40.3887 38.7645 40.3887 39.539ZM23.5062 36.0621C23.4567 36.0621 23.4072 36.0643 23.3584 36.0723C22.9919 36.1323 22.6504 36.3374 22.4938 36.6867C22.3802 36.9399 22.4019 37.2181 22.4018 37.4884C22.4018 39.4344 20.7591 40.9492 18.7401 40.9492C16.7074 40.9492 15.0537 39.366 15.0537 37.42V10.0724C15.0537 10.0605 15.0633 10.0508 15.0753 10.0508H35.0102C35.0221 10.0508 35.0318 10.0604 35.0318 10.0724V16.0594C35.0318 16.066 35.0288 16.0721 35.0237 16.0763L33.1754 17.5656C33.1707 17.5672 33.1665 17.5687 33.1619 17.5704H18.2667C17.6996 17.5704 17.2399 18.0295 17.2399 18.5958C17.2399 19.1621 17.6996 19.6212 18.2667 19.6212H30.6135C30.6315 19.6212 30.641 19.6414 30.63 19.6557C30.4943 19.8327 30.418 20.0505 30.418 20.2779L30.4183 21.6503C30.4183 21.6622 30.4087 21.6719 30.3967 21.6719H18.2667C17.6996 21.6719 17.2399 22.131 17.2399 22.6973C17.2399 23.2636 17.6996 23.7227 18.2667 23.7227H30.3972C30.4091 23.7227 30.4188 23.7324 30.4188 23.7443L30.4191 25.5444C30.4191 25.5509 30.4163 25.557 30.4113 25.5611L30.1585 25.7686C30.1538 25.7703 30.1495 25.7718 30.1448 25.7735H18.2667C17.6996 25.7735 17.2399 26.2326 17.2399 26.7989C17.2399 27.3652 17.6996 27.8243 18.2667 27.8243H27.5936C27.6139 27.8243 27.623 27.8497 27.6072 27.8626L25.1613 29.8701C25.1566 29.8719 25.1523 29.8734 25.1475 29.8751H18.2667C17.6996 29.8751 17.2399 30.3342 17.2399 30.9005C17.2399 31.4667 17.6996 31.9258 18.2667 31.9258H25.5513C25.8665 31.9258 26.1484 31.7837 26.3367 31.5603C26.3375 31.5595 26.3384 31.5588 26.3392 31.5579L31.8705 27.0179C31.8754 27.0139 31.8818 27.0122 31.888 27.0133L35.0139 27.5697C35.0242 27.5716 35.0317 27.5805 35.0317 27.591V36.0405C35.0317 36.0524 35.0221 36.0621 35.0101 36.0621C35.0102 36.0621 24.4937 36.0621 23.5062 36.0621ZM36.8648 25.816L34.0101 25.3079C33.9919 25.3047 33.9859 25.2817 34.0001 25.27L36.3683 23.3262C36.3732 23.3222 36.3796 23.3206 36.3858 23.3217L39.2767 23.8362C39.2949 23.8395 39.3009 23.8627 39.2864 23.8743L36.8822 25.8116C36.8761 25.8132 36.8708 25.8145 36.8648 25.816ZM45.9328 17.2626C45.8531 18.1368 45.4231 18.9293 44.722 19.4942L41.4484 22.1321C41.4424 22.1337 41.4371 22.135 41.4311 22.1366L38.5078 21.6163C38.4897 21.6131 38.4837 21.59 38.4979 21.5784L41.8417 18.8338C42.2798 18.4742 42.3431 17.8281 41.983 17.3906C41.6228 16.953 40.9757 16.8899 40.5377 17.2495L37.0739 20.0925C37.0598 20.1041 37.0387 20.0941 37.0387 20.0758L37.038 17.0986C37.038 17.0921 37.0409 17.0859 37.046 17.0818L40.3015 14.4586C41.7643 13.2797 43.9442 13.47 45.1608 14.883C45.7375 15.5528 46.0117 16.3979 45.9328 17.2626Z" fill="white"/>
</g>
<defs>
<filter id="filter0_d" x="0" y="0" width="58" height="58" filterUnits="userSpaceOnUse" color-interpolation-filters="sRGB">
<feFlood flood-opacity="0" result="BackgroundImageFix"/>
<feColorMatrix in="SourceAlpha" type="matrix" values="0 0 0 0 0 0 0 0 0 0 0 0 0 0 0 0 0 0 127 0"/>
<feOffset dy="4"/>
<feGaussianBlur stdDeviation="2"/>
<feColorMatrix type="matrix" values="0 0 0 0 0 0 0 0 0 0 0 0 0 0 0 0 0 0 0.15 0"/>
<feBlend mode="normal" in2="BackgroundImageFix" result="effect1_dropShadow"/>
<feBlend mode="normal" in="SourceGraphic" in2="effect1_dropShadow" result="shape"/>
</filter>
</defs>
</svg>
