<svg width="58" height="58" viewBox="0 0 58 58" fill="none" xmlns="http://www.w3.org/2000/svg">
<g filter="url(#filter0_d)">
<rect x="4" width="50" height="50" rx="5" fill="#23B3F2"/>
<path d="M12 8V43H47V8H12ZM44.9492 24.4746H30.5254V10.0508H44.9492V24.4746ZM28.4746 10.0508V24.4746H14.0508V10.0508H28.4746ZM14.0508 26.5254H28.4746V40.9492H14.0508V26.5254ZM30.5254 40.9492V26.5254H44.9492V40.9492H30.5254Z" fill="white"/>
<path d="M32.5762 32.7129H42.8984V34.7637H32.5762V32.7129Z" fill="white"/>
<path d="M32.5762 16.2383H42.8984V18.2891H32.5762V16.2383Z" fill="white"/>
<path d="M36.7114 28.6113H38.7622V30.6621H36.7114V28.6113Z" fill="white"/>
<path d="M36.7114 36.8145H38.7622V38.8652H36.7114V36.8145Z" fill="white"/>
<path d="M20.2372 22.4238H22.288V18.2881H26.4238V16.2373H22.288V12.1016H20.2372V16.2373H16.1016V18.2881H20.2372V22.4238Z" fill="white"/>
<path d="M25.6372 30.8134L24.1871 29.3633L21.2626 32.2877L18.3383 29.3633L16.8882 30.8134L19.8126 33.7377L16.8882 36.6621L18.3383 38.1123L21.2626 35.1878L24.1871 38.1123L25.6372 36.6621L22.7127 33.7377L25.6372 30.8134Z" fill="white"/>
</g>
<defs>
<filter id="filter0_d" x="0" y="0" width="58" height="58" filterUnits="userSpaceOnUse" color-interpolation-filters="sRGB">
<feFlood flood-opacity="0" result="BackgroundImageFix"/>
<feColorMatrix in="SourceAlpha" type="matrix" values="0 0 0 0 0 0 0 0 0 0 0 0 0 0 0 0 0 0 127 0"/>
<feOffset dy="4"/>
<feGaussianBlur stdDeviation="2"/>
<feColorMatrix type="matrix" values="0 0 0 0 0 0 0 0 0 0 0 0 0 0 0 0 0 0 0.15 0"/>
<feBlend mode="normal" in2="BackgroundImageFix" result="effect1_dropShadow"/>
<feBlend mode="normal" in="SourceGraphic" in2="effect1_dropShadow" result="shape"/>
</filter>
</defs>
</svg>
