<svg width="250" height="179" viewBox="0 0 250 179" fill="none" xmlns="http://www.w3.org/2000/svg">
<path d="M124.864 178.102C193.824 178.102 249.727 174.839 249.727 170.812C249.727 166.786 193.824 163.522 124.864 163.522C55.9034 163.522 0 166.786 0 170.812C0 174.839 55.9034 178.102 124.864 178.102Z" fill="#F5F5F5"/>
<path d="M150.863 66.9814V84.717C150.868 88.2141 149.517 91.577 147.096 94.0999L130.545 111.417H139.915L157.11 94.4928C158.392 93.2317 159.411 91.7283 160.108 90.07C160.804 88.4117 161.164 86.6315 161.167 84.8329V66.9814H150.863Z" fill="#407BFF"/>
<path opacity="0.4" d="M161.167 66.9814V84.8136C161.17 85.8128 161.057 86.8089 160.832 87.7824C160.268 90.3329 158.975 92.6643 157.11 94.4928L139.915 111.417H130.545L147.096 94.0999C149.517 91.577 150.868 88.2141 150.863 84.717V66.9814H161.167Z" fill="white"/>
<path opacity="0.2" d="M161.169 66.9814V84.8136C161.172 85.8128 161.06 86.8089 160.835 87.7824L150.866 83.7574V66.9814H161.169Z" fill="black"/>
<path d="M124.035 113.349L110.164 166.195C110.04 166.676 109.759 167.102 109.366 167.406C108.973 167.71 108.49 167.876 107.994 167.875H83.2063C83.0022 167.875 82.8009 167.827 82.6178 167.737C82.4348 167.647 82.2748 167.516 82.1502 167.354C82.0251 167.193 81.9391 167.005 81.8988 166.805C81.8586 166.605 81.8653 166.398 81.9183 166.201L95.7964 113.349H93.1302L79.4261 165.544C79.2759 166.123 79.26 166.728 79.3794 167.313C79.4989 167.899 79.7506 168.449 80.1153 168.923C80.48 169.396 80.9481 169.78 81.4838 170.045C82.0195 170.31 82.6087 170.449 83.2063 170.451H107.994C109.059 170.451 110.095 170.097 110.938 169.446C111.782 168.795 112.386 167.882 112.656 166.852L126.695 113.349H124.035Z" fill="#407BFF"/>
<g opacity="0.4">
<path opacity="0.4" d="M124.035 113.349L110.164 166.195C110.04 166.676 109.759 167.102 109.366 167.406C108.973 167.71 108.49 167.876 107.994 167.875H83.2063C83.0022 167.875 82.8009 167.827 82.6178 167.737C82.4348 167.647 82.2748 167.516 82.1502 167.354C82.0251 167.193 81.9391 167.005 81.8988 166.805C81.8586 166.605 81.8653 166.398 81.9183 166.201L95.7964 113.349H93.1302L79.4261 165.544C79.2759 166.123 79.26 166.728 79.3794 167.313C79.4989 167.899 79.7506 168.449 80.1153 168.923C80.48 169.396 80.9481 169.78 81.4838 170.045C82.0195 170.31 82.6087 170.449 83.2063 170.451H107.994C109.059 170.451 110.095 170.097 110.938 169.446C111.782 168.795 112.386 167.882 112.656 166.852L126.695 113.349H124.035Z" fill="white"/>
</g>
<path d="M129.707 170.452L114.541 112.621L112.049 113.272L127.041 170.452H129.707Z" fill="#407BFF"/>
<path d="M160.621 170.452L145.455 112.621L142.963 113.272L157.955 170.452H160.621Z" fill="#407BFF"/>
<g opacity="0.5">
<path opacity="0.5" d="M129.707 170.452L114.541 112.621L112.049 113.272L127.041 170.452H129.707Z" fill="white"/>
</g>
<g opacity="0.5">
<path opacity="0.5" d="M160.621 170.452L145.455 112.621L142.963 113.272L157.955 170.452H160.621Z" fill="white"/>
</g>
<path opacity="0.2" d="M93.1297 113.349H95.7958L93.7028 121.315L91.2363 120.561L93.1297 113.349Z" fill="black"/>
<path opacity="0.2" d="M114.541 112.621L117.987 125.765L115.095 124.889L112.049 113.272L114.541 112.621Z" fill="black"/>
<path opacity="0.2" d="M124.036 113.349H126.696L122.33 130.028L119.857 129.275L124.036 113.349Z" fill="black"/>
<path opacity="0.2" d="M151.541 135.986L148.636 135.097L142.963 113.433L145.455 112.725L151.541 135.986Z" fill="black"/>
<path d="M90.7789 114.231L78.7362 49.04L78.5752 48.0547C78.4562 47.4457 78.4724 46.8181 78.6227 46.216C78.7729 45.614 79.0535 45.0523 79.4446 44.5707C79.8224 44.1183 80.2967 43.7562 80.8328 43.511C81.3688 43.2658 81.9529 43.1438 82.5422 43.1539H108.611C109.848 43.2148 111.03 43.6858 111.97 44.4927C112.91 45.2997 113.554 46.3965 113.802 47.6103L113.995 48.7116L126.031 113.755L123.494 114.218L111.419 48.982L111.264 48.0676C111.13 47.4454 110.8 46.8825 110.323 46.4618C109.845 46.041 109.245 45.7845 108.611 45.7299H82.5165C82.3049 45.7217 82.0942 45.7614 81.9001 45.8462C81.7061 45.9309 81.5337 46.0585 81.3959 46.2193C81.2455 46.4155 81.1399 46.6424 81.0865 46.8838C81.0331 47.1252 81.0332 47.3754 81.0868 47.6168L81.2671 48.6987L93.3162 113.742L90.7789 114.231Z" fill="#407BFF"/>
<g opacity="0.5">
<path opacity="0.5" d="M90.7789 114.231L78.7362 49.04L78.5752 48.0547C78.4562 47.4457 78.4724 46.8181 78.6227 46.216C78.7729 45.614 79.0535 45.0523 79.4446 44.5707C79.8224 44.1183 80.2967 43.7562 80.8328 43.511C81.3688 43.2658 81.9529 43.1438 82.5422 43.1539H108.611C109.848 43.2148 111.03 43.6858 111.97 44.4927C112.91 45.2997 113.554 46.3965 113.802 47.6103L113.995 48.7116L126.031 113.755L123.494 114.218L111.419 48.982L111.264 48.0676C111.13 47.4454 110.8 46.8825 110.323 46.4618C109.845 46.041 109.245 45.7845 108.611 45.7299H82.5165C82.3049 45.7217 82.0942 45.7614 81.9001 45.8462C81.7061 45.9309 81.5337 46.0585 81.3959 46.2193C81.2455 46.4155 81.1399 46.6424 81.0865 46.8838C81.0331 47.1252 81.0332 47.3754 81.0868 47.6168L81.2671 48.6987L93.3162 113.742L90.7789 114.231Z" fill="white"/>
</g>
<path d="M96.0476 107.766H145.59C146.444 107.766 147.263 108.105 147.867 108.709C148.471 109.313 148.81 110.132 148.81 110.986V115.281H92.8276V110.973C92.831 110.121 93.1718 109.305 93.7753 108.704C94.3788 108.103 95.1958 107.766 96.0476 107.766Z" fill="#407BFF"/>
<path d="M149.584 111.533H92.0559C91.341 111.533 90.7615 112.112 90.7615 112.827V113.999C90.7615 114.714 91.341 115.294 92.0559 115.294H149.584C150.299 115.294 150.878 114.714 150.878 113.999V112.827C150.878 112.112 150.299 111.533 149.584 111.533Z" fill="#407BFF"/>
<path opacity="0.6" d="M149.584 111.533H92.0559C91.341 111.533 90.7615 112.112 90.7615 112.827V113.999C90.7615 114.714 91.341 115.294 92.0559 115.294H149.584C150.299 115.294 150.878 114.714 150.878 113.999V112.827C150.878 112.112 150.299 111.533 149.584 111.533Z" fill="white"/>
<path d="M117.589 75.3534H84.8553L79.9739 48.9497H112.702L117.544 75.1087L117.589 75.3534Z" fill="#407BFF"/>
<path d="M149.79 19.0887C149.79 19.0887 145.675 9.53182 145.321 8.50787C144.967 7.48393 145.385 2.31267 145.07 1.42396C144.754 0.535248 139.976 -0.102306 138.965 0.0136131C137.954 0.129532 138.842 8.12792 139.261 8.75903C139.807 9.40831 140.422 9.99572 141.096 10.5107L144.735 21.4586L149.79 19.0887Z" fill="#FFB573"/>
<path d="M128.97 37.1269C131.778 37.5712 143.273 39.2327 145.843 37.5197C147.917 36.1351 142.076 13.692 142.076 13.692L147.273 11.5732C147.273 11.5732 159.618 38.7626 153.023 44.9707C149.675 48.1262 140.259 48.9248 126.716 48.9248L128.97 37.1269Z" fill="#407BFF"/>
<path opacity="0.8" d="M128.97 37.1269C131.778 37.5712 143.273 39.2327 145.843 37.5197C147.917 36.1351 142.076 13.692 142.076 13.692L147.273 11.5732C147.273 11.5732 159.618 38.7626 153.023 44.9707C149.675 48.1262 140.259 48.9248 126.716 48.9248L128.97 37.1269Z" fill="white"/>
<path opacity="0.1" d="M133.729 48.8602C131.732 48.9181 129.601 48.9439 127.36 48.9439L129.292 41.5444C131.385 43.5531 132.915 46.0756 133.729 48.8602Z" fill="black"/>
<path d="M145.18 52.8081L158.807 67.2206" stroke="#2E353A" stroke-width="2" stroke-miterlimit="10"/>
<path d="M135.409 61.2951C135.409 61.2951 145.81 60.9731 146.892 60.8637C147.974 60.7542 152.475 58.1782 153.441 58.0752C154.407 57.9721 156.983 62.0422 157.305 63.0081C157.627 63.9741 150.009 66.5501 149.255 66.4471C148.436 66.2236 147.644 65.9127 146.892 65.5197L135.409 66.8721V61.2951Z" fill="#FFB573"/>
<path d="M129.292 165.404L134.425 164.702L135.133 152.505L130.014 153.213L129.292 165.404Z" fill="#FFB573"/>
<path d="M134.81 164.084L129.014 163.717C128.917 163.709 128.821 163.739 128.746 163.8C128.671 163.862 128.621 163.949 128.609 164.045L128.042 168.618C128.026 168.858 128.106 169.094 128.264 169.275C128.422 169.456 128.646 169.567 128.885 169.584C130.908 169.68 131.88 169.622 134.43 169.764C136.002 169.854 139.086 170.189 141.244 169.977C143.401 169.764 143.137 167.639 142.21 167.536C139.994 167.285 137.058 165.662 135.68 164.425C135.436 164.218 135.13 164.098 134.81 164.084Z" fill="#2E353A"/>
<path d="M136.589 165.075C136.125 165.033 135.668 164.943 135.223 164.804C135.201 164.799 135.18 164.786 135.164 164.769C135.148 164.752 135.137 164.731 135.133 164.708C135.132 164.684 135.137 164.661 135.147 164.639C135.157 164.618 135.172 164.599 135.191 164.585C135.365 164.482 136.891 163.574 137.51 163.858C137.579 163.891 137.638 163.942 137.682 164.005C137.726 164.069 137.753 164.142 137.761 164.218C137.792 164.333 137.791 164.453 137.758 164.567C137.725 164.68 137.661 164.783 137.574 164.862C137.284 165.054 136.932 165.13 136.589 165.075ZM137.407 164.102C137.078 163.948 136.189 164.328 135.565 164.669C136.479 164.907 137.155 164.92 137.419 164.701C137.472 164.646 137.51 164.577 137.529 164.503C137.549 164.429 137.548 164.351 137.529 164.276C137.526 164.239 137.513 164.203 137.492 164.172C137.47 164.142 137.441 164.118 137.407 164.102Z" fill="#407BFF"/>
<path d="M135.249 164.805C135.232 164.811 135.214 164.811 135.197 164.805C135.165 164.782 135.142 164.748 135.133 164.709C135.133 164.664 135.133 163.15 135.661 162.68C135.734 162.62 135.819 162.577 135.91 162.554C136.001 162.53 136.097 162.527 136.189 162.545C136.291 162.554 136.387 162.597 136.462 162.667C136.537 162.737 136.586 162.83 136.601 162.931C136.685 163.504 135.848 164.535 135.313 164.805C135.303 164.81 135.292 164.812 135.281 164.812C135.27 164.812 135.259 164.81 135.249 164.805ZM136.086 162.796C136.038 162.792 135.989 162.799 135.944 162.816C135.898 162.832 135.857 162.859 135.822 162.893C135.487 163.169 135.404 164.02 135.384 164.503C135.884 164.137 136.232 163.601 136.363 162.996C136.363 162.925 136.318 162.835 136.144 162.802L136.086 162.796Z" fill="#407BFF"/>
<path opacity="0.2" d="M130.013 153.214L135.133 152.512L134.727 159.48L129.614 159.931L130.013 153.214Z" fill="black"/>
<path d="M129.499 93.7147L128.25 85.8708L99.4893 84.1514C99.4893 84.1514 96.4304 100.47 98.7809 104.817C102.973 112.577 125.584 108.681 132.198 109.422C128.244 125.592 128.63 157.193 128.63 157.193L138.077 157.914C138.077 157.914 145.348 123.866 146.816 107.683C147.808 96.7672 138.76 97.0377 129.499 93.7147Z" fill="#2E353A"/>
<path d="M127.521 157.637L138.875 158.384L139.847 153.522L127.373 152.942L127.521 157.637Z" fill="#407BFF"/>
<path d="M141.129 160.85L146.294 161.23L149.527 149.452L144.368 149.078L141.129 160.85Z" fill="#FFB573"/>
<path d="M146.801 160.702L141.205 159.144C141.112 159.113 141.012 159.12 140.925 159.164C140.838 159.207 140.772 159.283 140.741 159.376L139.234 163.729C139.202 163.845 139.193 163.967 139.208 164.086C139.223 164.206 139.262 164.322 139.321 164.426C139.381 164.531 139.461 164.623 139.557 164.697C139.652 164.771 139.762 164.825 139.878 164.856C141.81 165.365 142.795 165.5 145.262 166.183C146.775 166.601 149.725 167.567 151.882 167.812C154.039 168.057 154.22 165.918 153.331 165.629C151.219 164.92 148.694 162.718 147.593 161.224C147.396 160.965 147.116 160.781 146.801 160.702Z" fill="#2E353A"/>
<path d="M148.334 162.049C147.885 161.914 147.453 161.728 147.046 161.495C147.024 161.487 147.006 161.471 146.995 161.451C146.983 161.431 146.978 161.408 146.981 161.385C146.983 161.362 146.991 161.339 147.005 161.32C147.018 161.301 147.037 161.285 147.059 161.276C147.246 161.212 148.933 160.632 149.474 161.051C149.536 161.097 149.586 161.159 149.617 161.23C149.649 161.301 149.662 161.379 149.654 161.456C149.662 161.578 149.636 161.699 149.578 161.807C149.519 161.914 149.432 162.002 149.326 162.062C149.005 162.181 148.651 162.177 148.334 162.049ZM149.332 161.263C149.042 161.044 148.096 161.263 147.4 161.437C148.244 161.862 148.907 162.017 149.203 161.856C149.268 161.813 149.32 161.755 149.355 161.686C149.39 161.617 149.407 161.54 149.403 161.463C149.41 161.425 149.405 161.386 149.39 161.351C149.376 161.315 149.351 161.285 149.319 161.263H149.332Z" fill="#407BFF"/>
<path d="M147.079 161.508H147.001C146.986 161.495 146.975 161.478 146.968 161.459C146.961 161.439 146.96 161.419 146.963 161.399C146.963 161.354 147.265 159.873 147.896 159.525C147.981 159.486 148.074 159.465 148.167 159.465C148.26 159.465 148.353 159.486 148.437 159.525C148.536 159.556 148.622 159.619 148.682 159.704C148.741 159.789 148.771 159.891 148.766 159.995C148.721 160.568 147.69 161.405 147.111 161.56C147.094 161.547 147.083 161.529 147.079 161.508ZM148.289 159.718C148.243 159.705 148.194 159.702 148.147 159.708C148.099 159.715 148.053 159.731 148.012 159.757C147.626 159.963 147.368 160.774 147.246 161.244C147.774 161 148.47 160.349 148.534 159.956C148.534 159.886 148.534 159.795 148.36 159.731L148.289 159.718Z" fill="#407BFF"/>
<path opacity="0.2" d="M144.368 149.078L149.527 149.458L147.678 156.188L142.578 155.563L144.368 149.078Z" fill="black"/>
<path d="M151.278 155.357L142.185 152.685C142.185 152.685 147.646 122.044 153.12 111.418C152.707 111.283 152.16 111.109 151.484 110.909C150.267 110.542 148.65 110.085 146.751 109.557C133.536 105.892 106.752 99.021 106.752 99.021L118.988 87.603C118.988 87.603 167.725 95.0347 168.736 107.876C169.219 114.052 151.278 155.357 151.278 155.357Z" fill="#2E353A"/>
<path d="M141.013 152.884L151.96 155.981L153.925 151.428L141.843 148.26L141.013 152.884Z" fill="#407BFF"/>
<path opacity="0.2" d="M151.509 110.909C150.292 110.542 148.675 110.084 146.775 109.556C147.155 106.439 147.162 102.865 145.661 101.043C142.68 97.4106 135.01 95.2789 130.643 94.5061C126.992 93.8621 114.724 92.5742 114.724 92.5742C114.724 92.5742 130.643 91.0479 146.923 95.7941C154.935 98.1511 153.37 106.014 151.509 110.909Z" fill="black"/>
<path d="M128.971 37.1268C128.971 37.1268 133.144 52.5826 128.269 85.8705C119.182 85.6773 103.913 85.3232 99.4886 85.2266C99.3792 80.5898 102.799 57.8698 98.7996 35.9547C101.679 35.458 104.591 35.1696 107.513 35.0918C111.789 34.9392 116.069 35.0317 120.335 35.3687C123.254 35.7317 126.141 36.3195 128.971 37.1268Z" fill="#407BFF"/>
<path opacity="0.7" d="M128.971 37.1268C128.971 37.1268 133.144 52.5826 128.269 85.8705C119.182 85.6773 103.913 85.3232 99.4886 85.2266C99.3792 80.5898 102.799 57.8698 98.7996 35.9547C101.679 35.458 104.591 35.1696 107.513 35.0918C111.789 34.9392 116.069 35.0317 120.335 35.3687C123.254 35.7317 126.141 36.3195 128.971 37.1268Z" fill="white"/>
<path opacity="0.1" d="M108.896 64.1935C106.32 63.6268 103.248 61.1474 100.717 58.7002C100.717 54.3469 100.505 49.7166 100.035 44.9961C103.615 50.2962 113.314 65.1659 108.896 64.1935Z" fill="black"/>
<path d="M98.7795 35.9541C88.9328 39.5025 106.218 66.1638 111.582 68.9136C116.947 71.6635 144.213 65.9062 144.213 65.9062L143.138 60.3936C143.138 60.3936 119.014 61.0054 116.792 60.4451C114.57 59.8849 109.289 48.5184 106.25 43.1539C104.56 40.0423 101.951 37.528 98.7795 35.9541Z" fill="#407BFF"/>
<path opacity="0.8" d="M98.7795 35.9541C88.9328 39.5025 106.218 66.1638 111.582 68.9136C116.947 71.6635 144.213 65.9062 144.213 65.9062L143.138 60.3936C143.138 60.3936 119.014 61.0054 116.792 60.4451C114.57 59.8849 109.289 48.5184 106.25 43.1539C104.56 40.0423 101.951 37.528 98.7795 35.9541Z" fill="white"/>
<path d="M141.205 59.8979L142.602 67.2201L145.178 66.3379L144.212 59.8979H141.205Z" fill="#407BFF"/>
<path opacity="0.7" d="M141.205 59.8979L142.602 67.2201L145.178 66.3379L144.212 59.8979H141.205Z" fill="white"/>
<path d="M141.901 15.3212L148.83 12.5778L147.484 10.2144L141.334 12.3653L141.901 15.3212Z" fill="#407BFF"/>
<path opacity="0.7" d="M141.901 15.3212L148.83 12.5778L147.484 10.2144L141.334 12.3653L141.901 15.3212Z" fill="white"/>
<path opacity="0.1" d="M105.94 35.1559C105.94 35.1559 106.127 38.1633 112.032 41.0613L116.115 38.1054C116.115 38.1054 117.281 45.6529 118.047 51.2879C118.047 51.2879 117.996 42.272 117.223 38.8073L120.346 39.915C120.346 39.915 117.687 35.3491 113.159 34.2994C108.632 33.2497 105.94 35.1559 105.94 35.1559Z" fill="black"/>
<path d="M109.07 20.7178C109.792 24.8586 110.436 32.432 107.493 35.1239L116.09 37.5195L120.289 35.4008C115.71 34.203 115.903 30.7898 116.773 27.6021L109.07 20.7178Z" fill="#FFB573"/>
<path opacity="0.2" d="M112.227 23.5259L116.799 27.6024C116.587 28.3441 116.439 29.1024 116.355 29.8692C114.603 29.5794 112.233 27.5959 112.085 25.7541C111.994 25.009 112.042 24.2534 112.227 23.5259Z" fill="black"/>
<path d="M115.169 9.20981C113.295 11.2448 114.911 13.5696 120.894 16.3968C122.317 13.2605 121.448 8.02487 119.516 7.1104C117.584 6.19593 116.804 7.44527 115.169 9.20981Z" fill="#2E353A"/>
<path d="M106.56 15.6111C108.08 21.0013 108.698 24.2277 112.059 26.4366C117.121 29.7532 123.323 25.7926 123.445 20.0547C123.548 14.9027 121.05 6.94942 115.234 5.93836C113.954 5.70973 112.637 5.8116 111.408 6.23432C110.178 6.65705 109.077 7.38663 108.208 8.35398C107.34 9.32132 106.732 10.4944 106.444 11.7621C106.155 13.0298 106.195 14.3502 106.56 15.5982V15.6111Z" fill="#FFB573"/>
<path d="M115.04 15.3405C115.137 15.7848 115.453 16.094 115.742 16.0296C116.032 15.9652 116.187 15.5594 116.09 15.1151C115.994 14.6707 115.684 14.3616 115.395 14.4196C115.105 14.4775 114.976 14.8961 115.04 15.3405Z" fill="#2E353A"/>
<path d="M120.096 14.2518C120.193 14.6962 120.508 15.0053 120.798 14.9409C121.088 14.8765 121.249 14.4708 121.152 14.02C121.056 13.5692 120.74 13.2665 120.45 13.3309C120.161 13.3953 120 13.8074 120.096 14.2518Z" fill="#2E353A"/>
<path d="M118.492 14.8188C119.314 16.0648 120.307 17.1898 121.441 18.1612C121.184 18.4439 120.868 18.667 120.515 18.8149C120.162 18.9629 119.782 19.0321 119.4 19.0177L118.492 14.8188Z" fill="#A24E3F"/>
<path d="M113.314 14.046C113.266 14.0639 113.214 14.0667 113.165 14.0542C113.115 14.0417 113.071 14.0144 113.037 13.9759C113.003 13.9374 112.982 13.8896 112.977 13.8388C112.971 13.7881 112.981 13.7368 113.005 13.6918C113.174 13.3019 113.434 12.9584 113.763 12.6904C114.093 12.4225 114.482 12.238 114.898 12.1527C114.966 12.1412 115.035 12.1563 115.091 12.1947C115.148 12.2331 115.187 12.2919 115.201 12.3587C115.209 12.4283 115.19 12.4983 115.148 12.5544C115.106 12.6106 115.045 12.6488 114.976 12.6614C114.649 12.7339 114.344 12.8833 114.086 13.0973C113.829 13.3112 113.626 13.5834 113.494 13.8914C113.479 13.9298 113.455 13.9638 113.423 13.9907C113.392 14.0176 113.354 14.0366 113.314 14.046Z" fill="#2E353A"/>
<path d="M122.029 12.0489C121.979 12.0615 121.927 12.059 121.879 12.0418C121.83 12.0246 121.788 11.9935 121.758 11.9524C121.558 11.6833 121.298 11.465 120.998 11.3151C120.698 11.1652 120.367 11.0879 120.032 11.0894C119.961 11.0948 119.891 11.0721 119.837 11.0263C119.783 10.9806 119.749 10.9153 119.742 10.8447C119.738 10.7753 119.761 10.707 119.805 10.6533C119.849 10.5996 119.912 10.5645 119.981 10.5549C120.405 10.5452 120.826 10.6372 121.208 10.8231C121.59 11.0091 121.922 11.2836 122.177 11.6239C122.198 11.6513 122.215 11.6827 122.224 11.7164C122.234 11.7501 122.237 11.7853 122.232 11.8201C122.228 11.8549 122.217 11.8884 122.2 11.9189C122.182 11.9493 122.159 11.976 122.132 11.9974C122.102 12.0232 122.067 12.041 122.029 12.0489Z" fill="#2E353A"/>
<path d="M107.717 10.3109C110.46 10.6329 110.743 13.4536 108.039 19.4878C104.915 18.0324 102.165 13.4858 103.048 11.541C103.93 9.59611 105.289 10.0211 107.717 10.3109Z" fill="#2E353A"/>
<path d="M104.905 20.5436C105.235 21.1589 105.683 21.703 106.223 22.145C106.764 22.587 107.386 22.9182 108.054 23.1196C109.844 23.6412 110.759 22.0441 110.282 20.344C109.851 18.8113 108.395 16.6926 106.592 16.918C104.789 17.1434 104.094 19.0174 104.905 20.5436Z" fill="#FFB573"/>
<path d="M103.262 11.0777C103.262 11.0777 101.903 9.32605 104.55 5.82273C107.197 2.31942 113.662 1.24395 118.621 2.20994C123.58 3.17593 120.63 8.64986 118.859 9.55789L119.078 8.70138C117.183 9.69025 115.096 10.2571 112.96 10.3629L113.939 9.45485C113.939 9.45485 106.16 11.4705 103.262 11.0777Z" fill="#2E353A"/>
<path d="M119.071 20.4985C118.958 21.1605 118.896 21.83 118.884 22.5013L118.536 22.5528C116.939 22.7653 116.134 22.3339 115.722 21.7994C115.526 21.5305 115.396 21.2195 115.342 20.8913C115.315 20.7055 115.315 20.5169 115.342 20.3311C116.386 20.6395 117.484 20.7185 118.562 20.5629C118.858 20.5371 119.071 20.4985 119.071 20.4985Z" fill="#2E353A"/>
<path d="M118.523 20.5629L118.452 21.1554C116.958 21.3486 115.876 21.2842 115.342 20.8913C115.315 20.7055 115.315 20.5169 115.342 20.3311C116.374 20.6339 117.458 20.7129 118.523 20.5629Z" fill="white"/>
<path d="M118.536 22.547C116.939 22.7596 116.134 22.3281 115.721 21.7936C116.327 21.7249 116.939 21.7642 117.531 21.9095C117.925 22.011 118.276 22.2341 118.536 22.547Z" fill="#A24E3F"/>
<path d="M109.005 32.5806C109.005 32.5806 113.655 36.071 116.089 36.876C116.089 36.876 117.236 34.7251 116.766 32.9476L120.288 35.4013C120.684 36.8778 120.684 38.4326 120.288 39.9092L116.089 37.52L112.122 40.418C112.122 40.418 106.256 38.7178 105.914 35.1565L109.005 32.5806Z" fill="#407BFF"/>
<path opacity="0.8" d="M109.005 32.5806C109.005 32.5806 113.655 36.071 116.089 36.876C116.089 36.876 117.236 34.7251 116.766 32.9476L120.288 35.4013C120.684 36.8778 120.684 38.4326 120.288 39.9092L116.089 37.52L112.122 40.418C112.122 40.418 106.256 38.7178 105.914 35.1565L109.005 32.5806Z" fill="white"/>
<path d="M185.751 65.6104H121.564C121.148 65.6104 120.811 65.9477 120.811 66.3638V68.2507C120.811 68.6669 121.148 69.0042 121.564 69.0042H185.751C186.167 69.0042 186.504 68.6669 186.504 68.2507V66.3638C186.504 65.9477 186.167 65.6104 185.751 65.6104Z" fill="#407BFF"/>
<path opacity="0.5" d="M186.284 66.2739V68.1608C186.284 68.5794 186.168 68.9143 185.756 68.9143H121.563C121.144 68.9143 120.597 68.5794 120.597 68.1608V66.2739C120.597 65.8618 121.144 65.6943 121.563 65.6943H185.756C186.168 65.6943 186.284 65.8618 186.284 66.2739Z" fill="white"/>
<path opacity="0.2" d="M147.645 66.2739V68.1608C147.645 68.5794 147.503 68.9143 147.091 68.9143H121.563C121.144 68.9143 120.597 68.5794 120.597 68.1608V66.2739C120.597 65.8618 121.144 65.6943 121.563 65.6943H147.091C147.503 65.6943 147.645 65.8618 147.645 66.2739Z" fill="black"/>
</svg>
