<svg width="18" height="18" viewBox="0 0 18 18" fill="none" xmlns="http://www.w3.org/2000/svg">
<path d="M15.4287 1.92857H12.8573H12.0351L11.5381 0.439729C11.4507 0.1773 11.2053 0.000226004 10.9287 0H7.07155C6.79496 0.000226004 6.54952 0.1773 6.46213 0.439729L5.96522 1.92857H2.57158C2.21653 1.92857 1.92871 2.21639 1.92871 2.57144V17.3571C1.92871 17.7122 2.21653 18 2.57158 18H15.4287C15.7838 18 16.0716 17.7122 16.0716 17.3571V2.57144C16.0716 2.21639 15.7838 1.92857 15.4287 1.92857ZM5.78585 3.21427H6.42872C6.70531 3.21404 6.95075 3.03697 7.03814 2.77454L7.53509 1.2857H10.4652L10.9622 2.77454C11.0496 3.03697 11.295 3.21404 11.5716 3.21427H12.2145V4.49997H5.78585V3.21427ZM14.7858 16.7143H3.21441V3.21427H4.50011V5.14284C4.50011 5.49789 4.78793 5.78571 5.14298 5.78571H12.8573C13.2123 5.78571 13.5001 5.49789 13.5001 5.14284V3.21427H14.7858V16.7143Z" fill="#222222"/>
<path d="M9.00029 1.92871C8.64524 1.92871 8.35742 2.21653 8.35742 2.57158V3.21445C8.35742 3.56951 8.64524 3.85732 9.00029 3.85732C9.35534 3.85732 9.64316 3.56947 9.64316 3.21441V2.57158C9.64316 2.21653 9.35534 1.92871 9.00029 1.92871Z" fill="#222222"/>
<path d="M12.8572 7.71436H5.14287C4.78782 7.71436 4.5 8.00218 4.5 8.35723C4.5 8.71229 4.78782 9.00011 5.14287 9.00011H12.8572C13.2122 9.00011 13.5 8.71229 13.5 8.35723C13.5 8.00218 13.2122 7.71436 12.8572 7.71436Z" fill="#222222"/>
<path d="M12.8572 10.2856H5.14287C4.78782 10.2856 4.5 10.5735 4.5 10.9285C4.5 11.2836 4.78782 11.5714 5.14287 11.5714H12.8572C13.2122 11.5714 13.5 11.2836 13.5 10.9285C13.5 10.5735 13.2122 10.2856 12.8572 10.2856Z" fill="#222222"/>
<path d="M12.8572 12.8572H5.14287C4.78782 12.8572 4.5 13.145 4.5 13.5C4.5 13.8551 4.78782 14.1429 5.14287 14.1429H12.8572C13.2122 14.1429 13.5 13.8551 13.5 13.5C13.5 13.145 13.2122 12.8572 12.8572 12.8572Z" fill="#222222"/>
</svg>
