<svg width="18" height="18" viewBox="0 0 18 18" fill="none" xmlns="http://www.w3.org/2000/svg">
<path d="M9 0C4.03724 0 0 4.03724 0 9C0 13.9628 4.03724 18 9 18C13.9628 18 18 13.9628 18 9C18 4.03724 13.9628 0 9 0ZM9 16.5C4.8645 16.5 1.50001 13.1355 1.50001 9C1.50001 4.8645 4.8645 1.50001 9 1.50001C13.1355 1.50001 16.5 4.8645 16.5 9C16.5 13.1355 13.1355 16.5 9 16.5Z" fill="#222222"/>
<path d="M8.81299 12.1274C8.32323 12.1357 7.92874 12.5302 7.92048 13.02C7.91974 13.035 7.91974 13.0507 7.92048 13.0657C7.93774 13.5584 8.35023 13.9439 8.84298 13.9274H8.81299C9.30799 13.9192 9.7055 13.5157 9.7055 13.02C9.69348 12.5317 9.30124 12.1394 8.81299 12.1274Z" fill="#222222"/>
<path d="M8.98502 4.10249C7.92752 4.07099 6.90602 4.48798 6.17251 5.24999C6.08775 5.35648 6.04275 5.48923 6.045 5.625C6.04876 5.95726 6.31275 6.228 6.64502 6.23999C6.79953 6.24073 6.94877 6.18448 7.06503 6.08249C7.53004 5.60025 8.17277 5.32948 8.84253 5.3325C9.85504 5.3325 10.3425 5.87999 10.3425 6.525C10.3425 7.90499 7.89004 8.0775 7.89004 9.87001C7.89004 10.305 8.16004 11.1075 8.72254 11.1075C8.72704 11.1075 8.73228 11.1075 8.73756 11.1075C9.03979 11.1075 9.28505 10.8623 9.28505 10.56C9.28505 10.3575 9.14256 10.185 9.14256 9.9825C9.14256 8.63251 11.7826 8.44502 11.8426 6.35252C11.8425 5.07752 10.7625 4.10249 8.98502 4.10249Z" fill="#222222"/>
</svg>
