<svg width="18" height="18" viewBox="0 0 18 18" fill="none" xmlns="http://www.w3.org/2000/svg">
<g clip-path="url(#clip0)">
<path d="M17.9418 3.7982C17.9032 3.70518 17.8472 3.622 17.7777 3.55239C17.7731 3.54786 17.7686 3.54708 17.7648 3.54332C17.6967 3.47902 17.6188 3.42534 17.5311 3.38902C17.4593 3.35953 17.3837 3.35046 17.308 3.34364C17.2854 3.34212 17.2664 3.33154 17.2437 3.33154H11.1934C10.7752 3.33154 10.4371 3.6696 10.4371 4.08785C10.4371 4.50609 10.7752 4.84415 11.1934 4.84415H15.4256L9.43878 10.865L7.16083 7.94872C7.02924 7.78007 6.83336 7.6757 6.62161 7.65981C6.40154 7.64392 6.19883 7.7188 6.04457 7.86476L0.23625 13.3638C-0.0670385 13.6512 -0.0798703 14.1299 0.206754 14.4332C0.356517 14.5897 0.556167 14.6684 0.756589 14.6684C0.943407 14.6684 1.13019 14.5995 1.27616 14.4619L6.48018 9.53466L8.77402 12.4713C8.9079 12.643 9.10832 12.7481 9.32537 12.761C9.54242 12.7731 9.75342 12.6929 9.90695 12.5394L16.4874 5.92108V10.1382C16.4874 10.5564 16.8255 10.8945 17.2437 10.8945C17.6619 10.8945 18 10.5564 18 10.1382V4.08788V4.08711C17.9993 3.98804 17.9796 3.89048 17.9418 3.7982Z" fill="#222222"/>
</g>
<defs>
<clipPath id="clip0">
<rect width="18" height="18" fill="white"/>
</clipPath>
</defs>
</svg>
