<svg width="18" height="18" viewBox="0 0 18 18" fill="none" xmlns="http://www.w3.org/2000/svg">
<path d="M16.9 1.5293H1.10781C0.710547 1.5293 0.390625 1.85273 0.390625 2.25V15.75C0.390625 16.1473 0.710547 16.4707 1.10781 16.4707H16.9C17.2973 16.4707 17.6172 16.1473 17.6172 15.75V2.25C17.6172 1.85273 17.2938 1.5293 16.9 1.5293ZM16.1793 10.8141H11.2363C10.2414 10.8141 9.43281 9.99844 9.43281 9C9.43281 7.99805 10.2414 7.18594 11.2363 7.18594H16.1828V10.8141H16.1793ZM1.825 15.0258V2.97422H16.1793V5.74102H11.2363C9.45039 5.74102 7.99492 7.20352 7.99492 9C7.99492 10.7965 9.44687 12.259 11.2363 12.259H16.1828V15.0258H1.825Z" fill="#222222"/>
<path d="M10.8809 8.99662V9.00717C10.8809 9.40444 11.2008 9.72436 11.598 9.72436C11.9953 9.72436 12.3152 9.3974 12.3152 8.99662C12.3152 8.59935 11.9953 8.27591 11.598 8.27591C11.2008 8.27239 10.8809 8.59583 10.8809 8.99662Z" fill="#222222"/>
</svg>
