<svg width="18" height="27" viewBox="0 0 18 27" fill="none" xmlns="http://www.w3.org/2000/svg">
<path d="M17.8201 13.8341L16.9184 12.9324C16.7983 12.812 16.6598 12.752 16.5034 12.752C16.3473 12.752 16.2089 12.812 16.0887 12.9324L9.0001 20.0206L1.91176 12.9326C1.79154 12.8122 1.65319 12.7521 1.4969 12.7521C1.34054 12.7521 1.20219 12.8122 1.08204 12.9326L0.180424 13.8343C0.060015 13.9545 0 14.0928 0 14.2492C0 14.4054 0.0602045 14.5437 0.180424 14.6639L8.58523 23.0689C8.70539 23.1891 8.8438 23.2492 9.0001 23.2492C9.15639 23.2492 9.29455 23.1891 9.41464 23.0689L17.8201 14.6639C17.9403 14.5437 18 14.4053 18 14.2492C18 14.0928 17.9403 13.9545 17.8201 13.8341Z" fill="#C2C5CA"/>
<path d="M17.8201 4.83405L16.9184 3.93238C16.7983 3.81197 16.6598 3.75195 16.5034 3.75195C16.3473 3.75195 16.2089 3.81197 16.0887 3.93238L9.0001 11.0206L1.91176 3.93257C1.79154 3.81216 1.65319 3.75214 1.4969 3.75214C1.34054 3.75214 1.20219 3.81216 1.08204 3.93257L0.180424 4.83431C0.060015 4.95446 0 5.09281 0 5.24917C0 5.4054 0.0602045 5.54375 0.180424 5.6639L8.58523 14.0689C8.70539 14.1891 8.8438 14.2492 9.0001 14.2492C9.15639 14.2492 9.29455 14.1891 9.41464 14.0689L17.8201 5.6639C17.9403 5.54368 18 5.40533 18 5.24917C18 5.09281 17.9403 4.95446 17.8201 4.83405Z" fill="#5F6368"/>
</svg>
