<svg width="28" height="28" viewBox="0 0 28 28" fill="none" xmlns="http://www.w3.org/2000/svg">
<path d="M14 0C6.268 0 0 6.268 0 14C0 21.7319 6.268 27.9999 14 27.9999C21.7319 27.9999 27.9999 21.7319 27.9999 14C27.9917 6.27146 21.7285 0.00826171 14 0ZM19.8959 14.446C19.799 14.6405 19.6414 14.7981 19.447 14.895V14.9L11.447 18.9C10.9529 19.1468 10.3523 18.9465 10.1054 18.4524C10.0352 18.312 9.99907 18.157 9.99995 18V10C9.99972 9.44771 10.4472 8.99982 10.9995 8.99952C11.1548 8.99947 11.3081 9.03556 11.447 9.10499L19.447 13.105C19.9413 13.3513 20.1423 13.9517 19.8959 14.446Z" fill="#1A73E8"/>
</svg>
