<svg width="14" height="11" viewBox="0 0 14 11" fill="none" xmlns="http://www.w3.org/2000/svg">
<path d="M12.3961 0H1.60388C0.719269 0 0 0.719269 0 1.60388V8.89526C0 9.78073 0.719269 10.5 1.60388 10.5H12.3953C13.2807 10.5 14 9.78073 14 8.89612V1.60474C14 0.719269 13.2807 0 12.3961 0Z" fill="#B2B2B2"/>
<path d="M11.8131 8.16699H8.60449C8.36288 8.16699 8.16699 7.97089 8.16699 7.72949C8.16699 7.48788 8.36288 7.29199 8.60449 7.29199H11.8131C12.0545 7.29199 12.2506 7.48788 12.2506 7.72949C12.2506 7.97089 12.0545 8.16699 11.8131 8.16699Z" fill="white"/>
<path d="M11.8131 5.83496H8.60449C8.36288 5.83496 8.16699 5.63907 8.16699 5.39746C8.16699 5.15607 8.36288 4.95996 8.60449 4.95996H11.8131C12.0545 4.95996 12.2506 5.15607 12.2506 5.39746C12.2506 5.63907 12.0545 5.83496 11.8131 5.83496Z" fill="white"/>
<path d="M11.8131 3.5H8.60449C8.36288 3.5 8.16699 3.30389 8.16699 3.0625C8.16699 2.82111 8.36288 2.625 8.60449 2.625H11.8131C12.0545 2.625 12.2506 2.82111 12.2506 3.0625C12.2506 3.30389 12.0545 3.5 11.8131 3.5Z" fill="white"/>
<path d="M5.83325 3.79065C5.83325 4.59622 5.18021 5.24927 4.37463 5.24927C3.56906 5.24927 2.91602 4.59622 2.91602 3.79065C2.91602 2.98508 3.56906 2.33203 4.37463 2.33203C5.18021 2.33203 5.83325 2.98508 5.83325 3.79065Z" fill="white"/>
<path d="M7.00098 7.72827C7.00098 7.96967 6.80487 8.16577 6.56348 8.16577H2.18848C1.94708 8.16577 1.75098 7.96967 1.75098 7.72827V7.43689C1.75098 6.55228 2.47025 5.83301 3.35486 5.83301H5.39624C6.28085 5.83301 7.00012 6.55228 7.00012 7.43689V7.72827H7.00098Z" fill="white"/>
</svg>
