<svg width="14" height="14" viewBox="0 0 14 14" fill="none" xmlns="http://www.w3.org/2000/svg">
<path d="M8.75061 4.08362C8.42868 4.08362 8.16699 3.82278 8.16699 3.5V1.75C8.16699 1.42807 7.9053 1.16638 7.58337 1.16638H1.31311C0.99118 1.16638 0.729492 0.905548 0.729492 0.582764C0.729492 0.259979 0.990326 0 1.31311 0H7.58423C8.54938 0 9.33423 0.784851 9.33423 1.75V3.5C9.33423 3.82193 9.07339 4.08362 8.75061 4.08362Z" fill="#B2B2B2"/>
<path d="M7.58301 12.2502H5.54163C5.2197 12.2502 4.95801 11.9894 4.95801 11.6666C4.95801 11.3447 5.21884 11.083 5.54163 11.083H7.58301C7.90494 11.083 8.16663 10.8213 8.16663 10.4994V8.16577C8.16663 7.84384 8.42746 7.58215 8.75024 7.58215C9.07217 7.58215 9.33386 7.84277 9.33386 8.16577V10.5002C9.33301 11.4654 8.54816 12.2502 7.58301 12.2502Z" fill="#B2B2B2"/>
<path d="M5.0383 1.22321L1.52869 0.0542603C1.41141 0.017517 1.29242 0 1.16638 0C0.523163 0 0 0.523163 0 1.16638V11.6664C0 12.1633 0.316803 12.6087 0.794464 12.7759L4.30771 13.9466C4.42755 13.9833 4.54483 14 4.66638 14C5.3096 14 5.83276 13.4768 5.83276 12.8336V2.33362C5.83362 1.83481 5.51596 1.3894 5.0383 1.22321Z" fill="#B2B2B2"/>
<path d="M10.8598 8.70529C10.6421 8.61514 10.5002 8.40259 10.5002 8.16632V6.41632H8.16663C7.8447 6.41632 7.58301 6.15463 7.58301 5.8327C7.58301 5.51077 7.8447 5.24994 8.16663 5.24994H10.5002V3.49994C10.5002 3.26367 10.6421 3.05112 10.8598 2.96097C11.0777 2.87082 11.3289 2.92059 11.4959 3.08786L13.8296 5.42148C14.0571 5.64899 14.0571 6.01813 13.8296 6.24649L11.4959 8.58011C11.3289 8.74567 11.0785 8.79544 10.8598 8.70529Z" fill="#B2B2B2"/>
</svg>
