<svg width="12" height="14" viewBox="0 0 12 14" fill="none" xmlns="http://www.w3.org/2000/svg">
<path d="M10.0832 0H1.96021C1.29865 0 0.717773 0.544234 0.717773 1.18843V13.2047C0.717773 13.4204 0.777789 13.6001 0.874514 13.7389C0.990187 13.9049 1.17644 14.0001 1.37616 14C1.56499 14 1.76603 13.916 1.95169 13.7574L5.5859 10.6717C5.69814 10.5759 5.85937 10.5209 6.027 10.5209C6.19457 10.5209 6.35547 10.5759 6.46804 10.672L10.0901 13.7569C10.2764 13.916 10.4636 14.0001 10.6521 14.0001C10.9709 14.0001 11.2816 13.7542 11.2816 13.2048V1.18843C11.2816 0.544234 10.7447 0 10.0832 0Z" fill="#B2B2B2"/>
</svg>
