<svg width="58" height="58" viewBox="0 0 58 58" fill="none" xmlns="http://www.w3.org/2000/svg">
<g filter="url(#filter0_d)">
<rect x="4" width="50" height="50" rx="5" fill="#FF7D51"/>
<path d="M43.9268 17.4726C43.9201 18.0818 43.8348 18.6731 43.6809 19.2371L34.6761 10.3414C35.2659 10.1737 35.8866 10.0803 36.5275 10.0732L36.5045 8C31.4965 8.05557 27.4365 12.1667 27.4541 17.1619L27.4621 24.462L20.1644 24.454C15.2369 24.4238 11.0561 28.4419 11 33.5045L13.0732 33.5274C13.08 32.9174 13.1647 32.3256 13.3174 31.7614L22.3222 40.6569C21.7326 40.8256 21.1126 40.9197 20.4725 40.9268L20.4955 43C25.48 42.9447 29.5402 38.8358 29.5462 33.8381L29.5378 26.5379L36.8406 26.5461C41.8357 26.5402 45.9446 22.4801 46 17.4956L43.9268 17.4726ZM29.5355 24.4644L29.531 20.364L33.6865 24.4691L29.5355 24.4644ZM20.1596 26.5274L20.3602 26.5276L27.4725 33.5536C27.4598 33.7116 27.5642 34.8593 27.028 36.2957L17.6142 26.996C18.4282 26.6819 19.2715 26.5274 20.1596 26.5274ZM24.3255 39.7214L14.2241 29.7427C14.6403 29.106 15.1563 28.5404 15.7488 28.0676L25.9794 38.1741C25.514 38.7734 24.9551 39.2964 24.3255 39.7214ZM27.4692 30.6358L23.3138 26.5308L27.4645 26.5355L27.4692 30.6358ZM36.6401 24.4725L29.5278 17.4465C29.5415 17.267 29.4316 16.1316 29.9645 14.6968L39.3787 23.997C38.5893 24.303 37.7332 24.4717 36.8406 24.4728L36.6401 24.4725ZM41.2436 22.9246L31.0125 12.8176C31.4779 12.2193 32.0379 11.6972 32.6691 11.2732L42.7706 21.2522C42.3534 21.8873 41.8367 22.452 41.2436 22.9246Z" fill="white"/>
</g>
<defs>
<filter id="filter0_d" x="0" y="0" width="58" height="58" filterUnits="userSpaceOnUse" color-interpolation-filters="sRGB">
<feFlood flood-opacity="0" result="BackgroundImageFix"/>
<feColorMatrix in="SourceAlpha" type="matrix" values="0 0 0 0 0 0 0 0 0 0 0 0 0 0 0 0 0 0 127 0"/>
<feOffset dy="4"/>
<feGaussianBlur stdDeviation="2"/>
<feColorMatrix type="matrix" values="0 0 0 0 0 0 0 0 0 0 0 0 0 0 0 0 0 0 0.15 0"/>
<feBlend mode="normal" in2="BackgroundImageFix" result="effect1_dropShadow"/>
<feBlend mode="normal" in="SourceGraphic" in2="effect1_dropShadow" result="shape"/>
</filter>
</defs>
</svg>
