<svg width="18" height="18" viewBox="0 0 18 18" fill="none" xmlns="http://www.w3.org/2000/svg">
<path d="M8.99998 0C4.02943 0 0 4.02943 0 8.99998C0 13.9705 4.02943 18 8.99998 18C13.9705 18 18 13.9705 18 8.99998C17.9947 4.03165 13.9683 0.0053111 8.99998 0ZM8.99998 16.7143C4.7395 16.7143 1.2857 13.2605 1.2857 8.99998C1.2857 4.7395 4.7395 1.2857 8.99998 1.2857C13.2605 1.2857 16.7143 4.7395 16.7143 8.99998C16.7097 13.2586 13.2586 16.7097 8.99998 16.7143Z" fill="white"/>
<path d="M13.3772 4.33431C13.1967 4.24436 12.9844 4.24436 12.8039 4.33431L7.34921 7.06131C7.22453 7.12358 7.12347 7.22464 7.0612 7.34932L4.33419 12.804C4.17588 13.1218 4.30515 13.5077 4.62291 13.666C4.80345 13.756 5.01571 13.756 5.19625 13.666L10.6509 10.939C10.7756 10.8768 10.8766 10.7757 10.9389 10.651L13.6659 5.19636C13.8242 4.8786 13.695 4.49266 13.3772 4.33431ZM6.34699 11.6532L7.8127 8.7218L9.27842 10.1875L6.34699 11.6532ZM10.1874 9.27853L8.72169 7.81281L11.6531 6.3471L10.1874 9.27853Z" fill="white"/>
</svg>
