<svg width="135" height="29" viewBox="0 0 135 29" fill="none" xmlns="http://www.w3.org/2000/svg">
<path d="M67.68 16.712C67.68 16.888 67.664 17.12 67.632 17.408H57.312C57.456 18.528 57.944 19.432 58.776 20.12C59.624 20.792 60.672 21.128 61.92 21.128C63.44 21.128 64.664 20.616 65.592 19.592L66.864 21.08C66.288 21.752 65.568 22.264 64.704 22.616C63.856 22.968 62.904 23.144 61.848 23.144C60.504 23.144 59.312 22.872 58.272 22.328C57.232 21.768 56.424 20.992 55.848 20C55.288 19.008 55.008 17.888 55.008 16.64C55.008 15.408 55.28 14.296 55.824 13.304C56.384 12.312 57.144 11.544 58.104 11C59.08 10.44 60.176 10.16 61.392 10.16C62.608 10.16 63.688 10.44 64.632 11C65.592 11.544 66.336 12.312 66.864 13.304C67.408 14.296 67.68 15.432 67.68 16.712ZM61.392 12.104C60.288 12.104 59.36 12.44 58.608 13.112C57.872 13.784 57.44 14.664 57.312 15.752H65.472C65.344 14.68 64.904 13.808 64.152 13.136C63.416 12.448 62.496 12.104 61.392 12.104ZM70.2977 15.416H76.7537V17.408H70.2977V15.416ZM96.2132 10.16C97.8132 10.16 99.0772 10.624 100.005 11.552C100.949 12.48 101.421 13.856 101.421 15.68V23H99.1172V15.944C99.1172 14.712 98.8292 13.784 98.2532 13.16C97.6932 12.536 96.8852 12.224 95.8292 12.224C94.6612 12.224 93.7332 12.592 93.0452 13.328C92.3572 14.048 92.0132 15.088 92.0132 16.448V23H89.7092V15.944C89.7092 14.712 89.4212 13.784 88.8452 13.16C88.2852 12.536 87.4772 12.224 86.4212 12.224C85.2532 12.224 84.3252 12.592 83.6372 13.328C82.9492 14.048 82.6052 15.088 82.6052 16.448V23H80.3012V10.28H82.5092V12.176C82.9732 11.52 83.5812 11.024 84.3332 10.688C85.0852 10.336 85.9412 10.16 86.9012 10.16C87.8932 10.16 88.7732 10.36 89.5412 10.76C90.3092 11.16 90.9012 11.744 91.3172 12.512C91.7972 11.776 92.4612 11.2 93.3092 10.784C94.1732 10.368 95.1412 10.16 96.2132 10.16ZM117.227 16.712C117.227 16.888 117.211 17.12 117.179 17.408H106.859C107.003 18.528 107.491 19.432 108.323 20.12C109.171 20.792 110.219 21.128 111.467 21.128C112.987 21.128 114.211 20.616 115.139 19.592L116.411 21.08C115.835 21.752 115.115 22.264 114.251 22.616C113.403 22.968 112.451 23.144 111.395 23.144C110.051 23.144 108.859 22.872 107.819 22.328C106.779 21.768 105.971 20.992 105.395 20C104.835 19.008 104.555 17.888 104.555 16.64C104.555 15.408 104.827 14.296 105.371 13.304C105.931 12.312 106.691 11.544 107.651 11C108.627 10.44 109.723 10.16 110.939 10.16C112.155 10.16 113.235 10.44 114.179 11C115.139 11.544 115.883 12.312 116.411 13.304C116.955 14.296 117.227 15.432 117.227 16.712ZM110.939 12.104C109.835 12.104 108.907 12.44 108.155 13.112C107.419 13.784 106.987 14.664 106.859 15.752H115.019C114.891 14.68 114.451 13.808 113.699 13.136C112.963 12.448 112.043 12.104 110.939 12.104ZM127.218 10.16C128.834 10.16 130.114 10.632 131.058 11.576C132.018 12.504 132.498 13.872 132.498 15.68V23H130.194V15.944C130.194 14.712 129.898 13.784 129.306 13.16C128.714 12.536 127.866 12.224 126.762 12.224C125.514 12.224 124.53 12.592 123.81 13.328C123.09 14.048 122.73 15.088 122.73 16.448V23H120.426V10.28H122.634V12.2C123.098 11.544 123.722 11.04 124.506 10.688C125.306 10.336 126.21 10.16 127.218 10.16Z" fill="#222426"/>
<rect x="23" y="4" width="22" height="22" fill="#1A73E8"/>
<circle cx="11" cy="15" r="11" fill="#1A73E8"/>
</svg>
