<svg width="58" height="58" viewBox="0 0 58 58" fill="none" xmlns="http://www.w3.org/2000/svg">
<g filter="url(#filter0_d)">
<rect x="4" width="50" height="50" rx="5" fill="#1F212B"/>
<g clip-path="url(#clip0)">
<path d="M35.6441 8H12.0254C11.4591 8 11 8.4591 11 9.02539V41.9049C11 42.4712 11.4591 42.9303 12.0254 42.9303H35.6441C36.2104 42.9303 36.6695 42.4712 36.6695 41.9049V9.02539C36.6695 8.4591 36.2104 8 35.6441 8ZM34.6187 40.8796H13.0508V10.0508H34.6187V40.8796Z" fill="white"/>
<path d="M16.4131 20.1564H20.9295C21.4958 20.1564 21.9549 19.6973 21.9549 19.131V14.626C21.9549 14.0597 21.4958 13.6006 20.9295 13.6006H16.4131C15.8468 13.6006 15.3877 14.0597 15.3877 14.626V19.131C15.3877 19.6973 15.8467 20.1564 16.4131 20.1564ZM17.4385 15.6514H19.9041V18.1056H17.4385V15.6514Z" fill="white"/>
<path d="M16.4131 28.7432H20.9295C21.4958 28.7432 21.9549 28.2841 21.9549 27.7178V23.2129C21.9549 22.6466 21.4958 22.1875 20.9295 22.1875H16.4131C15.8468 22.1875 15.3877 22.6466 15.3877 23.2129V27.7178C15.3877 28.2842 15.8467 28.7432 16.4131 28.7432ZM17.4385 24.2383H19.9041V26.6924H17.4385V24.2383Z" fill="white"/>
<path d="M16.4131 37.3301H20.9295C21.4958 37.3301 21.9549 36.871 21.9549 36.3048V31.7998C21.9549 31.2335 21.4958 30.7744 20.9295 30.7744H16.4131C15.8468 30.7744 15.3877 31.2335 15.3877 31.7998V36.3048C15.3877 36.871 15.8467 37.3301 16.4131 37.3301ZM17.4385 32.8251H19.9041V35.2793H17.4385V32.8251Z" fill="white"/>
<path d="M25.0327 15.6514H31.2568C31.8231 15.6514 32.2822 15.1923 32.2822 14.626C32.2822 14.0597 31.8231 13.6006 31.2568 13.6006H25.0327C24.4664 13.6006 24.0073 14.0597 24.0073 14.626C24.0073 15.1923 24.4664 15.6514 25.0327 15.6514Z" fill="white"/>
<path d="M25.0327 20.1563H31.2568C31.8231 20.1563 32.2822 19.6971 32.2822 19.1309C32.2822 18.5646 31.8231 18.1055 31.2568 18.1055H25.0327C24.4664 18.1055 24.0073 18.5646 24.0073 19.1309C24.0073 19.6971 24.4664 20.1563 25.0327 20.1563Z" fill="white"/>
<path d="M25.0327 24.2383H31.2568C31.8231 24.2383 32.2822 23.7792 32.2822 23.2129C32.2822 22.6466 31.8231 22.1875 31.2568 22.1875H25.0327C24.4664 22.1875 24.0073 22.6466 24.0073 23.2129C24.0073 23.7792 24.4664 24.2383 25.0327 24.2383Z" fill="white"/>
<path d="M25.0327 28.7432H31.2568C31.8231 28.7432 32.2822 28.2841 32.2822 27.7178C32.2822 27.1515 31.8231 26.6924 31.2568 26.6924H25.0327C24.4664 26.6924 24.0073 27.1515 24.0073 27.7178C24.0073 28.2841 24.4664 28.7432 25.0327 28.7432Z" fill="white"/>
<path d="M25.0327 32.8252H31.2568C31.8231 32.8252 32.2822 32.3661 32.2822 31.7998C32.2822 31.2335 31.8231 30.7744 31.2568 30.7744H25.0327C24.4664 30.7744 24.0073 31.2335 24.0073 31.7998C24.0073 32.3661 24.4664 32.8252 25.0327 32.8252Z" fill="white"/>
<path d="M25.0327 37.3301H31.2568C31.8231 37.3301 32.2822 36.871 32.2822 36.3047C32.2822 35.7384 31.8231 35.2793 31.2568 35.2793H25.0327C24.4664 35.2793 24.0073 35.7384 24.0073 36.3047C24.0073 36.871 24.4664 37.3301 25.0327 37.3301Z" fill="white"/>
<path d="M42.5512 8.07031C40.6528 8.07031 39.1084 9.61476 39.1084 11.5131V37.0221C39.1084 37.1781 39.144 37.3321 39.2125 37.4722L41.633 42.4255C41.805 42.7775 42.1625 43.0007 42.5543 43.0007C42.946 43.0007 43.3035 42.7775 43.4755 42.4255L45.896 37.4723C45.9645 37.3321 46.0001 37.1781 46.0001 37.0221V11.513C46.0001 9.61469 44.4557 8.07031 42.5512 8.07031ZM41.1592 14.0238H43.9493V33.0591H41.1592V14.0238ZM42.5573 10.1211C43.3249 10.1211 43.9493 10.7456 43.9493 11.5131V11.9731H41.1592V11.5131C41.1592 10.7455 41.7836 10.1211 42.5573 10.1211ZM43.9493 36.7849L42.5543 39.6398L41.1592 36.7849V35.1099H43.9493V36.7849Z" fill="white"/>
</g>
</g>
<defs>
<filter id="filter0_d" x="0" y="0" width="58" height="58" filterUnits="userSpaceOnUse" color-interpolation-filters="sRGB">
<feFlood flood-opacity="0" result="BackgroundImageFix"/>
<feColorMatrix in="SourceAlpha" type="matrix" values="0 0 0 0 0 0 0 0 0 0 0 0 0 0 0 0 0 0 127 0"/>
<feOffset dy="4"/>
<feGaussianBlur stdDeviation="2"/>
<feColorMatrix type="matrix" values="0 0 0 0 0 0 0 0 0 0 0 0 0 0 0 0 0 0 0.15 0"/>
<feBlend mode="normal" in2="BackgroundImageFix" result="effect1_dropShadow"/>
<feBlend mode="normal" in="SourceGraphic" in2="effect1_dropShadow" result="shape"/>
</filter>
<clipPath id="clip0">
<rect width="35" height="35" fill="white" transform="translate(11 8)"/>
</clipPath>
</defs>
</svg>
