<svg width="40" height="40" viewBox="0 0 40 40" fill="none" xmlns="http://www.w3.org/2000/svg">
<g clip-path="url(#clip0)">
<path d="M39.9343 15.4136C39.7254 14.6541 39.0145 14.1141 38.2258 14.1141C34.013 14.1141 29.8002 14.1141 25.5874 14.1141C24.3835 10.4094 23.1796 6.7047 21.9765 3.00001C21.8854 2.72293 21.7968 2.44586 21.7057 2.16967C21.7039 2.16524 21.7012 2.1617 21.7003 2.15639C21.5684 1.72794 21.271 1.3526 20.8833 1.12067C20.8753 1.11536 20.8673 1.10916 20.8594 1.10473C20.785 1.06136 20.7062 1.02772 20.6266 0.99585C20.5938 0.982572 20.5628 0.968408 20.5292 0.957786C20.5097 0.950704 20.4902 0.939196 20.4699 0.933884C20.43 0.923262 20.392 0.922376 20.353 0.914409C20.2911 0.901131 20.2282 0.888738 20.1645 0.882541C20.1167 0.878115 20.0706 0.878115 20.0228 0.87723C19.952 0.876344 19.8812 0.87723 19.8095 0.885197C19.7697 0.889623 19.7316 0.89759 19.6926 0.904672C19.6386 0.914409 19.5846 0.917065 19.5298 0.932114C19.5005 0.940081 19.4749 0.95513 19.4465 0.964867C19.4377 0.967523 19.4288 0.971949 19.42 0.97549C18.8871 1.16493 18.4648 1.61994 18.2993 2.1555C18.2975 2.16081 18.2949 2.16524 18.2931 2.17055C16.9989 6.15232 15.7064 10.1341 14.4114 14.115C10.4889 14.115 6.56733 14.115 2.64488 14.115C2.35364 14.115 2.06328 14.115 1.77204 14.115C0.984186 14.115 0.274232 14.6549 0.064432 15.4145C-0.162187 16.2386 0.227314 16.9406 0.877958 17.4142C4.23918 19.8557 7.59951 22.2971 10.9607 24.7386C9.74 28.4964 8.51926 32.2542 7.29676 36.012C7.20735 36.2882 7.11706 36.5653 7.02677 36.8424C6.57087 38.2446 8.35992 39.7627 9.62846 38.8412C13.0862 36.3289 16.543 33.8175 20.0007 31.3052C23.2229 33.6476 26.4452 35.9872 29.6674 38.3295C29.9029 38.4995 30.1375 38.6703 30.3729 38.8412C31.6424 39.7627 33.4296 38.2446 32.9737 36.8424C31.6636 32.8066 30.3508 28.7726 29.0398 24.7368C32.1646 22.4671 35.2904 20.1965 38.4161 17.9259C38.6516 17.755 38.8862 17.5842 39.1217 17.4124C39.7723 16.9397 40.1609 16.2377 39.9343 15.4136ZM20.893 27.5988C20.4318 27.2633 19.5678 27.2633 19.1048 27.5988C16.7678 29.2975 14.4308 30.9954 12.0938 32.6933C12.887 30.2518 13.6802 27.8112 14.4733 25.3707C14.5636 25.0945 14.653 24.8174 14.7433 24.5403C15.0053 23.7348 14.5565 22.9965 13.9298 22.5415C11.6884 20.9126 9.44699 19.2847 7.2047 17.6559C9.74354 17.6559 12.2824 17.6559 14.8212 17.6559C15.1125 17.6559 15.4028 17.6559 15.6941 17.6559C16.5093 17.6559 17.1556 17.1106 17.4017 16.3564C18.2674 13.6927 19.1332 11.0273 19.9989 8.36362C20.7735 10.7511 21.549 13.1377 22.3253 15.5242C22.4156 15.8013 22.5041 16.0775 22.5953 16.3546C22.8405 17.1088 23.4876 17.6541 24.3029 17.6541C27.133 17.6541 29.9631 17.6541 32.7923 17.6541C30.7863 19.1112 28.7813 20.5683 26.7754 22.0254C26.539 22.1962 26.3044 22.368 26.0681 22.5388C25.4413 22.9956 24.9916 23.7321 25.2545 24.5377C26.1371 27.2562 27.0206 29.9739 27.904 32.6915C25.8025 31.1645 23.7001 29.6383 21.5994 28.1113C21.364 27.9405 21.1294 27.7696 20.893 27.5988Z" fill="#1ABF7E"/>
</g>
<defs>
<clipPath id="clip0">
<rect width="40" height="40" fill="white"/>
</clipPath>
</defs>
</svg>
