<svg width="14" height="14" viewBox="0 0 14 14" fill="none" xmlns="http://www.w3.org/2000/svg">
<path d="M7 0C3.13401 0 0 3.13401 0 7C0 10.866 3.13401 14 7 14C10.866 14 14 10.866 14 7C13.9954 3.13591 10.8641 0.00458045 7 0ZM7 10.9375C4.82538 10.9375 3.0625 9.17462 3.0625 7C3.0625 4.82538 4.82538 3.0625 7 3.0625C9.17462 3.0625 10.9375 4.82538 10.9375 7C10.9375 7.24162 10.7416 7.4375 10.5 7.4375C10.2584 7.4375 10.0625 7.24162 10.0625 7C10.0625 5.30863 8.69137 3.9375 7 3.9375C5.30863 3.9375 3.9375 5.30863 3.9375 7C3.9375 8.69137 5.30863 10.0625 7 10.0625C7.24162 10.0625 7.4375 10.2584 7.4375 10.5C7.4375 10.7416 7.24162 10.9375 7 10.9375ZM10.836 9.4675C10.7529 9.56718 10.6298 9.6248 10.5 9.6248C10.3702 9.6248 10.2471 9.56718 10.164 9.4675L7.9765 6.8425C7.82886 6.65642 7.85666 6.38654 8.03914 6.23447C8.22162 6.0824 8.4921 6.10372 8.6485 6.2825L10.5 8.50412L12.3515 6.2825C12.4502 6.1581 12.6086 6.09695 12.7653 6.12274C12.922 6.14853 13.0524 6.25722 13.106 6.4067C13.1596 6.55617 13.1281 6.72298 13.0235 6.8425L10.836 9.4675Z" fill="#B2B2B2"/>
</svg>
