<svg width="18" height="18" viewBox="0 0 18 18" fill="none" xmlns="http://www.w3.org/2000/svg">
<path d="M14.2205 2.20109L15.0924 2.0921C15.4826 2.04289 15.7604 1.68781 15.7147 1.29406C15.669 0.931948 15.3737 0.636635 14.9166 0.671791L12.294 0.998744C11.9037 1.04796 11.626 1.40304 11.6717 1.79328L11.9951 4.45109C12.0444 4.84132 12.3994 5.12257 12.7897 5.07335C13.1799 5.02414 13.4612 4.66906 13.4119 4.27531L13.2924 3.28742C15.7569 5.11554 16.7799 8.28664 15.8342 11.2222C14.8885 14.1577 12.1112 16.1722 9.04202 16.1792C8.58851 16.1792 8.30023 16.4816 8.28968 16.8753C8.28265 17.2691 8.5639 17.6066 9.04202 17.6066C12.7264 17.6066 16.0627 15.1843 17.1948 11.6581C18.3198 8.17414 17.1244 4.40187 14.2205 2.20109Z" fill="#222222"/>
<path d="M6.00131 13.5459C5.95209 13.1556 5.59701 12.8744 5.20678 12.9236C4.81654 12.9728 4.53529 13.3279 4.58451 13.7216L4.70404 14.7095C2.23959 12.8814 1.21654 9.71031 2.16225 6.77476C3.10795 3.83921 5.88529 1.82476 8.95443 1.81773C9.40795 1.81773 9.69623 1.51538 9.70678 1.12163C9.71381 0.727885 9.43256 0.390385 8.95443 0.390385C5.27357 0.386869 1.93725 2.80913 0.805216 6.33531C-0.319784 9.82632 0.875528 13.5986 3.77943 15.7994L2.90756 15.9084C2.51732 15.9576 2.23959 16.3127 2.28529 16.7064C2.331 17.0685 2.62631 17.3638 3.08334 17.3287L5.706 17.0017C6.09623 16.9525 6.37397 16.5974 6.32826 16.2072L6.00131 13.5459Z" fill="#222222"/>
</svg>
