<svg width="58" height="58" viewBox="0 0 58 58" fill="none" xmlns="http://www.w3.org/2000/svg">
<g filter="url(#filter0_d)">
<rect x="4" width="50" height="50" rx="5" fill="#8E96FF"/>
<path d="M29.0131 12.3044C29.1274 11.5433 29.6507 10.7344 30.3955 10.7344C31.1494 10.7344 31.7627 11.3477 31.7627 12.1016H34.4971C34.4971 9.83996 32.6571 8 30.3955 8C28.0967 8 26.5997 9.9613 26.3087 11.9015L25.4295 17.8438H21.2354V20.5781H25.0249L22.3439 38.6983L22.3359 38.7624C22.2633 39.4884 21.6938 40.2656 20.9619 40.2656C20.208 40.2656 19.5947 39.6523 19.5947 38.8984H16.8604C16.8604 41.16 18.7003 43 20.9619 43C23.263 43 24.8427 41.0079 25.0531 39.0696L27.789 20.5781H31.8994V17.8438H28.1936L29.0131 12.3044Z" fill="white"/>
<path d="M40.1395 24.9531H36.8559L35.0794 27.625L33.895 24.9531H30.9041L33.2848 30.3241L29.4927 36.0273H32.7763L34.5982 33.2872L35.8129 36.0273H38.8038L36.3928 30.5881L40.1395 24.9531Z" fill="white"/>
</g>
<defs>
<filter id="filter0_d" x="0" y="0" width="58" height="58" filterUnits="userSpaceOnUse" color-interpolation-filters="sRGB">
<feFlood flood-opacity="0" result="BackgroundImageFix"/>
<feColorMatrix in="SourceAlpha" type="matrix" values="0 0 0 0 0 0 0 0 0 0 0 0 0 0 0 0 0 0 127 0"/>
<feOffset dy="4"/>
<feGaussianBlur stdDeviation="2"/>
<feColorMatrix type="matrix" values="0 0 0 0 0 0 0 0 0 0 0 0 0 0 0 0 0 0 0.15 0"/>
<feBlend mode="normal" in2="BackgroundImageFix" result="effect1_dropShadow"/>
<feBlend mode="normal" in="SourceGraphic" in2="effect1_dropShadow" result="shape"/>
</filter>
</defs>
</svg>
