<svg width="58" height="58" viewBox="0 0 58 58" fill="none" xmlns="http://www.w3.org/2000/svg">
<g filter="url(#filter0_d)">
<rect x="4" width="50" height="50" rx="5" fill="#A06AF9"/>
<path d="M28.5004 21.1318C26.0901 21.1318 24.1292 23.0928 24.1292 25.5031C24.1292 27.9134 26.0901 29.8743 28.5004 29.8743C30.9107 29.8743 32.8716 27.9134 32.8716 25.5031C32.8716 23.0928 30.9107 21.1318 28.5004 21.1318ZM28.5004 27.6887C27.2952 27.6887 26.3148 26.7083 26.3148 25.5031C26.3148 24.2979 27.2952 23.3175 28.5004 23.3175C29.7056 23.3175 30.686 24.2979 30.686 25.5031C30.686 26.7083 29.7056 27.6887 28.5004 27.6887Z" fill="white"/>
<path d="M41.306 25.5034C47.0871 18.4811 43.9463 12.906 34.9033 14.4137C31.7126 5.89576 25.314 5.82848 22.098 14.4137C13.1258 12.9178 9.86829 18.4254 15.6954 25.5034C9.79739 32.6677 13.2546 38.0676 22.0981 36.5932C25.279 45.0848 31.6845 45.1861 34.9034 36.5932C43.8755 38.0891 47.133 32.5815 41.306 25.5034ZM41.7502 17.8538C42.4962 19.1458 41.7874 21.3806 39.8177 23.8642C38.8151 22.8541 37.6747 21.8671 36.4253 20.9281C36.2368 19.3758 35.9519 17.8939 35.5782 16.5199C37.5514 16.2266 40.7539 16.1279 41.7502 17.8538ZM33.956 31.7806C33.8066 32.58 33.6308 33.3372 33.4326 34.0473C32.7063 33.8604 31.963 33.6328 31.209 33.3666C32.1417 32.8771 33.0443 32.3571 33.956 31.7806ZM28.5006 32.2649C26.5365 31.3621 24.513 30.2081 22.6446 28.8844C22.4444 26.7326 22.433 24.3969 22.6446 22.1225C24.3975 20.8806 26.4079 19.7038 28.5006 18.742C30.4648 19.6448 32.4882 20.7988 34.3567 22.1225C34.5569 24.2743 34.5683 26.61 34.3567 28.8844C32.6038 30.1263 30.5934 31.3031 28.5006 32.2649ZM25.7923 33.3666C25.0383 33.6328 24.295 33.8604 23.5687 34.0473C23.3705 33.3372 23.1946 32.5801 23.0453 31.7806C23.9356 32.3436 24.8372 32.8654 25.7923 33.3666ZM20.3368 27.0893C19.7195 26.5605 19.152 26.0299 18.6363 25.5034C19.152 24.977 19.7195 24.4464 20.3368 23.9176C20.2938 24.9824 20.2938 26.0244 20.3368 27.0893ZM23.0453 19.2263C23.1947 18.4269 23.3705 17.6697 23.5687 16.9596C24.295 17.1465 25.0383 17.3741 25.7923 17.6403C24.8597 18.1298 23.957 18.6497 23.0453 19.2263ZM31.209 17.6403C31.963 17.3742 32.7063 17.1465 33.4326 16.9596C33.6308 17.6698 33.8067 18.4269 33.956 19.2263C33.0657 18.6633 32.1641 18.1416 31.209 17.6403ZM36.6645 23.9176C37.2818 24.4464 37.8493 24.977 38.365 25.5034C37.8493 26.0299 37.2818 26.5605 36.6645 27.0893C36.7074 26.0246 36.7074 24.9825 36.6645 23.9176ZM28.5006 10.2041C29.9925 10.2041 31.5736 11.9353 32.7396 14.883C31.3635 15.2462 29.9384 15.7403 28.5006 16.3529C27.0628 15.7403 25.6378 15.2462 24.2617 14.883C25.4277 11.9353 27.0088 10.2041 28.5006 10.2041ZM15.2511 17.8538C16.2468 16.1291 19.445 16.2258 21.4232 16.5199C21.0494 17.8939 20.7646 19.3758 20.576 20.9281C19.3266 21.8671 18.1862 22.8541 17.1836 23.8642C15.2138 21.3806 14.5051 19.1458 15.2511 17.8538ZM15.2511 33.1531C14.5051 31.8611 15.2138 29.6263 17.1836 27.1427C18.1862 28.1528 19.3266 29.1398 20.576 30.0788C20.7645 31.6311 21.0494 33.113 21.4232 34.487C19.446 34.7809 16.2454 34.8755 15.2511 33.1531ZM28.5006 40.8028C27.0088 40.8028 25.4277 39.0716 24.2617 36.1239C25.6378 35.7607 27.0628 35.2666 28.5006 34.654C29.9385 35.2666 31.3635 35.7607 32.7396 36.1239C31.5736 39.0716 29.9925 40.8028 28.5006 40.8028ZM41.7502 33.1531C40.7548 34.8773 37.558 34.7813 35.5781 34.487C35.9519 33.113 36.2367 31.6311 36.4252 30.0788C37.6746 29.1398 38.815 28.1528 39.8177 27.1427C41.7875 29.6263 42.4962 31.8611 41.7502 33.1531Z" fill="white"/>
</g>
<defs>
<filter id="filter0_d" x="0" y="0" width="58" height="58" filterUnits="userSpaceOnUse" color-interpolation-filters="sRGB">
<feFlood flood-opacity="0" result="BackgroundImageFix"/>
<feColorMatrix in="SourceAlpha" type="matrix" values="0 0 0 0 0 0 0 0 0 0 0 0 0 0 0 0 0 0 127 0"/>
<feOffset dy="4"/>
<feGaussianBlur stdDeviation="2"/>
<feColorMatrix type="matrix" values="0 0 0 0 0 0 0 0 0 0 0 0 0 0 0 0 0 0 0.15 0"/>
<feBlend mode="normal" in2="BackgroundImageFix" result="effect1_dropShadow"/>
<feBlend mode="normal" in="SourceGraphic" in2="effect1_dropShadow" result="shape"/>
</filter>
</defs>
</svg>
