<svg width="40" height="39" viewBox="0 0 40 39" fill="none" xmlns="http://www.w3.org/2000/svg">
<g clip-path="url(#clip0)">
<path d="M39.4514 11.4702C38.9789 11.0775 38.3121 10.9947 37.7533 11.2596L29.203 15.3126L21.1802 6.30582C20.8834 5.97264 20.4527 5.78125 19.9998 5.78125C19.5468 5.78125 19.1162 5.97264 18.8194 6.30582L10.7966 15.3125L2.24626 11.2595C1.68743 10.9947 1.02071 11.0774 0.548054 11.4702C0.0753981 11.8629 -0.113352 12.4911 0.0673512 13.07L6.00485 32.0872C6.20493 32.7281 6.81188 33.1661 7.49977 33.1661H32.4998C33.1876 33.1661 33.7946 32.7281 33.9946 32.0873L39.9321 13.07C40.1129 12.4912 39.9241 11.863 39.4514 11.4702ZM31.3416 30.1234H8.65782L4.09915 15.522L10.5071 18.5596C11.1434 18.8611 11.9079 18.7088 12.3714 18.1885L19.9998 9.62464L27.6282 18.1885C28.0916 18.7089 28.8564 18.861 29.4924 18.5596L35.9004 15.522L31.3416 30.1234Z" fill="#FFC700"/>
</g>
<defs>
<clipPath id="clip0">
<rect width="40" height="38.9474" fill="white"/>
</clipPath>
</defs>
</svg>
