<svg width="18" height="18" viewBox="0 0 18 18" fill="none" xmlns="http://www.w3.org/2000/svg">
<path d="M13.5389 0.00812109C13.5034 0.00295313 13.4665 0 13.4296 0H4.56989C4.53297 0 4.49606 0.00295313 4.45988 0.00812109C3.23504 0.192691 2.33061 1.26471 2.35497 2.48811V17.2543C2.35497 17.5312 2.51001 17.7852 2.7566 17.9114C3.00245 18.0391 3.29927 18.017 3.52445 17.8538L8.99532 13.9223L14.4751 17.8612C14.6035 17.9535 14.7541 18 14.9062 18C15.0214 18 15.1366 17.9734 15.2429 17.9188C15.4895 17.7925 15.6445 17.5386 15.6445 17.2617V8.77925C15.6445 8.76818 15.6445 8.75784 15.6445 8.74677V2.51321C15.6741 1.26988 14.7689 0.192691 13.5389 0.00812109ZM14.1679 15.822L10.2601 13.0127L14.1679 10.2035V15.822ZM14.1679 2.4955V8.38501L3.83157 15.8146V2.47335C3.82197 1.99048 4.16306 1.57039 4.63264 1.47663H13.3669C13.8379 1.57039 14.179 1.99343 14.1679 2.4955Z" fill="#222222"/>
</svg>
