<svg width="202" height="202" viewBox="0 0 202 202" fill="none" xmlns="http://www.w3.org/2000/svg">
<path d="M101 201.176C156.781 201.176 202 198.536 202 195.28C202 192.023 156.781 189.383 101 189.383C45.2192 189.383 0 192.023 0 195.28C0 198.536 45.2192 201.176 101 201.176Z" fill="white"/>
<path d="M45.439 40.149C59.539 37.7414 69.6013 27.7779 67.9137 17.8948C66.2262 8.01176 53.4278 1.95173 39.3278 4.35936C25.2278 6.76698 15.1655 16.7305 16.8531 26.6136C18.5407 36.4966 31.339 42.5567 45.439 40.149Z" fill="#407BFF"/>
<path opacity="0.3" d="M45.439 40.149C59.539 37.7414 69.6013 27.7779 67.9137 17.8948C66.2262 8.01176 53.4278 1.95173 39.3278 4.35936C25.2278 6.76698 15.1655 16.7305 16.8531 26.6136C18.5407 36.4966 31.339 42.5567 45.439 40.149Z" fill="white"/>
<path d="M88.4974 22.811C90.0601 26.0355 87.5597 30.432 82.9549 32.6354C78.35 34.8389 73.3753 34.0002 71.8333 30.7758C70.2914 27.5513 72.7762 23.1496 77.3759 20.9513C81.9755 18.7531 86.9346 19.6074 88.4974 22.811Z" fill="#407BFF"/>
<path opacity="0.5" d="M88.4974 22.811C90.0601 26.0355 87.5597 30.432 82.9549 32.6354C78.35 34.8389 73.3753 34.0002 71.8333 30.7758C70.2914 27.5513 72.7762 23.1496 77.3759 20.9513C81.9755 18.7531 86.9346 19.6074 88.4974 22.811Z" fill="white"/>
<path d="M96.7342 35.5681C97.1822 37.5007 95.3017 39.5843 92.5408 40.2198C89.78 40.8553 87.1806 39.8031 86.7379 37.8653C86.2951 35.9275 88.1704 33.8491 90.9052 33.2135C93.64 32.578 96.3123 33.6303 96.7342 35.5681Z" fill="#407BFF"/>
<path opacity="0.6" d="M96.7342 35.5681C97.1822 37.5007 95.3017 39.5843 92.5408 40.2198C89.78 40.8553 87.1806 39.8031 86.7379 37.8653C86.2951 35.9275 88.1704 33.8491 90.9052 33.2135C93.64 32.578 96.3123 33.6303 96.7342 35.5681Z" fill="white"/>
<path d="M37.492 37.2607C37.169 37.2607 36.846 37.2607 36.5283 37.2138C35.5993 37.1874 34.7024 36.8684 33.9654 36.3022C33.5388 35.9251 33.2523 35.4147 33.1528 34.8541C32.5641 34.8541 31.9755 34.8124 31.3817 34.7811C30.0794 34.703 28.7302 34.5571 27.7821 33.682C27.4979 33.413 27.2696 33.0903 27.1105 32.7328C26.9514 32.3752 26.8645 31.9896 26.8549 31.5984C26.3251 31.4624 25.8322 31.2099 25.4123 30.8594C24.9923 30.5088 24.6559 30.069 24.4275 29.572C24.264 29.1385 24.1943 28.6752 24.2231 28.2128C24.2518 27.7503 24.3783 27.2993 24.5941 26.8893C24.0234 26.4541 23.5135 25.9442 23.0783 25.3734C22.1554 24.13 21.675 22.6135 21.7135 21.0655C21.4529 20.9439 21.2442 20.7333 21.1249 20.4716C20.9165 19.9507 21.1822 19.3673 21.875 18.7995C22.0156 18.6797 22.1667 18.5599 22.3125 18.4453C22.7269 17.5435 23.3294 16.7409 24.0796 16.0912C24.8298 15.4416 25.7104 14.9601 26.6622 14.6791C28.2249 14.2311 29.8554 14.3561 31.439 14.4811H31.5171C32.6723 14.2659 33.8396 14.1215 35.0124 14.0488C35.6693 13.8963 36.3459 13.8471 37.0179 13.9029C37.6953 13.5917 38.2752 13.1019 38.6953 12.486C38.9068 12.154 39.0915 11.8056 39.2475 11.4442C39.4089 11.0572 39.6023 10.6843 39.8257 10.3294C40.7946 8.87609 42.6751 8.04784 45.4255 7.86552C48.6864 7.65715 51.3275 8.21974 53.2757 9.53765C54.0119 10.03 54.6409 10.6661 55.1249 11.4077C56.1011 11.4629 57.0668 11.6378 58.0004 11.9286C59.3183 12.3089 62.3865 13.4653 62.3708 15.9814C62.312 16.7804 62.0715 17.5554 61.6676 18.2473L60.5789 20.4873C60.6346 20.7719 60.6574 21.0621 60.6466 21.352C60.8545 21.4372 61.0564 21.5364 61.2509 21.6489C62.1364 22.1698 63.0532 23.1022 62.9803 24.2535C62.9334 25.0036 62.4594 25.7277 61.5999 26.4517C60.5126 27.3318 59.278 28.0126 57.9535 28.4625C57.5346 29.2689 57.0466 30.0376 56.4949 30.7597C55.427 32.1557 53.6455 33.9581 51.2233 34.6092C49.6914 35.0347 48.0562 34.8769 46.634 34.1665C46.1704 34.4738 45.7068 34.7447 45.2848 34.9739C42.4719 36.4949 39.8726 37.2607 37.492 37.2607ZM33.6164 34.8541C33.713 35.2796 33.9407 35.664 34.2675 35.9532C34.9314 36.4571 35.7368 36.7395 36.57 36.7606C39.112 36.9898 41.9562 36.2397 45.0296 34.578C45.3838 34.3852 45.7693 34.1665 46.1548 33.9164C45.7289 33.641 45.3477 33.3019 45.0244 32.9111C44.8462 32.7103 44.7162 32.4716 44.6441 32.213C43.9617 32.3172 43.2741 32.3954 42.5865 32.4527C41.515 32.9449 40.3837 33.2952 39.2214 33.4945C38.6781 33.8418 38.0937 34.12 37.4816 34.3227C36.2294 34.7034 34.9248 34.8828 33.6164 34.8541ZM34.429 33.2497C34.141 33.3849 33.9011 33.6048 33.7414 33.88C33.6535 34.0408 33.6003 34.2182 33.5851 34.4009C34.8565 34.4239 36.1237 34.2481 37.3409 33.88C37.5545 33.807 37.7733 33.7237 37.9973 33.6247C36.7949 33.7171 35.5858 33.59 34.429 33.2497ZM27.3185 31.739C27.3677 32.3535 27.6445 32.9275 28.0947 33.3486C28.9282 34.1196 30.1783 34.2498 31.4077 34.3227C31.9859 34.354 32.5589 34.3852 33.1267 34.3957C33.142 34.1379 33.215 33.8869 33.3403 33.6612C33.4669 33.4236 33.6449 33.2172 33.8612 33.0569C33.6581 32.9788 33.4601 32.8954 33.2674 32.8017V32.8694C33.2166 33.0377 33.1241 33.1905 32.9984 33.3135C32.8727 33.4364 32.7179 33.5256 32.5485 33.5726C32.3172 33.6476 32.0713 33.6663 31.8312 33.6274C31.5912 33.5884 31.3639 33.4929 31.1681 33.3486C30.6763 32.9076 30.3447 32.3158 30.2252 31.6661C29.6098 31.8249 28.9746 31.8933 28.3395 31.8692C27.9961 31.8553 27.6545 31.8117 27.3185 31.739ZM47.0247 33.8747C48.2968 34.44 49.726 34.5449 51.067 34.1717C53.3642 33.557 55.0676 31.8276 56.0938 30.4888C56.5315 29.9148 56.9283 29.3108 57.2815 28.6812C56.6772 28.8688 56.0626 29.0302 55.4375 29.1657C54.5609 29.8972 53.5239 30.4113 52.411 30.6659C51.4222 30.9328 50.4161 31.1312 49.4001 31.2598C49.2356 31.5556 49.0529 31.8409 48.8531 32.1141C48.3371 32.7909 47.7205 33.3846 47.0247 33.8747ZM45.0973 32.1349C45.1565 32.3157 45.2522 32.4824 45.3786 32.6246C45.7139 33.0288 46.1177 33.3709 46.5715 33.6351C47.3008 33.1443 47.9463 32.5392 48.4833 31.8432C48.6083 31.6765 48.7229 31.5046 48.8323 31.3223L47.8477 31.416C46.9525 31.7317 46.0325 31.9722 45.0973 32.1349ZM30.6784 31.5358C30.7759 32.0928 31.052 32.603 31.465 32.9892C31.6024 33.0864 31.7603 33.1506 31.9266 33.1768C32.0928 33.203 32.2629 33.1905 32.4235 33.1403C32.5199 33.1132 32.6083 33.063 32.681 32.994C32.7536 32.925 32.8083 32.8393 32.8402 32.7444C32.8561 32.6917 32.8666 32.6376 32.8715 32.5829C32.399 32.3268 31.9539 32.0231 31.5431 31.6765C31.4129 31.5671 31.2879 31.4525 31.1681 31.3379C30.991 31.4108 30.8243 31.4733 30.6784 31.5358ZM35.3041 32.9736C36.5634 33.2194 37.8564 33.2388 39.1224 33.0309C39.3029 32.91 39.4768 32.7796 39.6434 32.6402H39.4819C38.3463 32.6975 37.1742 32.7548 36.0438 32.8642C35.7883 32.885 35.5343 32.9215 35.2833 32.9736H35.3041ZM40.357 32.6037L40.1226 32.8277C40.4299 32.7496 40.7425 32.6662 41.0446 32.5673L40.357 32.6037ZM33.3403 32.3016C33.6982 32.4789 34.0691 32.6287 34.4498 32.7496C34.9519 32.5627 35.4782 32.4487 36.0126 32.411C37.1482 32.3016 38.3307 32.2443 39.4715 32.1922L40.1747 32.1557C40.365 31.9452 40.5392 31.7206 40.6956 31.4838C38.4942 31.4028 36.2898 31.4602 34.0956 31.6557C33.9726 31.65 33.8496 31.6693 33.7342 31.7123C33.6187 31.7552 33.5131 31.821 33.4236 31.9057C33.3531 32.0256 33.3171 32.1625 33.3195 32.3016H33.3403ZM41.2321 31.4942C41.0983 31.7124 40.9522 31.9228 40.7946 32.1245C41.3572 32.0932 41.9197 32.0568 42.4771 32.0047C42.8001 31.8588 43.1074 31.7025 43.4096 31.5306C42.7428 31.5306 42.0812 31.5306 41.4197 31.4994L41.2321 31.4942ZM31.5952 31.1139L31.8349 31.3223C32.1594 31.6009 32.5081 31.8501 32.8767 32.0672C32.8924 31.918 32.9443 31.775 33.0277 31.6504C33.1494 31.5056 33.3019 31.3898 33.474 31.3114C33.6461 31.233 33.8336 31.194 34.0227 31.1973C36.3229 30.9987 38.6333 30.943 40.9404 31.0306C41.0497 30.8255 41.1404 30.6111 41.2113 30.3898C40.7245 30.5431 40.2206 30.6358 39.7111 30.6659C37.3602 30.8764 34.9911 30.743 32.6787 30.27C32.3438 30.5923 31.9733 30.8754 31.5744 31.1139H31.5952ZM44.2795 31.5358L44.2014 31.5879L43.7221 31.8796C44.0399 31.8432 44.3524 31.7963 44.665 31.7442C44.6823 31.6725 44.7067 31.6027 44.7379 31.5358H44.2795ZM45.3213 31.5358C45.2828 31.5728 45.2495 31.6149 45.2223 31.6609L45.8891 31.5254L45.3213 31.5358ZM27.355 31.2754C27.6969 31.3559 28.0458 31.403 28.3968 31.416C28.9914 31.4398 29.5864 31.3767 30.1627 31.2285C30.0533 30.7441 29.9439 30.1867 29.8502 29.6293L29.7564 29.4678C29.2355 29.2907 28.751 29.1032 28.2562 28.8948C27.7487 29.5598 27.4382 30.354 27.3602 31.1868C27.3602 31.1868 27.3081 31.2389 27.3081 31.2702L27.355 31.2754ZM24.9484 27.1602C24.7749 27.5051 24.6747 27.8821 24.6541 28.2676C24.6335 28.6531 24.6929 29.0387 24.8286 29.4001C25.0215 29.8205 25.3036 30.1939 25.6553 30.4943C26.0071 30.7948 26.4199 31.0151 26.8653 31.1399C26.942 30.2603 27.2592 29.4187 27.7821 28.7073C27.5529 28.6083 27.3342 28.5041 27.1102 28.3947C26.356 28.045 25.6328 27.632 24.9484 27.1602ZM30.4388 30.5461C30.4753 30.7284 30.5169 30.9055 30.5534 31.067L30.8034 30.968C30.6784 30.8482 30.5534 30.7076 30.4388 30.5461ZM41.4457 31.0306C42.3313 31.0306 43.2272 31.067 44.1232 31.067C45.043 30.4528 45.9044 29.7553 46.6965 28.9834C46.2952 28.9096 45.8986 28.8122 45.5088 28.6917C44.6829 28.4441 43.8982 28.0755 43.1804 27.5977C43.1715 28.0661 43.0589 28.5267 42.8509 28.9464C42.6428 29.3661 42.3444 29.7345 41.977 30.0252L41.7583 30.171C41.6824 30.4788 41.5777 30.7788 41.4457 31.067V31.0306ZM47.2695 29.0667C46.545 29.7953 45.7628 30.4642 44.9306 31.067H45.0869C45.3969 30.8271 45.7508 30.6502 46.1287 30.5461C47.273 30.1948 48.4388 29.9182 49.6189 29.7179C49.7491 29.4001 49.8689 29.0667 49.9887 28.7229C49.1309 29.0842 48.1913 29.2066 47.2695 29.0771V29.0667ZM49.4001 30.2075C48.3348 30.3952 47.2822 30.6492 46.2485 30.968L46.035 31.0462C46.608 31.0462 47.1758 30.9993 47.7488 30.9576C48.315 30.7501 48.8652 30.5012 49.3949 30.2127L49.4001 30.2075ZM30.3867 29.6866C30.6341 30.0776 30.9184 30.4439 31.2358 30.7805C31.5548 30.603 31.855 30.3935 32.1318 30.1554C31.5431 30.0252 30.9597 29.8585 30.3867 29.6814V29.6866ZM49.7543 30.5461L49.6501 30.7649C50.5387 30.6464 51.419 30.4724 52.2859 30.244C53.0144 30.0573 53.715 29.7753 54.3696 29.4053C53.5257 29.5616 52.6818 29.697 51.8379 29.8325L50.593 30.0304L50.3169 30.2179C50.1346 30.3221 49.9522 30.4367 49.7543 30.5461ZM33.059 29.8793C35.2362 30.2978 37.4612 30.41 39.6694 30.2127C40.248 30.1882 40.8177 30.0612 41.352 29.8377C41.4602 29.1047 41.4795 28.3614 41.4093 27.6238C41.4093 27.3737 41.4092 27.1029 41.3728 26.8737C40.9814 27.2331 40.5368 27.5301 40.0549 27.754C39.2886 28.0804 38.4623 28.2421 37.6295 28.2287C36.7968 28.2152 35.9761 28.0269 35.2208 27.6759C35.0331 27.65 34.847 27.6134 34.6634 27.5665L34.4811 27.8842C34.0803 28.5985 33.6035 29.2674 33.059 29.8793ZM30.194 29.1396C30.9624 29.3893 31.743 29.5997 32.5329 29.7699C33.1404 29.1333 33.6655 28.4228 34.0956 27.655L34.2206 27.4363C33.7001 27.2526 33.2088 26.9947 32.7621 26.6705C31.8194 26.8098 30.9007 27.0798 30.0325 27.4727C30.0533 28.0509 30.1158 28.6083 30.194 29.1396ZM50.5096 28.5614C50.4836 28.6239 50.4627 28.6917 50.4367 28.7594C50.3325 29.0563 50.2335 29.3428 50.1241 29.6241L50.4106 29.5772C50.7626 29.3172 51.0826 29.0164 51.3639 28.6812L50.5096 28.5614ZM41.826 26.4205V26.582C41.826 26.9205 41.826 27.2591 41.8624 27.6238C41.9145 28.26 41.9145 28.8993 41.8624 29.5355C42.1585 29.2416 42.3901 28.8893 42.5426 28.501C42.6951 28.1126 42.765 27.6968 42.748 27.28C42.426 27.0125 42.1421 26.7023 41.9041 26.358L41.826 26.4205ZM51.9057 28.7333C51.7246 28.9844 51.5205 29.2181 51.2962 29.4314L51.7702 29.3584C52.9475 29.1709 54.0987 28.9886 55.2135 28.749C55.2447 28.749 55.2708 28.6917 55.302 28.6604C54.7472 28.7628 54.1837 28.8117 53.6195 28.8063C53.0465 28.8063 52.4735 28.7854 51.9057 28.7333ZM28.5166 28.525L29.4178 28.874C29.2928 28.5927 29.1834 28.3062 29.0844 28.0197C28.8806 28.171 28.6906 28.3401 28.5166 28.525ZM47.6863 28.6552C48.332 28.6983 48.9796 28.606 49.5876 28.3843L49.0667 28.2697C48.775 28.202 48.4989 28.1239 48.228 28.0457C48.0578 28.2506 47.8773 28.4538 47.6863 28.6552ZM43.1804 27.0404C43.9161 27.5906 44.7431 28.0067 45.6234 28.2697C46.0993 28.4207 46.5873 28.5305 47.082 28.5979C47.3112 28.3687 47.53 28.1291 47.7488 27.8894C46.4383 27.4811 45.2438 26.7669 44.2639 25.8058C43.8029 25.3289 43.415 24.7865 43.1126 24.1962C43.0098 24.4776 42.8898 24.7525 42.7532 25.0192C42.9094 25.4567 43.0297 25.9061 43.1126 26.3632C43.1519 26.5869 43.1746 26.8133 43.1804 27.0404ZM56.0417 28.4625L55.9636 28.5666C56.5227 28.4312 57.0645 28.2749 57.5888 28.0978C58.2458 26.8073 58.7242 25.4333 59.0109 24.0138C58.8053 24.1563 58.5874 24.28 58.3598 24.3837C58.4835 24.8526 58.5067 25.3425 58.4277 25.821C58.3487 26.2995 58.1693 26.7559 57.9014 27.1602C57.4387 27.784 56.7862 28.241 56.0417 28.4625ZM52.1817 28.2853C52.6558 28.3218 53.135 28.3426 53.6143 28.3426C54.3336 28.3519 55.0507 28.2607 55.7448 28.0718C55.7865 27.9988 55.8282 27.9259 55.8646 27.8478C56.0745 27.3782 56.1803 26.8688 56.1749 26.3545C56.1695 25.8403 56.053 25.3332 55.8334 24.8681C54.988 24.841 54.1472 24.7329 53.3226 24.5452L52.8746 25.363C52.7339 25.6183 52.5933 25.8839 52.4474 26.134C52.5045 26.3309 52.5394 26.5336 52.5516 26.7382C52.5768 27.2818 52.4487 27.8215 52.1817 28.2958V28.2853ZM25.1619 26.7226C25.8383 27.1942 26.5547 27.6055 27.3029 27.952C27.5581 28.077 27.8238 28.1916 28.0686 28.301C28.318 28.0171 28.6014 27.7652 28.9125 27.5509H28.949C28.6919 26.5746 28.6125 25.56 28.7146 24.5556C27.8758 24.7105 27.0757 25.0291 26.36 25.4932C25.8756 25.8235 25.4672 26.2533 25.1619 26.7539V26.7226ZM50.8743 28.1239L51.6817 28.2228C51.9681 27.7839 52.1118 27.2672 52.0932 26.7434V26.7018C51.7632 27.2454 51.3521 27.7355 50.8743 28.1551V28.1239ZM29.5168 27.7175C29.548 27.8217 29.5845 27.9311 29.621 28.0353C29.621 27.9155 29.621 27.7957 29.621 27.6707L29.5168 27.7175ZM48.5979 27.6342L49.2073 27.7957C49.5459 27.8738 49.8845 27.9467 50.2492 28.0093C50.5964 27.0091 50.9333 26.0003 51.2597 24.9827C51.1451 24.8681 51.0305 24.7588 50.9159 24.665C50.1502 25.7172 49.3949 26.7226 48.5822 27.6655L48.5979 27.6342ZM59.5683 23.5554C59.3181 25.0408 58.866 26.485 58.2244 27.8478C59.3396 27.4254 60.3792 26.8256 61.303 26.0715C62.0791 25.4307 62.475 24.8161 62.5115 24.1962C62.574 23.2533 61.777 22.4511 61.0165 22.0135C60.8749 21.9323 60.7288 21.8593 60.5789 21.7948C60.5789 21.8625 60.5476 21.9354 60.5268 22.0031C60.3534 22.6103 60.0164 23.1581 59.5527 23.5867L59.5683 23.5554ZM56.3386 24.8369C56.7332 25.7879 56.7499 26.8536 56.3855 27.8165C56.8461 27.6101 57.2448 27.2868 57.542 26.8789C57.7666 26.5378 57.9187 26.1541 57.9886 25.7517C58.0585 25.3493 58.0448 24.9368 57.9483 24.54C57.7555 24.6025 57.5576 24.6598 57.3596 24.7067C57.0192 24.7894 56.6725 24.8435 56.323 24.8681L56.3386 24.8369ZM36.6221 27.6134C37.71 27.8695 38.8519 27.7615 39.8726 27.306C40.4434 27.0398 40.9579 26.6667 41.3884 26.2069C41.3974 25.9433 41.4235 25.6805 41.4666 25.4203C41.4405 25.337 41.4092 25.2536 41.3884 25.1703C41.3567 25.0697 41.3324 24.967 41.3155 24.8629C40.8415 25.0244 40.3622 25.1755 39.883 25.3109C39.2225 26.3658 38.2061 27.1493 37.0179 27.5196C36.8834 27.5693 36.7459 27.6111 36.6064 27.6446L36.6221 27.6134ZM51.5827 25.3839C51.3535 26.1027 51.1191 26.8112 50.8743 27.5196C51.3002 27.0857 51.6663 26.597 51.963 26.0662C51.861 25.8323 51.7279 25.6133 51.5671 25.4151L51.5827 25.3839ZM43.5815 23.9982C43.8514 24.5368 44.2028 25.0305 44.6233 25.462C45.6031 26.4132 46.8016 27.109 48.1134 27.4883C48.9705 26.49 49.7739 25.4467 50.52 24.3629C50.3638 24.2587 50.2231 24.1649 50.0981 24.092C49.3874 23.9113 48.7091 23.6213 48.0874 23.2325C47.3821 23.0252 46.6546 22.9028 45.9204 22.8678L45.6599 23.0033C44.9619 23.4044 44.2691 23.7326 43.5658 24.0295L43.5815 23.9982ZM29.2094 24.441C29.1032 25.3838 29.1649 26.3379 29.3918 27.2591L29.5637 27.1654C29.5122 26.2359 29.5383 25.3037 29.6418 24.3785C29.4803 24.4254 29.3397 24.4462 29.1938 24.4723L29.2094 24.441ZM35.3302 27.1966C35.8536 27.261 36.3845 27.2221 36.8929 27.082C37.7948 26.8115 38.5892 26.265 39.1641 25.5193C37.9637 25.835 36.7463 26.0819 35.5177 26.259H35.325L34.9447 27.0039L35.3302 27.1966ZM30.121 24.3212C30.017 25.1852 29.9839 26.0563 30.0221 26.9258C30.7555 26.6097 31.5228 26.3789 32.3089 26.2382L32.0953 26.0298C31.5819 25.523 31.1529 24.9374 30.8243 24.2951L30.121 24.3212ZM33.9914 26.4517C34.179 26.5767 34.3665 26.6966 34.554 26.8007C34.6374 26.6497 34.7155 26.4986 34.7936 26.3475L34.5332 26.384L33.9914 26.4517ZM42.2323 25.9308C42.3816 26.1631 42.5563 26.378 42.7532 26.5715C42.7532 26.5247 42.7532 26.4778 42.7532 26.4309C42.6974 26.1322 42.6261 25.8366 42.5396 25.5453L42.2323 25.9308ZM22.1719 21.2426C22.1741 22.6253 22.6196 23.9709 23.4429 25.0817C23.8382 25.604 24.3026 26.0701 24.8234 26.4674C25.1585 25.9273 25.6019 25.4626 26.1256 25.1026C26.9375 24.5759 27.8488 24.2213 28.8031 24.0607C28.8724 23.6473 28.9734 23.2398 29.1053 22.8418C26.7328 22.5801 24.3979 22.0489 22.1459 21.2582L22.1719 21.2426ZM31.6734 24.217C32.1799 24.9199 32.7832 25.5477 33.4653 26.0819C33.7987 26.0298 34.1373 25.9881 34.4759 25.9464L35.0385 25.8683C35.1895 25.5662 35.3354 25.264 35.4812 24.9671L35.6323 24.6598C35.0396 24.5465 34.4771 24.3105 33.981 23.967C33.2085 24.0976 32.4294 24.1863 31.6473 24.2326L31.6734 24.217ZM36.122 24.7015C36.0438 24.8525 35.9709 25.0088 35.8928 25.1651C35.8146 25.3213 35.6896 25.5818 35.5854 25.7954C36.9426 25.5937 38.2858 25.3066 39.6069 24.9359C40.2436 23.9055 40.7312 22.79 41.055 21.6229L41.2374 21.0082C41.5144 19.9997 41.8501 19.0083 42.2427 18.039C42.1854 17.9296 42.1229 17.8202 42.0552 17.716C41.6975 17.9121 41.3498 18.126 41.0134 18.3567C40.9717 18.4088 40.93 18.4661 40.8831 18.5182C40.8831 19.3743 40.715 20.2221 40.3883 21.0134C39.6225 22.9043 38.0337 24.7015 36.1272 24.7015H36.122ZM51.7494 24.8734C51.9513 25.0892 52.1262 25.3289 52.2703 25.587C52.3484 25.4359 52.4318 25.2901 52.5151 25.139C52.5985 24.988 52.7495 24.7015 52.8746 24.4827C52.687 24.4827 52.4995 24.4827 52.312 24.4827H51.9161L51.7494 24.8734ZM41.9406 25.3943C41.9513 25.4285 41.9652 25.4617 41.9823 25.4932C42.0916 25.3318 42.1958 25.1599 42.2948 24.9723C42.2531 24.8473 42.2062 24.7275 42.1646 24.6025C42.0548 24.86 41.9744 25.1291 41.925 25.4047L41.9406 25.3943ZM41.4197 21.9823C41.1315 22.9436 40.7402 23.871 40.2528 24.7483C40.5914 24.6442 40.9248 24.5348 41.2582 24.4202C41.2256 23.8587 41.3163 23.2968 41.5239 22.7741C41.4411 22.5219 41.3989 22.2581 41.3988 21.9927L41.4197 21.9823ZM51.2337 24.3681L51.3952 24.5087L51.4316 24.3941L51.2337 24.3681ZM55.9219 24.0086C56.0053 24.1382 56.0818 24.2721 56.1511 24.4097C56.5184 24.4038 56.8845 24.3654 57.245 24.2951C57.4399 24.2538 57.6314 24.198 57.818 24.1285C57.7142 23.7855 57.58 23.4526 57.4169 23.1335C56.9653 23.5177 56.4484 23.8177 55.8907 24.0191L55.9219 24.0086ZM54.7707 24.3264C55.0539 24.3672 55.3391 24.3933 55.625 24.4045C55.5781 24.3212 55.526 24.2378 55.4739 24.1597C55.2325 24.232 54.9873 24.2912 54.7394 24.3368L54.7707 24.3264ZM41.7895 23.5711C41.7427 23.7989 41.7217 24.0313 41.727 24.2639L41.8572 24.2118C41.8885 24.1493 41.9197 24.0868 41.9562 24.0243L41.7895 23.5711ZM37.2524 22.5292C36.9346 23.0814 36.6429 23.6492 36.3564 24.2222C37.9504 24.0816 39.2891 22.4928 39.9611 20.8311C40.1877 20.2723 40.3366 19.6852 40.4039 19.086C39.7716 19.872 39.0535 20.5848 38.2629 21.2113C38.2317 21.2791 38.2004 21.3416 38.164 21.4041C37.9238 21.843 37.6041 22.2334 37.2211 22.5553L37.2524 22.5292ZM34.6478 23.8159C35.002 24.0166 35.3907 24.1492 35.7938 24.2066H35.8615C36.0386 23.8419 36.2209 23.4825 36.3824 23.1231C36.1698 23.2462 35.9487 23.3541 35.7209 23.4461C35.3602 23.6071 34.9875 23.7394 34.6061 23.8419L34.6478 23.8159ZM52.0828 23.7742C52.4318 23.8784 52.7756 23.9618 53.0986 24.0347C53.3486 23.6091 53.6381 23.208 53.9633 22.8366L54.0362 22.7532C53.6185 22.4537 53.1738 22.1939 52.7079 21.9771L52.5568 22.2115C52.4005 22.7324 52.2443 23.2533 52.0828 23.7742ZM54.4008 23.0345L54.3019 23.1387C54.0663 23.4143 53.8488 23.7049 53.6507 24.0086C54.1608 23.9804 54.6668 23.9019 55.1614 23.7742C54.9304 23.5071 54.6759 23.2613 54.4008 23.0397V23.0345ZM29.548 22.9095C29.424 23.2643 29.3282 23.6283 29.2615 23.9982C29.4022 23.9982 29.548 23.9565 29.6887 23.9357C29.7408 23.6023 29.8033 23.2742 29.8762 22.9408L29.548 22.9095ZM42.8522 23.6075C42.7293 23.7121 42.6176 23.829 42.5188 23.9565L42.774 23.8576L42.8522 23.6075ZM57.7659 22.7949C57.9611 23.163 58.1215 23.5484 58.2452 23.9461C58.5667 23.7899 58.8662 23.592 59.136 23.3575C59.1828 23.0502 59.2245 22.7376 59.2558 22.4303C59.151 22.4817 59.0383 22.5152 58.9224 22.5292C58.8152 22.5384 58.7075 22.518 58.611 22.4702C58.5146 22.4225 58.4331 22.3492 58.3754 22.2584L58.3129 22.1698L58.4483 21.7479C58.2946 22.0935 58.091 22.4146 57.8441 22.7011L57.7659 22.7949ZM30.3346 23.0033C30.2669 23.295 30.2096 23.5919 30.1627 23.8888L30.6315 23.8472C30.5204 23.5763 30.4197 23.295 30.3294 23.0033H30.3346ZM50.2752 23.7221C50.4836 23.7742 50.6919 23.8211 50.9003 23.8628C49.8593 23.4639 49.006 22.6887 48.5093 21.6906C48.417 21.4823 48.3438 21.2661 48.2905 21.0446C48.0054 21.4069 47.6765 21.7323 47.3112 22.0135C47.5835 22.3439 47.905 22.6302 48.2645 22.8626C48.9247 23.0625 49.562 23.3314 50.1658 23.6648L50.2752 23.7221ZM30.9076 23.0189C31.0438 23.285 31.1933 23.5441 31.3556 23.7951H31.3973C32.0693 23.7534 32.7465 23.7065 33.4184 23.6075L33.0277 23.321L32.6371 23.0293C32.0849 23.0449 31.5067 23.045 30.9024 23.0189H30.9076ZM51.6192 23.6232H51.6556L51.6921 23.5034C51.6608 23.5502 51.6348 23.5867 51.614 23.6232H51.6192ZM54.7446 22.722C55.0693 22.9941 55.3643 23.2997 55.625 23.6336C56.2029 23.4375 56.7346 23.1255 57.1877 22.7168C57.0058 22.4026 56.8021 22.1015 56.5783 21.8156L56.4897 21.701C55.8436 21.9287 55.2476 22.2789 54.7342 22.7324L54.7446 22.722ZM43.3523 23.5502L43.3835 23.618C43.9044 23.3992 44.3993 23.17 44.8942 22.9251C44.3885 22.9478 43.8911 23.0607 43.4252 23.2585C43.3887 23.3575 43.3679 23.4513 43.3418 23.5502H43.3523ZM42.0031 22.8314C42.076 23.0814 42.1646 23.3523 42.2531 23.5763C42.3506 23.4571 42.4606 23.3488 42.5813 23.2533L42.7115 23.1439C42.5961 22.7717 42.5142 22.3899 42.4667 22.0031C42.2777 22.2603 42.1187 22.5382 41.9927 22.8314H42.0031ZM33.3403 22.972C33.5799 23.1543 33.8195 23.3367 34.0592 23.4929C34.5659 23.3979 35.0616 23.2513 35.5386 23.0554C36.0235 22.8585 36.475 22.5879 36.8773 22.2532L37.0336 21.9823C35.8724 22.5427 34.6158 22.8786 33.3299 22.972H33.3403ZM48.7177 20.779C48.7603 21.0285 48.8337 21.2717 48.9365 21.503C49.4115 22.415 50.2162 23.1117 51.1868 23.4513C51.5098 22.9772 51.8275 22.498 52.1453 22.0187L52.2234 21.7583L51.9578 21.6489C50.9124 21.2316 49.8213 20.9396 48.7073 20.779H48.7177ZM59.7506 22.0187C59.7506 22.2636 59.7142 22.5084 59.6829 22.7532C59.8635 22.4993 59.9976 22.2154 60.0788 21.9146C60.1035 21.8291 60.1226 21.7421 60.1361 21.6541L60.0163 21.6176C59.9421 21.7628 59.8493 21.8976 59.7402 22.0187H59.7506ZM43.5554 20.9092C43.5554 21.0603 43.5815 21.2061 43.5867 21.3572C43.6027 21.8153 43.5765 22.2739 43.5085 22.7272C44.0209 22.555 44.5569 22.4636 45.0973 22.4563C45.33 22.4563 45.5644 22.4563 45.8006 22.4563C46.1028 22.2981 46.3967 22.1242 46.6809 21.9354C46.4794 21.6136 46.3299 21.262 46.2381 20.8936C46.2381 20.8102 46.1964 20.7269 46.1808 20.6487C45.2995 20.6549 44.4207 20.742 43.5554 20.9092ZM42.873 21.4822C42.8948 21.8865 42.9559 22.2878 43.0553 22.6803C43.119 22.2476 43.1434 21.81 43.1283 21.3728C43.1283 21.3259 43.1283 21.2738 43.1283 21.2217C43.0345 21.3051 42.9512 21.3937 42.873 21.4822ZM46.5976 22.524C46.8111 22.524 47.0247 22.5813 47.2383 22.6178C47.1342 22.5147 47.0368 22.4051 46.9466 22.2896L46.5976 22.524ZM30.6784 22.5501C31.1264 22.5744 31.5588 22.5848 31.9755 22.5813C31.5684 22.324 31.1157 22.1472 30.642 22.0604H30.5951C30.5951 22.0604 30.5951 22.1073 30.5951 22.1333C30.5951 22.2636 30.6524 22.3938 30.6836 22.5188C30.6784 22.5084 30.6784 22.5292 30.6784 22.5501ZM30.7514 21.5916C31.4854 21.7579 32.1726 22.0873 32.7621 22.5553C34.4508 22.5257 36.1012 22.0474 37.5441 21.1697C37.6847 20.9613 37.8358 20.7581 37.9921 20.5602C38.1863 19.7732 38.2756 18.964 38.2577 18.1536C38.2649 17.4167 38.3434 16.6823 38.4921 15.9605C37.9855 15.8654 37.4673 15.8478 36.9554 15.9084C36.3945 16.1084 35.8479 16.3469 35.3198 16.6221C34.3064 17.1341 33.387 17.8139 32.6006 18.6328C31.7978 19.4876 31.1728 20.4933 30.7618 21.5916H30.7514ZM29.7095 22.4719H29.97L30.0637 22.149C30.0614 22.116 30.0614 22.083 30.0637 22.05C30.0334 22.0605 30.0051 22.0763 29.9804 22.0969C29.8629 22.1964 29.7746 22.3261 29.7251 22.4719H29.7095ZM52.9475 21.5968C53.4412 21.8323 53.912 22.1131 54.354 22.4355C54.879 21.9612 55.4887 21.5901 56.1511 21.3416C55.6302 20.8206 54.7967 20.1955 53.9789 20.5394C53.5476 20.7893 53.1956 21.1558 52.9631 21.5968H52.9475ZM22.1615 20.7738L22.2813 20.8206C24.5332 21.6221 26.8703 22.1605 29.2459 22.4251C29.3308 22.1757 29.4821 21.9541 29.6835 21.7843C29.7638 21.7263 29.8514 21.6791 29.9439 21.6437C29.9231 21.4909 29.9075 21.3398 29.8971 21.1905C29.8885 20.9416 29.9007 20.6925 29.9335 20.4456C29.9131 19.6235 30.0347 18.8041 30.2929 18.0233C30.7403 16.7954 31.5809 15.7497 32.6839 15.0489C32.3089 15.0489 31.9286 15.002 31.5588 14.976C28.3405 15.5279 25.2936 16.8169 22.6563 18.7422C22.5904 18.8985 22.5279 19.06 22.4688 19.2266C22.3022 19.7275 22.1989 20.2472 22.1615 20.7738ZM56.9637 21.5603C57.1655 21.8199 57.3516 22.0913 57.5211 22.373C57.769 22.0776 57.9662 21.7432 58.1045 21.3832C57.7192 21.4032 57.337 21.4625 56.9637 21.5603ZM58.8234 22.0813C58.8422 22.0863 58.8619 22.0863 58.8807 22.0813C59.0431 22.0486 59.1899 21.9624 59.2974 21.8364V21.4614L59.0214 21.4249L58.8234 22.0813ZM42.4042 21.2738C42.194 21.3685 42.0242 21.5346 41.925 21.7427C41.8794 21.8499 41.8546 21.9648 41.852 22.0813C42.0142 21.8126 42.1989 21.5581 42.4042 21.3207V21.2738ZM46.6496 20.6279C46.6551 20.6741 46.6656 20.7195 46.6809 20.7633C46.7569 21.0753 46.8799 21.3739 47.0455 21.6489C47.3958 21.3743 47.7092 21.0557 47.978 20.7008C47.5352 20.6487 47.0924 20.6175 46.6496 20.6123V20.6279ZM42.4823 18.6224C42.1542 19.4402 41.8989 20.3102 41.6437 21.1697L41.5707 21.4197C41.7707 21.1148 42.0654 20.8842 42.4094 20.7633C42.4094 20.6435 42.4094 20.5289 42.4459 20.4091C42.4923 19.9999 42.5813 19.5966 42.7115 19.2058C42.6594 18.9922 42.5709 18.7943 42.4875 18.6068L42.4823 18.6224ZM48.7333 20.3362C49.8933 20.5031 51.0297 20.8055 52.1192 21.2374L52.338 21.3311L52.4318 21.0186C52.5227 20.7953 52.5391 20.5487 52.4787 20.3154C52.3537 20.0445 51.9578 19.9559 51.5879 19.9038C51.1087 19.8413 50.6138 19.7684 50.1085 19.7111L49.9679 19.7684L49.9418 19.6955C49.6189 19.659 49.2907 19.633 48.9625 19.6121C48.9143 19.8565 48.8374 20.0943 48.7333 20.3206V20.3362ZM54.4634 19.9976C55.3593 19.9976 56.1615 20.6956 56.6199 21.1957C57.143 21.0407 57.6842 20.9549 58.2296 20.9405C58.3667 20.2761 58.3711 19.5911 58.2423 18.9251C58.1136 18.259 57.8543 17.625 57.4794 17.0596C56.8465 16.6186 56.1712 16.2417 55.4635 15.9345L55.2916 15.9032C54.9277 16.5875 54.4362 17.1958 53.8435 17.6952C52.9835 18.3878 52.0226 18.9447 50.9941 19.3465L51.6504 19.435C51.8991 19.4348 52.1436 19.4984 52.3607 19.6197C52.5778 19.741 52.7601 19.9159 52.8902 20.1278C52.9852 20.3573 53.0035 20.6112 52.9423 20.8519C53.1675 20.5398 53.4687 20.2906 53.8174 20.1278C54.0269 20.0327 54.2541 19.983 54.4842 19.982L54.4634 19.9976ZM30.3815 20.4664C30.3815 20.6956 30.3815 20.9248 30.4232 21.1644C30.8455 20.1249 31.4546 19.1716 32.2203 18.3515C33.0415 17.503 33.9994 16.7987 35.0541 16.2679C34.0832 16.4833 33.1634 16.8848 32.3453 17.4503C31.3309 18.1586 30.6336 19.2354 30.4023 20.4508L30.3815 20.4664ZM59.6933 19.4663C59.6933 19.5548 59.6933 19.6434 59.6933 19.7267C59.7298 20.1695 59.7402 20.6071 59.7402 21.0446L60.0319 20.4404C59.9684 20.0983 59.8617 19.7657 59.7142 19.4506L59.6933 19.4663ZM59.1724 20.9873H59.3131C59.3131 20.8415 59.3131 20.6904 59.3131 20.5446L59.1724 20.9873ZM58.365 17.7629C58.7946 18.7584 58.9144 19.8602 58.7088 20.9248L59.2297 19.3621C59.1999 19.0823 59.1476 18.8053 59.0734 18.5338C59.0005 18.4401 58.9172 18.3463 58.8338 18.2525C58.7505 18.1588 58.5369 17.8983 58.3754 17.7473L58.365 17.7629ZM42.9512 20.0862C42.9512 20.2112 42.9095 20.3362 42.8939 20.4664V20.6071L43.0397 20.5706C43.0227 20.4026 42.9966 20.2357 42.9616 20.0705L42.9512 20.0862ZM21.9635 19.3048C21.6874 19.5705 21.3853 19.9559 21.526 20.2997C21.5673 20.3985 21.636 20.4835 21.7239 20.5446C21.765 20.1247 21.8452 19.7097 21.9635 19.3048ZM46.1391 19.7267C45.7296 19.8049 45.3272 19.9164 44.9358 20.0601C44.7587 20.1278 44.5816 20.2112 44.4149 20.2997C44.9884 20.2216 45.5658 20.1747 46.1444 20.1591C46.1322 20.0153 46.1305 19.8708 46.1391 19.7267ZM46.5871 20.1539C47.108 20.1539 47.6602 20.1903 48.1915 20.2476C48.1882 20.0196 48.2004 19.7916 48.228 19.5652C47.6848 19.5555 47.1417 19.5851 46.6028 19.6538C46.5872 19.82 46.5819 19.987 46.5871 20.1539ZM43.1804 19.1954C43.2827 19.5022 43.3645 19.8154 43.4252 20.133L43.5502 19.9663C43.7655 19.6487 43.908 19.2874 43.9674 18.9083C44.0269 18.5292 44.0018 18.1416 43.894 17.7733C43.5997 18.2169 43.3601 18.6944 43.1804 19.1954ZM59.8496 18.8308C60.0499 19.141 60.2142 19.473 60.3393 19.8205L61.204 18.0494C61.5707 17.4104 61.7946 16.6995 61.8603 15.9657C61.8603 13.7623 59.0318 12.7048 57.8128 12.3506C57.0061 12.1005 56.1748 11.938 55.3333 11.8661C55.6275 12.4412 55.7895 13.0748 55.8073 13.7206C55.8188 14.0712 55.782 14.4218 55.6979 14.7624C55.974 14.9168 56.2386 15.0909 56.4897 15.2833L57.4534 15.3458C58.4015 15.4084 59.709 15.6167 60.1049 16.6533C60.2738 17.2644 60.2221 17.9154 59.959 18.4922L59.8496 18.8308ZM38.9089 16.1012C38.7866 16.7748 38.729 17.4586 38.737 18.1432C38.731 18.6968 38.6962 19.2497 38.6328 19.7997C39.1637 19.2227 39.7499 18.6993 40.3831 18.2369C40.3697 17.8843 40.281 17.5387 40.1229 17.2233C39.9647 16.9079 39.7408 16.6301 39.4662 16.4085C39.2954 16.2811 39.1078 16.1777 38.9089 16.1012ZM44.2222 17.3201C44.5058 18.0704 44.5058 18.8983 44.2222 19.6486C44.9872 19.3607 45.7218 18.9978 46.4152 18.5651C46.6607 17.9831 47.0142 17.4528 47.4571 17.0023C47.0853 16.6822 46.6717 16.4141 46.2277 16.2053C45.8526 16.2887 45.462 16.3929 45.0713 16.5075C44.7628 16.7505 44.4785 17.0226 44.2222 17.3201ZM46.1912 19.2162L46.1027 19.2683H46.186L46.1912 19.2162ZM48.9833 19.1381C49.3376 19.1381 49.6866 19.1954 50.0252 19.2319C51.2966 18.8022 52.4857 18.1592 53.5413 17.3305C54.0477 16.8995 54.4744 16.3829 54.8019 15.8042C53.1597 15.4614 51.4593 15.5168 49.8428 15.9657C49.7126 16.2627 49.5876 16.57 49.4626 16.8773C49.2594 17.3982 49.0563 17.9192 48.9052 18.4401C48.9484 18.6229 48.9728 18.8097 48.9781 18.9974L48.9833 19.1381ZM46.7695 18.8516C46.7278 18.961 46.6965 19.0704 46.6653 19.1798C47.1995 19.1191 47.7373 19.0947 48.2749 19.1068C48.3166 18.8828 48.3739 18.6536 48.4364 18.4244C48.3543 18.1455 48.2276 17.8816 48.0613 17.6431C47.7 18.1068 47.2716 18.5141 46.7903 18.8516H46.7695ZM33.533 15.0489C32.2233 15.6852 31.2126 16.8061 30.7149 18.1744C30.652 18.3446 30.5998 18.5186 30.5586 18.6953C30.9501 18.0516 31.4674 17.4935 32.0797 17.0544C33.4039 16.1682 34.9305 15.6307 36.5179 15.4917L36.8096 15.4604C37.4585 15.2359 38.1238 15.0618 38.7995 14.9395L38.8307 14.8822C38.5714 14.7625 38.3032 14.6633 38.0285 14.5853C37.8722 14.5384 37.7108 14.502 37.5493 14.4707H36.9294C35.8508 14.8748 34.7055 15.071 33.5539 15.0489H33.533ZM42.722 18.0442C42.8053 18.2109 42.8834 18.3776 42.9564 18.5651C43.1611 18.0956 43.4199 17.6516 43.7273 17.242C43.6909 17.1586 43.6492 17.0805 43.6075 16.9971L43.1856 17.1743C43.0151 17.4555 42.8603 17.7459 42.722 18.0442ZM59.5006 18.2838C59.5184 18.3091 59.5375 18.3334 59.5579 18.3567C59.7756 17.8805 59.8288 17.3454 59.709 16.8357C59.4068 16.0387 58.2764 15.872 57.4534 15.7938H57.0888L57.245 15.9605C58.0002 16.2357 58.6517 16.7379 59.1099 17.3982C59.2792 17.6746 59.4106 17.9724 59.5006 18.2838ZM39.0235 15.6792C39.4967 15.8464 39.9136 16.143 40.2266 16.5353C40.5397 16.9275 40.7365 17.3998 40.7946 17.8983C41.0342 17.6066 41.279 17.3097 41.5291 17.018C41.0092 16.3346 40.3704 15.7506 39.6434 15.2938C39.4767 15.2938 39.3048 15.3406 39.1224 15.3719C39.0964 15.4396 39.0599 15.5542 39.013 15.6584L39.0235 15.6792ZM29.1834 14.8458C28.368 14.8296 27.5545 14.9278 26.7664 15.1375C25.2774 15.5757 23.9949 16.5331 23.1512 17.8358C25.2036 16.4554 27.4838 15.4484 29.8866 14.8614C29.654 14.8371 29.4195 14.8249 29.1834 14.8249V14.8458ZM47.7852 17.2941C47.6341 17.4575 47.4948 17.6316 47.3685 17.815C47.5211 17.6527 47.6605 17.4786 47.7852 17.2941ZM48.353 17.2628C48.4733 17.4273 48.5796 17.6015 48.6708 17.7837C48.7958 17.4347 48.926 17.0909 49.0667 16.7419L49.2698 16.221C49.0631 16.3189 48.863 16.4303 48.6708 16.5544C48.5882 16.7936 48.4818 17.024 48.353 17.242V17.2628ZM42.4355 17.5233V17.5545L42.4615 17.4972L42.4355 17.5233ZM42.1385 17.0023C42.1646 17.0388 42.1906 17.0753 42.2115 17.1117C42.4407 16.9971 42.6647 16.8877 42.8886 16.7888C42.9928 16.6221 43.097 16.4658 43.2116 16.3147C43.1491 16.2366 43.0814 16.1585 43.0137 16.0855C42.6855 16.3877 42.3938 16.7002 42.1385 17.0023ZM44.0555 16.7992L44.0868 16.7627L44.0555 16.7992ZM40.3778 15.1896C40.9343 15.601 41.4321 16.0865 41.8572 16.6325C42.1229 16.3356 42.3781 16.0491 42.6803 15.773C42.6304 15.7302 42.5783 15.6902 42.524 15.6532C42.2628 15.4517 41.9818 15.2771 41.6853 15.1323C41.2398 15.1321 40.7946 15.1564 40.3518 15.2052L40.3778 15.1896ZM46.9414 15.997C47.2499 16.1801 47.5411 16.3911 47.8113 16.6273C47.968 16.487 48.1333 16.3565 48.3061 16.2366C48.3478 16.0803 48.3843 15.9241 48.4103 15.7678C48.0926 15.8095 47.78 15.8511 47.4675 15.9032L46.9414 15.997ZM43.7794 16.3252L43.8263 16.3981C44.1805 16.2679 44.5243 16.1481 44.8681 16.0439C44.9931 15.9397 45.1234 15.8407 45.2588 15.7469H45.2119C44.9983 15.6792 44.7796 15.6167 44.5608 15.5594C44.2657 15.7917 43.9952 16.0535 43.7534 16.3408L43.7794 16.3252ZM43.3523 15.8042L43.4981 15.9761C43.6584 15.7896 43.8325 15.6155 44.019 15.4552L43.8471 15.4188C43.6561 15.5334 43.4825 15.6584 43.3262 15.7938L43.3523 15.8042ZM48.8792 15.7417C48.8792 15.8042 48.8792 15.8615 48.8792 15.9241C48.9906 15.8622 49.1054 15.8066 49.223 15.7574L49.348 15.7001L48.8792 15.7417ZM45.04 15.2208L45.3474 15.3146C45.6743 15.4155 45.9945 15.5373 46.3058 15.6792C46.6809 15.5959 47.0455 15.5282 47.3945 15.4709C47.7436 15.4136 48.0978 15.3615 48.4364 15.3198C48.4437 15.0711 48.4191 14.8226 48.3634 14.5801C48.3476 14.4968 48.3249 14.4149 48.2957 14.3353C47.1407 14.3189 46.004 14.6256 45.014 15.2208H45.04ZM38.4296 15.4969L38.6119 15.5334C38.6119 15.5021 38.6119 15.4761 38.6119 15.45L38.4296 15.4969ZM42.7115 15.2364L42.7949 15.299L43.0189 15.4761L43.2272 15.299C43.0293 15.2781 42.8574 15.2521 42.6855 15.2364H42.7115ZM48.7854 14.3353C48.8006 14.3831 48.8128 14.4318 48.8219 14.4811C48.8784 14.7395 48.9064 15.0032 48.9052 15.2677L49.7387 15.2C49.8637 14.9395 49.9887 14.6791 50.1241 14.4447C49.6715 14.3833 49.2159 14.3468 48.7593 14.3353H48.7854ZM55.6198 15.2417H55.6719L55.625 15.2104L55.6198 15.2417ZM54.9634 15.2052H55.1353C55.1666 15.1271 55.1926 15.0489 55.2187 14.976C53.9003 14.3249 52.4626 13.9508 50.9941 13.8769L50.8586 14.08C51.3379 14.1634 51.7911 14.2676 52.213 14.3665C53.1371 14.5914 54.0468 14.8715 54.9374 15.2052H54.9634ZM50.6086 14.5176C50.4888 14.726 50.3742 14.9447 50.2648 15.1687C51.2754 15.1166 52.2911 15.1114 53.3017 15.1375C52.8954 15.0229 52.4995 14.9187 52.1192 14.8301C51.5671 14.6999 51.0618 14.5957 50.5825 14.5176H50.6086ZM44.3576 15.0385H44.4514C44.6681 14.878 44.8961 14.7335 45.1338 14.6061C44.9671 14.686 44.7935 14.7694 44.6129 14.8562C44.5243 14.9187 44.4306 14.9864 44.3316 15.0489L44.3576 15.0385ZM41.7895 14.7051C42.4311 14.7305 43.0699 14.8019 43.7013 14.9187C43.9266 14.7572 44.1615 14.6094 44.4045 14.4759C45.458 13.9289 46.6082 13.5927 47.7904 13.4862C47.6552 13.3434 47.4988 13.2222 47.3268 13.1267C46.7574 12.8653 46.1352 12.7387 45.5088 12.7569C43.6388 12.6788 41.3051 12.8923 39.9455 14.179C40.5715 14.2813 41.1822 14.4615 41.7635 14.7155L41.7895 14.7051ZM39.534 14.6739L39.7632 14.8041C39.9819 14.7798 40.2007 14.7589 40.4195 14.7416C40.1486 14.6791 39.8986 14.627 39.5965 14.5853L39.534 14.6739ZM51.3327 13.4653C52.7201 13.5647 54.0761 13.9271 55.3281 14.5332C55.3802 14.2744 55.4047 14.0107 55.401 13.7466C55.3745 13.083 55.1868 12.4357 54.854 11.8609C54.1221 11.85 53.3978 12.0105 52.7391 12.3297C52.1917 12.606 51.7075 12.9926 51.317 13.4653H51.3327ZM37.7889 13.9863C38.3303 13.9931 38.8711 14.0279 39.4089 14.0904C40.8414 12.4704 43.4669 12.2047 45.5505 12.2881C46.2463 12.2747 46.9359 12.4208 47.5665 12.7152C47.88 12.8893 48.1505 13.1314 48.3582 13.4237C48.7593 13.3976 49.1292 13.3872 49.4678 13.382C49.9227 13.382 50.3603 13.3924 50.7805 13.4133C51.2439 12.7848 51.8442 12.27 52.536 11.9078C53.1689 11.593 53.8612 11.4155 54.5675 11.3869C54.1401 10.7992 53.6108 10.2929 53.0048 9.89187C51.1399 8.62605 48.5979 8.08951 45.4359 8.29788C42.8313 8.46457 41.0759 9.2251 40.1903 10.5586C39.9825 10.8919 39.7997 11.2401 39.6434 11.6005C39.4819 11.9875 39.2885 12.3603 39.0651 12.7152C38.7289 13.2298 38.2867 13.6667 37.7681 13.9967L37.7889 13.9863ZM48.7281 13.8612C49.2846 13.8725 49.8398 13.9212 50.3898 14.0071C50.4211 13.955 50.4523 13.9029 50.4888 13.8508C50.1606 13.8508 49.8272 13.8508 49.4886 13.8508C49.2178 13.8769 48.9625 13.8769 48.6916 13.8769L48.7281 13.8612Z" fill="white"/>
<path d="M21.0523 107.062L22.4901 109.849C22.7991 110.453 23.171 111.022 23.5996 111.548L16.5048 193.592H18.2759L32.3718 115.173H54.4012L46.525 193.592H48.2961L64.1892 111.548C64.7532 111.023 65.2757 110.455 65.752 109.849L67.9658 107.062H21.0523Z" fill="#263238"/>
<path opacity="0.5" d="M21.0523 107.062L22.4901 109.849C22.7991 110.453 23.171 111.022 23.5996 111.548L16.5048 193.592H18.2759L32.3718 115.173H54.4012L46.525 193.592H48.2961L64.1892 111.548C64.7532 111.023 65.2757 110.455 65.752 109.849L67.9658 107.062H21.0523Z" fill="white"/>
<path d="M122.522 192.013H119.387L103.895 139.672H109.286L122.522 192.013Z" fill="#407BFF"/>
<path d="M66.5664 192.013H69.7023L85.1943 139.672H79.8028L66.5664 192.013Z" fill="#407BFF"/>
<path d="M150.753 192.013H147.617L132.125 139.672H137.522L150.753 192.013Z" fill="#407BFF"/>
<path d="M118.528 75.449C98.8637 79.6788 98.5303 105.433 100.52 122.238C100.719 123.889 100.565 125.564 100.069 127.152C99.5733 128.74 98.7462 130.205 97.6426 131.45C96.5389 132.695 95.1839 133.692 93.6667 134.375C92.1496 135.057 90.505 135.411 88.8413 135.411H69.4893C68.8244 135.414 68.1802 135.643 67.6629 136.06C67.1456 136.478 66.7863 137.06 66.6443 137.709C66.5022 138.359 66.5859 139.038 66.8816 139.633C67.1772 140.229 67.6671 140.706 68.2704 140.985C74.6308 143.908 87.3984 146.892 113.012 146.892C151.971 146.892 150.387 125.827 154.513 105.433C160.967 73.5633 153.528 67.9218 118.528 75.449Z" fill="#407BFF"/>
<path opacity="0.3" d="M118.528 75.449C98.8637 79.6788 98.5303 105.433 100.52 122.238C100.719 123.889 100.565 125.564 100.069 127.152C99.5733 128.74 98.7462 130.205 97.6426 131.45C96.5389 132.695 95.1839 133.692 93.6667 134.375C92.1496 135.057 90.505 135.411 88.8413 135.411H69.4893C68.8244 135.414 68.1802 135.643 67.6629 136.06C67.1456 136.478 66.7863 137.06 66.6443 137.709C66.5022 138.359 66.5859 139.038 66.8816 139.633C67.1772 140.229 67.6671 140.706 68.2704 140.985C74.6308 143.908 87.3984 146.892 113.012 146.892C151.971 146.892 150.387 125.827 154.513 105.433C160.967 73.5633 153.528 67.9218 118.528 75.449Z" fill="black"/>
<path d="M94.6456 76.4953C93.8682 76.123 93.0251 75.9075 92.1644 75.8613C91.3037 75.815 90.4424 75.9389 89.6296 76.2258C88.8168 76.5127 88.0685 76.957 87.4276 77.5332C86.7867 78.1095 86.2656 78.8065 85.8942 79.5843L85.7223 79.949L85.4775 80.4699L85.1806 81.0689L84.5555 82.2931C84.1231 83.1057 83.696 83.9235 83.2323 84.7049C83.5918 83.5016 83.9825 82.2931 84.3836 81.0898C84.7847 79.8865 85.217 78.5633 85.6598 77.3027C86.5193 74.7867 87.4517 72.229 88.3217 69.7443L88.3529 69.6609C88.616 68.9163 88.6012 68.1018 88.3115 67.3673C88.0217 66.6327 87.4765 66.0275 86.776 65.6629C86.0755 65.2984 85.2669 65.1992 84.499 65.3834C83.7312 65.5676 83.0557 66.023 82.5968 66.6657C80.9247 68.9993 79.4714 71.3539 78.018 73.7605C76.5647 76.1671 75.2624 78.6623 74.007 81.22C72.7304 83.8271 71.6051 86.5055 70.6367 89.2421C70.1574 90.6589 69.7042 92.1175 69.3292 93.6698C68.9153 95.3462 68.671 97.06 68.5999 98.7852C68.5461 100.144 68.9843 101.477 69.834 102.539C70.6837 103.601 71.8878 104.321 73.2256 104.567L73.6527 104.645C75.4568 104.97 77.3061 104.947 79.1015 104.578C80.745 104.226 82.3257 103.627 83.7897 102.801C86.2384 101.395 88.4297 99.5828 90.2699 97.4412C91.1136 96.4987 91.9032 95.5091 92.6348 94.4772C93.3485 93.4719 94.0309 92.4665 94.6404 91.4299C95.2498 90.3933 95.8437 89.3463 96.3698 88.3044C96.6355 87.7835 96.8907 87.2365 97.146 86.6844L97.5054 85.8457L97.8961 84.8976C98.526 83.3465 98.5405 81.6135 97.9364 80.0521C97.3324 78.4907 96.1554 77.2186 94.6456 76.4953Z" fill="#263238"/>
<path d="M82.4554 60.0448L82.3147 62.6494C82.2701 63.6873 82.4477 64.7227 82.8356 65.6863L83.8775 68.3586C84.1177 68.9669 84.5258 69.4945 85.0542 69.88C85.5826 70.2655 86.2096 70.493 86.8623 70.536C87.7491 70.5961 88.6246 70.31 89.3046 69.7378C89.9847 69.1655 90.4163 68.3518 90.5087 67.4679C90.5874 66.1308 90.4663 64.7894 90.1493 63.4881L89.8576 60.1803C89.8084 59.638 89.5682 59.1309 89.1799 58.7493C88.7916 58.3677 88.2804 58.1364 87.7374 58.0966L84.9193 57.883C84.6153 57.8618 84.3101 57.9011 84.0213 57.9985C83.7325 58.0958 83.4659 58.2495 83.2368 58.4505C83.0077 58.6514 82.8207 58.8958 82.6866 59.1695C82.5525 59.4431 82.4739 59.7406 82.4554 60.0448Z" fill="#FFB573"/>
<path opacity="0.2" d="M90.1535 63.4823L89.8618 60.1797C89.8118 59.6387 89.5721 59.1328 89.185 58.7515C88.798 58.3702 88.2886 58.138 87.7469 58.0961L85.0173 57.8877C84.71 62.1488 86.8926 66.8891 89.2836 69.7645C89.6313 69.4833 89.9188 69.135 90.1291 68.7403C90.3394 68.3457 90.4682 67.9127 90.5077 67.4673C90.5905 66.1287 90.4711 64.7853 90.1535 63.4823Z" fill="black"/>
<path d="M113.6 70.7286C106.078 71.2912 96.6604 71.9059 89.9041 75.1199C86.5703 76.7087 85.6743 80.0478 86.1692 83.7098C86.9557 89.5232 87.6329 94.1645 89.0811 99.0715C92.4358 110.391 85.7108 118.496 93.2484 127.263C96.5562 131.024 116.835 134.556 131.197 129.837C133.281 121.268 130.587 99.9571 127.707 80.5583C126.701 73.7082 120.513 70.2129 113.6 70.7286Z" fill="#407BFF"/>
<path d="M104.268 61.6182C104.632 64.8062 106.211 69.484 108.909 70.9425C109.202 71.1032 109.452 71.3319 109.638 71.6093C109.824 71.8868 109.94 72.2049 109.978 72.5368C110.015 72.8688 109.972 73.2048 109.852 73.5166C109.732 73.8284 109.539 74.1069 109.289 74.3285C107.701 75.7193 105.247 76.933 101.955 77.6154C97.6627 78.4906 96.7459 77.1935 96.8084 75.86C96.8724 75.2164 97.1344 74.6085 97.5585 74.1201C98.9441 72.4115 97.5585 71.0832 96.699 70.083L104.268 61.6182Z" fill="#FFB573"/>
<path opacity="0.2" d="M102.339 66.4267C102.256 66.2479 102.162 66.074 102.058 65.9058L96.7031 70.0991C97.224 70.7503 98.0367 71.5473 98.1356 72.4901C100.902 70.8284 103.152 68.1561 102.339 66.4267Z" fill="black"/>
<path d="M68.9691 176.355C70.0109 175.288 76.637 173.23 76.637 173.23C78.3728 178.216 79.8061 183.303 80.9293 188.461L72.3499 189.337C72.3499 189.337 70.9278 180.643 68.9691 176.355Z" fill="#FFB573"/>
<path d="M106.914 123.07C82.1025 123.425 49.4516 122.096 57.1403 144.709C60.4325 154.388 60.1668 157.945 64.0164 169.671C65.6729 174.719 66.2355 176.204 67.4388 179.699C68.7567 182.824 76.6537 182.251 79.5709 181.027C83.0766 179.162 80.0918 174.125 79.7011 171.291C77.706 157.456 81.8472 152.169 77.4924 143.099C85.4103 144.245 107.669 143.443 110.982 129.837C110.982 129.837 115.545 124.414 106.914 123.07Z" fill="#263238"/>
<path d="M69.4593 181.367L70.5011 183.45C70.5639 183.575 70.6651 183.676 70.7899 183.739C70.9146 183.802 71.0563 183.823 71.1939 183.799C72.6004 183.554 76.7885 182.882 79.2264 183.179C79.3143 183.189 79.4032 183.18 79.4877 183.154C79.5722 183.128 79.6506 183.086 79.7182 183.029C79.7858 182.972 79.8413 182.902 79.8812 182.823C79.9211 182.744 79.9447 182.658 79.9505 182.57C79.9974 181.747 79.9869 180.679 79.9765 180.007C79.9711 179.836 79.8998 179.674 79.7774 179.554C79.655 179.435 79.4912 179.367 79.3202 179.366C76.147 179.399 72.985 179.748 69.8812 180.408C69.7825 180.431 69.6905 180.477 69.6125 180.542C69.5345 180.607 69.4726 180.689 69.4317 180.782C69.3908 180.875 69.372 180.976 69.3768 181.078C69.3816 181.179 69.4098 181.278 69.4593 181.367Z" fill="#407BFF"/>
<path d="M82.7665 193.909L81.8706 187.861C81.8374 187.721 81.7551 187.597 81.6386 187.512C81.522 187.427 81.3789 187.386 81.2351 187.397L72.4368 187.434C71.7311 187.385 71.0287 187.568 70.4365 187.955C68.457 189.59 65.3889 191.158 60.9298 192.023C59.5182 192.299 60.1172 195.102 63.425 195.086C68.8946 195.06 68.6654 194.888 73.3224 194.872C77.3126 194.872 78.3127 195.055 81.4799 195.086C81.6428 195.098 81.8064 195.077 81.9607 195.023C82.1151 194.97 82.2568 194.885 82.3773 194.775C82.4978 194.665 82.5945 194.531 82.6615 194.382C82.7284 194.233 82.7641 194.072 82.7665 193.909Z" fill="#263238"/>
<path d="M101.208 53.2511C103.537 58.5853 105.172 61.5857 103.927 65.7531C102.063 72.0509 94.4989 73.4678 90.6285 69.0609C87.1488 65.0915 83.9244 57.0278 87.9093 51.9853C91.837 47.0262 98.8798 47.9118 101.208 53.2511Z" fill="#FFB573"/>
<path d="M96.9264 66.0777C97.2137 66.071 97.501 66.0867 97.7859 66.1245C97.8057 66.127 97.8247 66.1336 97.8418 66.1437C97.859 66.1538 97.8739 66.1674 97.8856 66.1835C97.8973 66.1996 97.9056 66.2179 97.9099 66.2373C97.9143 66.2568 97.9146 66.2769 97.9109 66.2965C97.9091 66.316 97.9032 66.3349 97.8936 66.3521C97.884 66.3692 97.871 66.3841 97.8553 66.3959C97.8396 66.4077 97.8216 66.416 97.8025 66.4204C97.7833 66.4248 97.7635 66.4252 97.7442 66.4215C97.1121 66.3143 96.4636 66.3591 95.8523 66.552C95.2409 66.7449 94.6842 67.0805 94.2281 67.531C94.1997 67.5593 94.1613 67.5752 94.1213 67.5752C94.0812 67.5752 94.0428 67.5593 94.0145 67.531C94.0006 67.5174 93.9896 67.5012 93.9821 67.4833C93.9746 67.4654 93.9707 67.4462 93.9707 67.4268C93.9707 67.4074 93.9746 67.3882 93.9821 67.3703C93.9896 67.3524 94.0006 67.3362 94.0145 67.3227C94.786 66.5444 95.8307 66.0978 96.9264 66.0777Z" fill="#263238"/>
<path d="M94.5255 59.7172C94.2598 59.8683 94.239 60.3215 94.4734 60.7278L95.4319 60.1704C95.1975 59.7641 94.7912 59.561 94.5255 59.7172Z" fill="#263238"/>
<path d="M89.5406 62.5454C89.275 62.6964 89.2489 63.1496 89.4885 63.5559L90.447 62.9986C90.1814 62.5923 89.7803 62.3891 89.5406 62.5454Z" fill="#263238"/>
<path d="M93.2231 57.1854C93.256 57.1427 93.3006 57.1106 93.3515 57.0931C93.4024 57.0755 93.4574 57.0732 93.5096 57.0864C93.842 57.181 94.1921 57.1948 94.531 57.1269C94.8698 57.0589 95.1875 56.9111 95.4578 56.6957C95.4834 56.6701 95.5139 56.6497 95.5474 56.6358C95.5809 56.6219 95.6168 56.6147 95.6531 56.6147C95.6894 56.6147 95.7253 56.6219 95.7589 56.6358C95.7924 56.6497 95.8228 56.6701 95.8485 56.6957C95.8741 56.7214 95.8945 56.7518 95.9084 56.7853C95.9223 56.8189 95.9295 56.8548 95.9295 56.8911C95.9295 56.9274 95.9223 56.9633 95.9084 56.9968C95.8945 57.0303 95.8741 57.0608 95.8485 57.0864C95.5104 57.3639 95.1105 57.556 94.6826 57.6467C94.2547 57.7373 93.8113 57.7238 93.3898 57.6073C93.3196 57.5889 93.2595 57.5436 93.2224 57.4812C93.1854 57.4188 93.1744 57.3444 93.1918 57.2739C93.1974 57.2429 93.2079 57.213 93.2231 57.1854Z" fill="#263238"/>
<path d="M88.8879 59.6331C88.9402 59.5943 89.0056 59.5775 89.0702 59.5862C89.1426 59.5929 89.2094 59.6277 89.2562 59.6833C89.303 59.7389 89.326 59.8107 89.3202 59.8832C89.2939 60.32 89.1628 60.744 88.9379 61.1194C88.7131 61.4947 88.4011 61.8104 88.0284 62.0397C87.964 62.073 87.8892 62.0796 87.82 62.0581C87.7508 62.0367 87.6928 61.9889 87.6585 61.9251C87.6412 61.8937 87.6302 61.8592 87.6263 61.8235C87.6225 61.7878 87.6257 61.7517 87.6359 61.7173C87.6461 61.6829 87.663 61.6509 87.6856 61.6231C87.7083 61.5952 87.7363 61.5722 87.7679 61.5553C88.0592 61.3688 88.3018 61.1156 88.4757 60.8166C88.6496 60.5177 88.7499 60.1816 88.7681 59.8363C88.7722 59.7958 88.785 59.7566 88.8057 59.7215C88.8263 59.6865 88.8544 59.6563 88.8879 59.6331Z" fill="#263238"/>
<path opacity="0.2" d="M90.6299 62.8413C90.6503 63.245 90.569 63.6475 90.3933 64.0116C90.2177 64.3756 89.9533 64.6897 89.6245 64.925C92.052 64.5291 90.6299 62.8413 90.6299 62.8413Z" fill="black"/>
<path opacity="0.2" d="M93.8684 61.0391C94.2153 61.2368 94.606 61.3451 95.0052 61.3542C95.4044 61.3633 95.7996 61.2729 96.1552 61.0912C94.8321 62.7633 93.8684 61.0391 93.8684 61.0391Z" fill="black"/>
<path d="M105.61 53.4295C105.35 51.0229 104.714 49.2257 103.871 48.0068C104.239 48.1244 104.617 48.2081 105.001 48.2568C102.855 45.0011 99.3542 45.6106 98.2291 46.9285C96.859 43.9332 94.9213 45.9336 92.7178 46.3138C90.5143 46.6941 86.4147 45.1001 86.4147 45.1001C86.4147 45.1001 87.3159 46.6628 88.7849 46.9025C85.9355 48.1891 84.8832 50.403 84.1279 52.1116C83.3726 53.8202 81.0806 55.8674 81.0806 55.8674C82.0368 55.8774 82.9635 55.5364 83.6851 54.9089C83.3986 56.6488 82.1953 59.8941 81.6015 60.639C83.1642 60.118 84.628 58.2063 84.628 58.2063C84.628 58.2063 84.9093 61.3318 86.3783 63.4467C86.0761 60.7431 90.4049 55.3308 90.4049 55.3308C90.2127 56.4915 90.2127 57.6759 90.4049 58.8366C92.3584 57.1853 95.5411 51.7782 95.5411 51.7782C95.5814 53.3491 95.8034 54.9101 96.2027 56.43C96.3875 55.5204 96.7679 54.6619 97.3175 53.914C96.7444 55.8518 98.203 60.3316 98.203 60.3316C98.1298 59.1617 98.205 57.9873 98.427 56.8363C98.8385 58.1698 101.365 59.6388 102.402 59.7899C102.391 59.8003 106.345 60.1076 105.61 53.4295Z" fill="#263238"/>
<path d="M105.558 58.285C105.476 59.7047 104.835 61.0342 103.777 61.9835C102.36 63.2285 100.839 62.1606 100.552 60.4207C100.292 58.8319 100.714 56.2534 102.459 55.7065C104.204 55.1595 105.641 56.5451 105.558 58.285Z" fill="#FFB573"/>
<path d="M92.0105 62.2642C92.0105 62.2642 92.7971 65.0719 92.646 66.8222C93.7868 66.942 94.7297 65.8116 94.7297 65.8116L92.0105 62.2642Z" fill="#ED893E"/>
<path opacity="0.2" d="M89.1439 143.173C88.8417 139.73 88.4042 136.287 87.8207 132.88C87.5594 131.323 87.0567 129.817 86.3309 128.416C69.6617 126.196 68.1875 140.053 79.2048 166.395C78.6214 156.05 81.2885 151.013 77.4962 143.1C81.3632 143.57 85.2713 143.595 89.1439 143.173Z" fill="black"/>
<path opacity="0.2" d="M103.605 57.4562L104.715 59.7638C105.147 60.6398 105.368 61.605 105.361 62.582L105.303 65.1865C105.277 65.7906 105.049 66.3685 104.657 66.8282C104.264 67.2879 103.729 67.603 103.136 67.7234C102.223 67.9419 101.264 67.8621 100.4 67.4955C99.5353 67.1289 98.8111 66.495 98.3335 65.6866C97.7621 64.5402 97.3804 63.3088 97.2031 62.0402L96.2603 59.0189C96.1816 58.7809 96.1545 58.5289 96.1805 58.2796C96.2065 58.0303 96.2851 57.7894 96.4112 57.5728C96.5372 57.3561 96.7078 57.1687 96.9117 57.0229C97.1155 56.8771 97.348 56.7762 97.5938 56.7269L100.329 55.9872C100.96 55.8353 101.625 55.8971 102.217 56.1629C102.81 56.4287 103.298 56.8835 103.605 57.4562Z" fill="black"/>
<path d="M104.24 57.7635L105.094 60.2274C105.437 61.2042 105.563 62.2442 105.464 63.2748L105.188 66.1398C105.127 66.7905 104.881 67.4103 104.481 67.9268C104.081 68.4434 103.542 68.8353 102.927 69.0569C102.09 69.3657 101.166 69.3367 100.35 68.9759C99.5344 68.6152 98.8911 67.9511 98.5564 67.1243C98.1074 65.8624 97.851 64.5401 97.7959 63.2018L97.1604 59.9409C97.0542 59.4049 97.142 58.8486 97.4083 58.3715C97.6745 57.8943 98.1018 57.5274 98.6137 57.3363L101.265 56.3518C101.553 56.2456 101.859 56.198 102.165 56.2118C102.472 56.2255 102.772 56.3003 103.049 56.4318C103.326 56.5634 103.574 56.7489 103.779 56.9776C103.983 57.2062 104.14 57.4734 104.24 57.7635Z" fill="#FFB573"/>
<path d="M121.8 73.7144C120.116 73.2919 118.333 73.5556 116.844 74.4475C115.354 75.3394 114.28 76.7864 113.857 78.4704L113.726 78.9913L113.487 79.9706L113.19 81.0749C112.976 81.8303 112.768 82.5908 112.523 83.3409C112.059 84.8411 111.507 86.2893 110.929 87.6593L110.898 87.7322C110.32 85.9871 109.783 84.1692 109.304 82.3199C108.95 81.0124 108.611 79.6841 108.298 78.3505C107.986 77.017 107.652 75.673 107.356 74.3187C106.741 71.6308 106.168 68.8699 105.584 66.1924V66.1143C105.413 65.3422 104.968 64.6582 104.332 64.1885C103.696 63.7187 102.911 63.495 102.123 63.5584C101.334 63.6219 100.596 63.9683 100.043 64.5338C99.49 65.0993 99.1603 65.8457 99.1147 66.6352C98.9376 69.594 98.9428 72.4486 99.0157 75.3657C99.0886 78.2828 99.2918 81.1791 99.6095 84.1119C99.7658 85.5808 99.9794 87.055 100.219 88.5396C100.459 90.0242 100.74 91.5297 101.131 93.0507C101.515 94.6433 102.002 96.2093 102.589 97.739C102.922 98.6076 103.312 99.4533 103.756 100.271C104.294 101.265 104.938 102.198 105.678 103.052C106.575 104.074 107.807 104.744 109.152 104.942C110.498 105.139 111.87 104.852 113.023 104.131L113.377 103.907C114.457 103.227 115.478 102.458 116.43 101.609C117.324 100.803 118.158 99.933 118.925 99.0048C119.655 98.1153 120.338 97.1885 120.972 96.2283C121.582 95.275 122.123 94.3166 122.634 93.3477C123.139 92.3953 123.596 91.4182 124.004 90.4201C124.41 89.4356 124.801 88.4511 125.124 87.4509C125.447 86.4508 125.759 85.4558 126.009 84.4348C126.134 83.9139 126.265 83.393 126.369 82.8721L126.525 82.1168L126.681 81.1999C126.962 79.5666 126.615 77.8875 125.71 76.4993C124.805 75.111 123.408 74.1163 121.8 73.7144Z" fill="#263238"/>
<path d="M93.7515 175.881C94.6631 174.714 101.044 172.011 101.044 172.011C103.274 176.797 105.214 181.713 106.852 186.732L98.4032 188.456C98.4032 188.456 96.1373 179.96 93.7515 175.881Z" fill="#FFB573"/>
<path d="M110.095 121.41C85.7115 123.071 66.8596 123.123 77.6113 144.45C82.2162 153.576 83.1278 158.467 88.1442 169.74C90.3007 174.595 91.0144 176.017 92.5615 179.377C94.192 182.362 101.99 180.981 104.767 179.471C108.064 177.257 104.605 172.548 103.912 169.771C100.531 156.228 103.98 151.388 98.8125 142.757C106.798 143.168 127.895 143.444 131.208 129.838C131.213 129.838 127.239 121.41 110.095 121.41Z" fill="#263238"/>
<path d="M94.7502 180.824L96.0161 182.803C96.0921 182.921 96.204 183.011 96.3353 183.061C96.4665 183.111 96.6102 183.117 96.7453 183.079C98.1153 182.694 102.215 181.605 104.674 181.647C104.762 181.647 104.849 181.63 104.931 181.596C105.012 181.562 105.086 181.512 105.147 181.449C105.208 181.385 105.256 181.31 105.288 181.228C105.319 181.146 105.334 181.058 105.33 180.969C105.294 180.146 105.179 179.084 105.096 178.422C105.076 178.251 104.989 178.095 104.855 177.987C104.72 177.88 104.548 177.83 104.377 177.849C101.223 178.202 98.1131 178.872 95.094 179.85C94.9991 179.88 94.9126 179.933 94.8411 180.003C94.7697 180.072 94.7152 180.158 94.682 180.252C94.6488 180.346 94.6377 180.447 94.6495 180.546C94.6613 180.645 94.6958 180.74 94.7502 180.824Z" fill="#407BFF"/>
<path d="M109.274 191.571L107.519 185.46C107.467 185.325 107.367 185.213 107.239 185.146C107.11 185.078 106.962 185.061 106.821 185.096L98.1215 186.408C97.4143 186.466 96.7459 186.755 96.2201 187.231C94.0093 189.793 90.9726 191.501 87.6355 192.06C86.229 192.336 86.8281 195.139 90.1307 195.123C95.6055 195.097 95.3658 194.399 99.9811 193.727C103.471 193.206 104.951 193.206 108.107 192.904C108.274 192.902 108.439 192.864 108.591 192.794C108.742 192.724 108.877 192.623 108.987 192.497C109.097 192.371 109.18 192.224 109.229 192.064C109.279 191.905 109.294 191.736 109.274 191.571Z" fill="#263238"/>
<path d="M13.6732 107.063L188.33 107.062V103.833L13.6732 103.833V107.063Z" fill="#407BFF"/>
<path opacity="0.5" d="M13.6732 107.063L188.33 107.062V103.833L13.6732 103.833V107.063Z" fill="white"/>
<path opacity="0.3" d="M140.949 107.062H188.326V103.833H140.949V107.062Z" fill="#407BFF"/>
<path d="M183.726 193.592H185.498L178.403 111.548C178.832 111.023 179.204 110.454 179.512 109.849L180.95 107.062H134.01L136.224 109.849C136.707 110.457 137.239 111.025 137.813 111.548L153.706 193.592H155.477L147.601 115.173H169.63L183.726 193.592Z" fill="#263238"/>
<path opacity="0.6" d="M183.726 193.592H185.498L178.403 111.548C178.832 111.023 179.204 110.454 179.512 109.849L180.95 107.062H134.01L136.224 109.849C136.707 110.457 137.239 111.025 137.813 111.548L153.706 193.592H155.477L147.601 115.173H169.63L183.726 193.592Z" fill="white"/>
<path d="M58.5731 90.0898H17.0979V103.832H58.5731V90.0898Z" fill="#407BFF"/>
<path opacity="0.8" d="M58.5731 90.0898H17.0979V103.832H58.5731V90.0898Z" fill="white"/>
<path opacity="0.3" d="M58.5703 90.0898H37.8328V103.832H58.5703V90.0898Z" fill="#407BFF"/>
<path opacity="0.3" d="M24.1536 95.2363L37.7859 96.3823L54.7573 95.2363H24.1536Z" fill="#407BFF"/>
<path opacity="0.3" d="M18.1166 98.4775L26.0449 99.0245L35.911 98.4775H18.1166Z" fill="#407BFF"/>
<path d="M37.8329 87.6582C32.2591 90.3253 16.5015 88.2781 16.5015 88.2781C16.5015 88.2781 18.5851 90.0909 20.6271 90.0909H56.9035C56.9035 90.0909 58.284 89.6273 58.284 89.1376C49.0377 90.518 39.6457 88.7521 37.8329 87.6582Z" fill="#407BFF"/>
<path opacity="0.4" d="M37.8329 87.6582C32.2591 90.3253 16.5015 88.2781 16.5015 88.2781C16.5015 88.2781 18.5851 90.0909 20.6271 90.0909H56.9035C56.9035 90.0909 58.284 89.6273 58.284 89.1376C49.0377 90.518 39.6457 88.7521 37.8329 87.6582Z" fill="white"/>
<path d="M184.497 96.4829H140.438V103.828H184.497V96.4829Z" fill="#407BFF"/>
<path opacity="0.8" d="M184.497 96.4829H140.438V103.828H184.497V96.4829Z" fill="white"/>
<path opacity="0.3" d="M184.492 96.4829H162.463V103.828H184.492V96.4829Z" fill="#407BFF"/>
<path opacity="0.3" d="M174.025 100.754L159.544 100.139L141.515 100.754H174.025Z" fill="#407BFF"/>
<path opacity="0.3" d="M180.44 99.0134L172.017 98.7217L161.536 99.0134H180.44Z" fill="#407BFF"/>
<path d="M158.419 92.3149C157.137 96.8261 139.801 94.6695 139.801 94.6695C139.801 94.6695 142.005 96.4823 144.182 96.4823H182.73C182.73 96.4823 187.293 95.4404 187.293 94.9508C177.458 96.3364 162.466 95.3623 158.419 92.3149Z" fill="#407BFF"/>
<g opacity="0.4">
<path opacity="0.4" d="M158.419 92.3149C157.137 96.8261 139.801 94.6695 139.801 94.6695C139.801 94.6695 142.005 96.4823 144.182 96.4823H182.73C182.73 96.4823 187.293 95.4404 187.293 94.9508C177.458 96.3364 162.466 95.3623 158.419 92.3149Z" fill="white"/>
</g>
</svg>
