<svg width="224" height="205" viewBox="0 0 224 205" fill="none" xmlns="http://www.w3.org/2000/svg">
<path d="M112 204.983C173.856 204.983 224 202.056 224 198.444C224 194.833 173.856 191.905 112 191.905C50.1441 191.905 0 194.833 0 198.444C0 202.056 50.1441 204.983 112 204.983Z" fill="white"/>
<path d="M28.0518 18.0114C27.9939 18.0116 27.9371 17.9955 27.8881 17.9648C27.839 17.9342 27.7996 17.8902 27.7745 17.8381C27.2777 16.8041 27.8785 15.9896 28.5081 15.1231C29.415 13.8812 30.5414 12.3389 29.3515 9.34666C27.2489 3.9861 28.9298 0.866808 29.0049 0.739726C29.0479 0.675781 29.1135 0.630417 29.1885 0.612695C29.2635 0.594973 29.3424 0.606198 29.4095 0.644122C29.4766 0.682047 29.527 0.743883 29.5505 0.817286C29.574 0.890689 29.5689 0.970255 29.5363 1.0401C29.5363 1.06898 27.9305 4.04964 29.9234 9.12716C31.2346 12.4602 29.9234 14.222 28.9991 15.4813C28.3348 16.394 28.0056 16.9023 28.3233 17.5724C28.3409 17.6087 28.3511 17.6482 28.3534 17.6886C28.3557 17.729 28.3499 17.7694 28.3365 17.8075C28.3231 17.8456 28.3023 17.8807 28.2752 17.9108C28.2481 17.9408 28.2154 17.9652 28.1789 17.9825C28.1388 18.0002 28.0956 18.01 28.0518 18.0114Z" fill="#407BFF"/>
<path d="M29.2873 1.72137C29.1166 1.72251 28.9494 1.67286 28.807 1.57872C28.6646 1.48459 28.5534 1.35023 28.4875 1.19272C28.4217 1.03522 28.4041 0.861688 28.4372 0.694194C28.4702 0.526699 28.5523 0.372808 28.673 0.252091C28.7937 0.131374 28.9476 0.0492844 29.1151 0.0162587C29.2826 -0.0167669 29.4561 0.000764343 29.6136 0.066623C29.7711 0.132482 29.9055 0.243693 29.9996 0.386116C30.0938 0.528538 30.1434 0.695734 30.1423 0.866449C30.1408 1.09272 30.0502 1.3093 29.8902 1.4693C29.7302 1.6293 29.5136 1.71986 29.2873 1.72137ZM29.2873 0.618061C29.252 0.612616 29.2158 0.614889 29.1814 0.624725C29.1469 0.63456 29.115 0.651726 29.0878 0.675045C29.0607 0.698363 29.0388 0.727285 29.0239 0.759824C29.0089 0.792363 29.0012 0.827751 29.0012 0.863563C29.0012 0.899375 29.0089 0.934762 29.0239 0.967301C29.0388 0.999841 29.0607 1.02876 29.0878 1.05208C29.115 1.0754 29.1469 1.09257 29.1814 1.1024C29.2158 1.11224 29.252 1.11451 29.2873 1.10906C29.346 1.10004 29.3995 1.07032 29.4381 1.02529C29.4767 0.980264 29.498 0.922894 29.498 0.863563C29.498 0.804231 29.4767 0.746862 29.4381 0.701831C29.3995 0.656801 29.346 0.627083 29.2873 0.618061Z" fill="#407BFF"/>
<path d="M38.9927 12.6274L39.2815 13.1069L10.6591 30.5923L10.3702 30.1128L21.9694 16.9309L38.9927 12.6274Z" fill="#263238"/>
<path d="M39.2812 13.1069L27.6821 26.2888L10.6588 30.5923L22.258 17.4104L39.2812 13.1069Z" fill="#407BFF"/>
<path d="M37.1565 23.3084C31.1643 25.9329 25.5561 29.3588 20.4857 33.4923C20.4153 33.5543 20.3326 33.6005 20.2429 33.6279C20.1533 33.6554 20.0588 33.6633 19.9659 33.6513C19.8729 33.6392 19.7836 33.6075 19.7039 33.5582C19.6242 33.5089 19.5559 33.4431 19.5037 33.3653L16.4421 28.3513C16.3647 28.2148 16.3391 28.0551 16.3699 27.9013C16.4006 27.7475 16.4857 27.6099 16.6096 27.5137C21.769 23.2794 27.4901 19.7803 33.6098 17.1161C33.7513 17.0487 33.9125 17.035 34.0633 17.0775C34.2142 17.12 34.3445 17.2158 34.43 17.3471L37.4916 22.3611C37.5398 22.4437 37.5694 22.5358 37.5783 22.631C37.5873 22.7262 37.5754 22.8222 37.5436 22.9124C37.5117 23.0025 37.4605 23.0847 37.3937 23.1531C37.3269 23.2215 37.2459 23.2745 37.1565 23.3084Z" fill="#407BFF"/>
<path opacity="0.3" d="M37.1565 23.3084C31.1643 25.9329 25.5561 29.3588 20.4857 33.4923C20.4153 33.5543 20.3326 33.6005 20.2429 33.6279C20.1533 33.6554 20.0588 33.6633 19.9659 33.6513C19.8729 33.6392 19.7836 33.6075 19.7039 33.5582C19.6242 33.5089 19.5559 33.4431 19.5037 33.3653L16.4421 28.3513C16.3647 28.2148 16.3391 28.0551 16.3699 27.9013C16.4006 27.7475 16.4857 27.6099 16.6096 27.5137C21.769 23.2794 27.4901 19.7803 33.6098 17.1161C33.7513 17.0487 33.9125 17.035 34.0633 17.0775C34.2142 17.12 34.3445 17.2158 34.43 17.3471L37.4916 22.3611C37.5398 22.4437 37.5694 22.5358 37.5783 22.631C37.5873 22.7262 37.5754 22.8222 37.5436 22.9124C37.5117 23.0025 37.4605 23.0847 37.3937 23.1531C37.3269 23.2215 37.2459 23.2745 37.1565 23.3084Z" fill="#263238"/>
<path d="M197.719 73.7306C197.653 73.7304 197.588 73.7157 197.528 73.6878C197.468 73.6599 197.415 73.6193 197.373 73.5689C196.298 72.2981 196.795 70.9233 197.315 69.4734C198.095 67.3014 198.973 64.8522 195.414 61.4556C188.379 54.7665 192.74 48.1698 192.786 48.1351C192.855 48.0357 192.96 47.9674 193.079 47.9447C193.198 47.922 193.321 47.9468 193.421 48.0138C193.521 48.0838 193.59 48.19 193.612 48.3097C193.635 48.4295 193.61 48.5533 193.543 48.655C193.375 48.8918 189.586 54.6509 196.044 60.7856C200.041 64.5807 198.961 67.5845 198.175 69.7795C197.644 71.2641 197.373 72.1421 198.072 72.9681C198.111 73.0142 198.14 73.0677 198.158 73.1253C198.177 73.1829 198.183 73.2435 198.178 73.3037C198.172 73.3639 198.155 73.4224 198.127 73.4759C198.099 73.5293 198.06 73.5766 198.014 73.6151C197.934 73.6894 197.828 73.7306 197.719 73.7306Z" fill="#407BFF"/>
<path d="M193.185 49.6712C192.945 49.671 192.71 49.6036 192.507 49.4768C192.304 49.3499 192.14 49.1686 192.034 48.9534C191.929 48.7382 191.886 48.4977 191.91 48.2592C191.934 48.0208 192.025 47.7939 192.171 47.6043C192.318 47.4147 192.515 47.27 192.74 47.1866C192.964 47.1032 193.208 47.0844 193.443 47.1324C193.677 47.1804 193.894 47.2933 194.068 47.4582C194.242 47.6231 194.366 47.8334 194.427 48.0653C194.511 48.3947 194.462 48.744 194.29 49.0373C194.118 49.3305 193.837 49.5438 193.508 49.6308C193.403 49.6581 193.294 49.6717 193.185 49.6712ZM193.185 48.0191H193.092C193.045 48.0301 193 48.0513 192.961 48.0812C192.922 48.1111 192.89 48.149 192.867 48.1924C192.842 48.2334 192.825 48.2792 192.818 48.3269C192.811 48.3746 192.814 48.4232 192.827 48.4697C192.839 48.5167 192.86 48.5609 192.889 48.5998C192.918 48.6386 192.955 48.6712 192.997 48.6959C193.039 48.7206 193.085 48.7368 193.133 48.7436C193.181 48.7503 193.23 48.7476 193.277 48.7354C193.371 48.7096 193.452 48.6481 193.501 48.564C193.551 48.4799 193.566 48.3798 193.543 48.2848C193.517 48.1899 193.455 48.109 193.37 48.0596C193.313 48.0298 193.249 48.0158 193.185 48.0191Z" fill="#407BFF"/>
<path d="M214.506 96.6862L213.923 97.1368L186.964 62.0043L187.547 61.5537L206.477 74.9378L214.506 96.6862Z" fill="#263238"/>
<path d="M213.923 97.1369L194.993 83.7528L186.964 62.0044L205.893 75.3885L213.923 97.1369Z" fill="#407BFF"/>
<path d="M200.231 95.7678C195.947 88.2712 190.665 81.3904 184.531 75.3134C184.439 75.2295 184.367 75.127 184.318 75.0128C184.269 74.8986 184.245 74.7753 184.248 74.6512C184.251 74.5271 184.28 74.4049 184.334 74.293C184.388 74.1811 184.465 74.0819 184.56 74.0021L190.712 69.2827C190.879 69.1619 191.084 69.1054 191.29 69.1234C191.496 69.1414 191.688 69.2328 191.832 69.3809C198.107 75.5635 203.496 82.5851 207.845 90.2455C207.953 90.423 207.993 90.6337 207.958 90.8387C207.923 91.0436 207.815 91.2289 207.654 91.3604L201.502 96.0624C201.402 96.1347 201.287 96.1846 201.166 96.209C201.045 96.2333 200.92 96.2315 200.8 96.2036C200.679 96.1757 200.566 96.1224 200.468 96.0472C200.37 95.9721 200.289 95.8768 200.231 95.7678Z" fill="#407BFF"/>
<path opacity="0.3" d="M200.231 95.7678C195.947 88.2712 190.665 81.3904 184.531 75.3134C184.439 75.2295 184.367 75.127 184.318 75.0128C184.269 74.8986 184.245 74.7753 184.248 74.6512C184.251 74.5271 184.28 74.4049 184.334 74.293C184.388 74.1811 184.465 74.0819 184.56 74.0021L190.712 69.2827C190.879 69.1619 191.084 69.1054 191.29 69.1234C191.496 69.1414 191.688 69.2328 191.832 69.3809C198.107 75.5635 203.496 82.5851 207.845 90.2455C207.953 90.423 207.993 90.6337 207.958 90.8387C207.923 91.0436 207.815 91.2289 207.654 91.3604L201.502 96.0624C201.402 96.1347 201.287 96.1846 201.166 96.209C201.045 96.2333 200.92 96.2315 200.8 96.2036C200.679 96.1757 200.566 96.1224 200.468 96.0472C200.37 95.9721 200.289 95.8768 200.231 95.7678Z" fill="#263238"/>
<path d="M37.5782 84.6889C41.2732 86.2243 45.1598 87.2503 49.1311 87.7389C49.1878 87.7442 49.2427 87.7614 49.2923 87.7894C49.3419 87.8174 49.385 87.8556 49.4188 87.9014C49.4526 87.9472 49.4763 87.9996 49.4885 88.0552C49.5006 88.1109 49.5009 88.1684 49.4893 88.2241L48.5708 91.69C48.544 91.7821 48.4848 91.8615 48.4041 91.9135C48.3235 91.9655 48.2268 91.9866 48.1318 91.9731C44.0733 91.484 40.102 90.4363 36.3305 88.8595C36.2405 88.8256 36.166 88.7598 36.1213 88.6746C36.0766 88.5894 36.0647 88.4908 36.0879 88.3974L37.0063 84.9315C37.0226 84.8742 37.0515 84.8212 37.0909 84.7765C37.1303 84.7318 37.1793 84.6965 37.2341 84.6733C37.289 84.65 37.3484 84.6393 37.4079 84.642C37.4675 84.6447 37.5257 84.6608 37.5782 84.6889Z" fill="#407BFF"/>
<path d="M33.5913 83.3317L33.6837 83.0024L53.4739 88.2417L53.3873 88.571L42.6777 89.0215L33.5913 83.3317Z" fill="#263238"/>
<path d="M33.683 83.0023L44.3868 82.5518L53.4732 88.2416L42.7636 88.6921L33.683 83.0023Z" fill="#407BFF"/>
<g opacity="0.4">
<path opacity="0.4" d="M33.683 83.0023L44.3868 82.5518L53.4732 88.2416L42.7636 88.6921L33.683 83.0023Z" fill="#263238"/>
</g>
<path d="M44.1277 85.7802C44.1014 85.7886 44.0731 85.7886 44.0468 85.7802C44.0103 85.7586 43.9838 85.7234 43.9729 85.6823C43.9621 85.6412 43.9679 85.5976 43.989 85.5607C44.1854 85.2199 44.0352 84.9369 43.7175 84.4054C43.3493 83.9198 43.1326 83.3362 43.0945 82.7279C43.0565 82.1195 43.1989 81.5135 43.5038 80.9858C44.7804 78.3806 44.0815 76.7458 44.0815 76.7285C44.0639 76.6894 44.0625 76.645 44.0777 76.6049C44.0928 76.5648 44.1233 76.5324 44.1623 76.5148C44.1815 76.5052 44.2025 76.4998 44.2239 76.4987C44.2453 76.4977 44.2668 76.501 44.2868 76.5086C44.3069 76.5162 44.3252 76.5279 44.3405 76.5428C44.3559 76.5578 44.368 76.5758 44.3761 76.5956C44.4107 76.665 45.1674 78.3863 43.8273 81.1302C43.5449 81.6072 43.4125 82.1582 43.4476 82.7114C43.4826 83.2647 43.6834 83.7946 44.0237 84.2321C44.3241 84.7174 44.6013 85.1737 44.2952 85.6994C44.2797 85.729 44.255 85.7529 44.2248 85.7675C44.1946 85.7821 44.1606 85.7865 44.1277 85.7802Z" fill="#407BFF"/>
<path d="M44.1926 77.1151H44.158C44.0371 77.1031 43.9254 77.0452 43.846 76.9533C43.8079 76.908 43.7791 76.8556 43.7613 76.7991C43.7434 76.7426 43.7369 76.6831 43.7421 76.6241C43.7457 76.5643 43.7614 76.5058 43.7882 76.4522C43.815 76.3986 43.8524 76.3509 43.898 76.3121C43.992 76.2353 44.1121 76.1981 44.2331 76.2082C44.2921 76.2116 44.3498 76.2272 44.4025 76.254C44.4552 76.2809 44.5018 76.3184 44.5392 76.3641C44.5953 76.4304 44.6313 76.5114 44.6429 76.5975C44.6546 76.6835 44.6415 76.7711 44.6051 76.85C44.5687 76.9288 44.5105 76.9956 44.4375 77.0426C44.3644 77.0896 44.2795 77.1147 44.1926 77.1151ZM44.1926 76.5374C44.1779 76.5366 44.1632 76.5387 44.1493 76.5436C44.1354 76.5486 44.1226 76.5563 44.1118 76.5663C44.0979 76.5762 44.0865 76.5891 44.0784 76.6042C44.0704 76.6192 44.066 76.6359 44.0656 76.6529C44.0623 76.6873 44.0725 76.7216 44.0941 76.7486C44.1156 76.7755 44.1468 76.793 44.1811 76.7974C44.1985 76.7989 44.2161 76.7971 44.2329 76.7918C44.2496 76.7866 44.2651 76.7781 44.2786 76.7668C44.292 76.7555 44.303 76.7417 44.3111 76.7261C44.3191 76.7105 44.324 76.6935 44.3255 76.6761C44.3271 76.6418 44.3154 76.6082 44.2928 76.5823C44.2702 76.5565 44.2384 76.5404 44.2042 76.5374H44.1926Z" fill="#407BFF"/>
<path d="M111.291 27.9942C107.115 26.8389 104.775 33.4125 103.655 38.9117C103.39 40.442 102.678 41.8594 101.607 42.9844C100.537 44.1094 99.1566 44.8913 97.6414 45.2312C97.6414 45.2312 112.354 54.8028 123.318 49.5115C132.144 45.2485 129.325 35.1686 125.351 30.5301C121.377 25.8915 113.839 24.0026 111.291 27.9942Z" fill="#263238"/>
<path d="M119.431 193.294L114.44 193.785L109.247 181.909L114.238 181.423L119.431 193.294Z" fill="#FFB573"/>
<path d="M151.068 178.655L147.041 181.844L139.723 172.307L143.755 169.118L151.068 178.655Z" fill="#FFB573"/>
<path d="M145.46 180.019L148.689 175.201C148.744 175.117 148.827 175.055 148.924 175.028C149.02 175 149.124 175.008 149.215 175.051L153.397 177.061C153.5 177.116 153.591 177.192 153.663 177.284C153.735 177.376 153.787 177.482 153.815 177.595C153.844 177.708 153.848 177.826 153.827 177.942C153.807 178.057 153.763 178.166 153.697 178.263C152.542 179.921 151.901 180.666 150.48 182.786C149.608 184.091 147.863 187.101 146.656 188.903C145.449 190.705 143.606 189.602 143.947 188.747C145.477 184.9 145.437 182.682 145.241 180.914C145.207 180.599 145.284 180.282 145.46 180.019Z" fill="#263238"/>
<path d="M113.774 192.242H119.903C120.014 192.244 120.121 192.282 120.208 192.349C120.295 192.417 120.359 192.511 120.388 192.617L121.717 197.464C121.75 197.578 121.755 197.699 121.732 197.815C121.71 197.932 121.661 198.042 121.588 198.136C121.516 198.23 121.422 198.307 121.315 198.358C121.208 198.41 121.091 198.436 120.972 198.434C118.812 198.434 117.789 198.434 115.097 198.434H106.86C104.619 198.434 104.151 196.176 105.081 195.968C109.234 195.049 111.626 193.778 112.908 192.571C113.144 192.355 113.454 192.237 113.774 192.242Z" fill="#263238"/>
<path opacity="0.2" d="M109.252 181.914L111.926 188.032H117.131L114.243 181.423L109.252 181.914Z" fill="black"/>
<path opacity="0.2" d="M143.756 169.118L139.729 172.313L143.502 177.228L147.528 174.034L143.756 169.118Z" fill="black"/>
<path d="M104.493 87.0122C104.493 87.0122 94.8112 117.593 97.6705 139.965C99.5826 154.943 109.691 186.258 109.691 186.258L118.604 186.032C118.604 186.032 111.384 154.221 110.639 141.802C109.362 120.562 119.881 86.9775 119.881 86.9775L104.493 87.0122Z" fill="#407BFF"/>
<path d="M108.415 186.72L119.43 186.443L118.789 183.058H107.629L108.415 186.72Z" fill="#263238"/>
<path d="M109.057 87.0643C109.057 87.0643 110.414 120.47 117.86 139.266C123.868 154.453 141.434 176.813 141.434 176.813L146.8 172.14C146.8 172.14 135.652 148.491 131.088 138.359C119.893 113.52 132.197 96.2951 125.456 86.9487L109.057 87.0643Z" fill="#407BFF"/>
<path d="M140.877 177.46L147.769 171.787L145.897 168.731L138.353 175.01L140.877 177.46Z" fill="#263238"/>
<path d="M144.246 182.653C144.083 182.635 143.931 182.564 143.813 182.45C143.757 182.407 143.714 182.349 143.689 182.283C143.663 182.216 143.656 182.145 143.668 182.075C143.778 181.434 145.482 180.7 145.673 180.619C145.689 180.608 145.708 180.603 145.727 180.603C145.747 180.603 145.766 180.608 145.782 180.619C145.793 180.636 145.799 180.655 145.799 180.674C145.799 180.694 145.793 180.713 145.782 180.729C145.54 181.37 145.049 182.462 144.419 182.618C144.363 182.638 144.305 182.65 144.246 182.653ZM145.528 180.92C144.951 181.191 143.934 181.734 143.87 182.127C143.866 182.162 143.871 182.198 143.885 182.231C143.899 182.263 143.922 182.291 143.951 182.312C144.005 182.374 144.075 182.42 144.154 182.445C144.232 182.471 144.316 182.475 144.396 182.456C144.754 182.352 145.17 181.786 145.505 180.902L145.528 180.92Z" fill="#407BFF"/>
<path d="M144.131 181.041C143.87 181.044 143.616 180.959 143.409 180.798C143.345 180.731 143.306 180.645 143.297 180.552C143.289 180.46 143.312 180.368 143.363 180.29C143.403 180.209 143.461 180.137 143.532 180.08C143.603 180.023 143.685 179.983 143.773 179.961C144.489 179.776 145.72 180.591 145.772 180.625C145.786 180.636 145.797 180.65 145.805 180.666C145.813 180.682 145.818 180.7 145.818 180.718C145.816 180.736 145.81 180.753 145.8 180.768C145.789 180.783 145.776 180.795 145.76 180.804C145.242 181.006 144.685 181.087 144.131 181.041ZM144.102 180.14C144.011 180.125 143.917 180.125 143.825 180.14C143.764 180.154 143.707 180.181 143.658 180.22C143.609 180.259 143.569 180.309 143.542 180.365C143.467 180.515 143.507 180.59 143.542 180.637C143.825 180.92 144.911 180.862 145.483 180.677C145.063 180.409 144.594 180.226 144.102 180.14Z" fill="#407BFF"/>
<path d="M111.061 193.235C110.646 193.265 110.233 193.166 109.876 192.952C109.785 192.886 109.71 192.799 109.658 192.699C109.606 192.599 109.578 192.488 109.576 192.375C109.567 192.313 109.576 192.251 109.602 192.195C109.627 192.138 109.669 192.091 109.72 192.057C110.298 191.676 112.499 192.704 112.753 192.825C112.773 192.834 112.789 192.849 112.8 192.867C112.81 192.886 112.814 192.908 112.811 192.929C112.808 192.95 112.798 192.97 112.784 192.985C112.77 193.001 112.751 193.011 112.73 193.016C112.183 193.146 111.623 193.22 111.061 193.235ZM110.079 192.178C109.993 192.174 109.907 192.192 109.83 192.23C109.809 192.246 109.793 192.268 109.784 192.292C109.775 192.317 109.773 192.343 109.778 192.369C109.78 192.451 109.8 192.532 109.838 192.606C109.876 192.679 109.931 192.742 109.998 192.791C110.5 193.166 111.731 193.01 112.383 192.883C111.656 192.53 110.879 192.292 110.079 192.178Z" fill="#407BFF"/>
<path d="M112.707 193.021H112.672C112.002 192.75 110.599 191.623 110.674 191.063C110.674 190.947 110.772 190.797 111.078 190.757C112.274 190.618 112.811 192.813 112.811 192.906C112.814 192.924 112.813 192.942 112.807 192.959C112.801 192.977 112.79 192.992 112.776 193.004C112.767 193.011 112.755 193.017 112.744 193.019C112.732 193.022 112.719 193.023 112.707 193.021ZM111.188 190.947H111.101C110.893 190.976 110.882 191.051 110.876 191.08C110.83 191.438 111.829 192.351 112.557 192.732C112.407 192.224 111.956 190.947 111.188 190.947Z" fill="#407BFF"/>
<path d="M73.2011 37.6693L71.4277 33.776L83.0038 28.97L94.2217 23.3726L95.9951 27.2659L84.419 32.0719L73.2011 37.6693Z" fill="#407BFF"/>
<path opacity="0.5" d="M73.2011 37.6693L71.4277 33.776L83.0038 28.97L94.2217 23.3726L95.9951 27.2659L84.419 32.0719L73.2011 37.6693Z" fill="white"/>
<path d="M85.2735 27.3759L85.1409 27.4165C84.7962 27.5219 84.6022 27.8869 84.7077 28.2316L85.681 31.4133C85.7865 31.758 86.1514 31.952 86.4962 31.8465L86.6287 31.806C86.9735 31.7005 87.1674 31.3356 87.062 30.9908L86.0886 27.8091C85.9832 27.4644 85.6182 27.2705 85.2735 27.3759Z" fill="#407BFF"/>
<path d="M80.3022 29.6937L80.1892 29.7739C79.8953 29.9827 79.8262 30.3901 80.0349 30.6841L81.9614 33.3969C82.1701 33.6908 82.5776 33.7599 82.8715 33.5511L82.9845 33.4709C83.2785 33.2621 83.3475 32.8546 83.1388 32.5607L81.2124 29.8479C81.0036 29.554 80.5961 29.4849 80.3022 29.6937Z" fill="#407BFF"/>
<path d="M85.1413 35.7277L86.366 31.2798L81.0574 32.2733C81.0574 32.2733 81.1267 35.4042 83.6452 37.0043L85.1413 35.7277Z" fill="#FFB573"/>
<path d="M84.5697 27.1104L80.7688 28.5834L81.0576 32.2745L86.3662 31.281L84.5697 27.1104Z" fill="#FFB573"/>
<path d="M80.6992 45.8087C80.8321 41.072 82.7672 34.481 82.7672 34.481L85.4533 34.146C85.0357 37.5027 84.9448 40.8921 85.1818 44.2664L80.6992 45.8087Z" fill="#FFB573"/>
<path d="M106.636 66.1699C106.301 66.2623 106.104 66.3085 105.844 66.3721L105.122 66.5338L103.701 66.84C102.76 67.0364 101.818 67.227 100.859 67.3772C98.9084 67.7204 96.939 67.948 94.9614 68.0588C92.7413 68.206 90.5115 68.0447 88.3357 67.5793C86.9951 67.281 85.7076 66.7804 84.5175 66.0948C84.194 65.9099 83.8648 65.6731 83.5471 65.4478L83.4257 65.3612L83.264 65.2283L82.9347 64.951C82.7441 64.7662 82.5477 64.5756 82.3571 64.3734C81.7935 63.7373 81.3122 63.0328 80.9245 62.2765C80.3614 61.1729 79.9217 60.0106 79.6133 58.8107C79.3302 57.742 79.1454 56.7311 78.9836 55.7434C78.6486 53.7736 78.4984 51.8789 78.3425 50.0131C78.1865 48.1473 78.1172 46.3046 78.0594 44.4677L77.9728 41.7123L77.9323 40.326C77.9323 39.8465 77.9034 39.419 77.9034 38.8818L89.4564 39.91C89.3813 40.2393 89.3004 40.6783 89.2311 41.0653L89.0405 42.29C88.9192 43.1102 88.8325 43.9363 88.7401 44.7623C88.5841 46.4086 88.4744 48.0606 88.4571 49.6781C88.4255 51.2459 88.4892 52.8142 88.6477 54.3743C88.7284 55.069 88.844 55.7593 88.9943 56.4423C89.0966 56.9317 89.2475 57.4097 89.4448 57.8691C89.5084 57.9904 89.5488 58.0251 89.4448 57.9326C89.3409 57.8402 89.3871 57.8691 89.3466 57.8402C89.3243 57.816 89.2991 57.7947 89.2715 57.7767L89.2311 57.742C89.2773 57.742 89.2946 57.794 89.3524 57.8229C89.6788 58.0026 90.0318 58.1294 90.398 58.1984C91.6501 58.4129 92.9272 58.4402 94.1873 58.2792C95.6892 58.1124 97.1749 57.8226 98.6294 57.4128C99.3746 57.199 100.126 56.9737 100.865 56.708C101.235 56.5752 101.599 56.4365 101.962 56.2921L102.488 56.0726C102.644 56.0033 102.858 55.9109 102.939 55.8647L106.636 66.1699Z" fill="#263238"/>
<g opacity="0.2">
<path opacity="0.2" d="M101.389 157.704C102.204 160.87 103.07 164.059 103.925 167.103C106.443 166.404 110.025 165.37 113.999 164.07C113.323 160.558 112.67 156.971 112.116 153.609L101.389 157.704Z" fill="black"/>
<path opacity="0.2" d="M134.2 145.163L122.896 149.472C124.629 152.522 126.529 155.607 128.441 158.547C132.138 156.86 135.477 155.035 137.891 153.117L134.2 145.163Z" fill="black"/>
</g>
<path d="M101.28 58.5165C101.615 66.4476 91.316 99.0443 96.1162 165.607C100.934 166.693 135.645 152.026 139.729 147.844C139.376 139.867 124.739 88.1441 128.355 58.8862C128.586 57.032 127.529 55.2759 125.674 55.0044C124.109 54.7734 122.157 54.5423 120.187 54.4268C117.016 54.2008 113.832 54.2008 110.661 54.4268C108.281 54.6521 105.671 55.0969 103.903 55.4261C103.167 55.54 102.497 55.915 102.016 56.4826C101.534 57.0501 101.273 57.7722 101.28 58.5165Z" fill="#263238"/>
<path d="M119.216 43.7578C118.639 46.8251 118.061 52.4225 120.187 54.4789C120.187 54.4789 117.131 59.2561 111.921 61.6129C107.773 58.1008 110.662 54.5021 110.662 54.5021C114.075 53.6818 113.983 51.1459 113.382 48.766L119.216 43.7578Z" fill="#FFB573"/>
<path d="M111.701 62.3228L112.348 58.6259L119.378 52.936L121.787 54.3224C121.787 54.3224 115.468 62.525 111.701 62.3228Z" fill="white"/>
<path d="M111.702 62.3229L112.349 58.626L111.425 53.895L109.189 54.3052C109.189 54.3052 107.959 62.5251 111.702 62.3229Z" fill="white"/>
<path d="M112.348 58.6261C112.348 58.6261 115.369 61.6068 115.519 64.3044C117.558 62.3173 122.451 55.9516 122.549 54.1147C121.481 53.2251 119.314 52.6821 119.314 52.6821L112.348 58.6261Z" fill="white"/>
<path d="M112.348 58.6262C112.348 58.6262 109.414 60.9368 109.258 63.6575C107.218 61.6704 108.177 56.0441 108.432 54.4903C109.5 53.6007 111.632 53.335 111.632 53.335L112.348 58.6262Z" fill="white"/>
<path opacity="0.2" d="M116.836 45.8086L113.37 48.7661C113.519 49.3204 113.62 49.8868 113.67 50.4587C114.976 50.268 116.94 49.0896 117.073 47.7264C117.11 47.0781 117.03 46.4283 116.836 45.8086Z" fill="black"/>
<path d="M122.348 39.1534C120.615 43.9883 120.037 46.0852 116.814 47.8816C111.996 50.6139 106.416 47.4657 106.659 42.2149C106.861 37.4955 109.617 30.3847 114.994 29.8013C116.179 29.6679 117.377 29.8392 118.477 30.2991C119.576 30.7589 120.54 31.492 121.276 32.4288C122.013 33.3656 122.498 34.4751 122.686 35.6519C122.873 36.8288 122.757 38.0341 122.348 39.1534Z" fill="#FFB573"/>
<path d="M120.327 33.5273C117.288 34.5959 117.554 40.6612 120.569 42.7696C123.584 44.878 127.189 31.1185 120.327 33.5273Z" fill="#263238"/>
<path d="M111.424 31.3671C114.485 34.0531 118.881 35.0929 120.424 34.3131C121.544 35.1853 125.276 36.9529 123.052 32.7419C120.828 28.5308 116.888 27.9878 114.324 28.0225C111.759 28.0571 108.819 29.0565 111.424 31.3671Z" fill="#263238"/>
<path d="M122.364 43.7063C121.793 44.5827 120.905 45.2039 119.886 45.4393C118.569 45.7223 118.084 44.4515 118.592 43.1864C119.048 42.0312 120.285 40.535 121.538 40.8239C122.792 41.1127 123.08 42.5972 122.364 43.7063Z" fill="#FFB573"/>
<path d="M114.492 38.3974C114.376 38.796 114.07 39.0617 113.81 38.975C113.55 38.8884 113.429 38.5187 113.544 38.1143C113.66 37.71 113.96 37.45 114.226 37.5367C114.492 37.6233 114.607 37.9988 114.492 38.3974Z" fill="#263238"/>
<path d="M109.963 37.1037C109.847 37.508 109.541 37.7737 109.281 37.6813C109.021 37.5889 108.9 37.2192 109.016 36.8206C109.131 36.422 109.432 36.1563 109.697 36.243C109.963 36.3296 110.078 36.7051 109.963 37.1037Z" fill="#263238"/>
<path d="M109.806 36.2998L108.923 35.7222C108.923 35.7222 109.2 36.6406 109.806 36.2998Z" fill="#263238"/>
<path d="M110.962 38.1367C110.345 38.9478 109.62 39.6708 108.807 40.2856C108.97 40.4894 109.175 40.6553 109.409 40.772C109.642 40.8887 109.898 40.9533 110.159 40.9614L110.962 38.1367Z" fill="#FF5652"/>
<path d="M111.875 43.0586C111.621 43.038 111.369 42.9915 111.124 42.92C111.111 42.9167 111.098 42.9108 111.088 42.9024C111.077 42.8941 111.068 42.8837 111.061 42.8717C111.055 42.8598 111.051 42.8466 111.05 42.833C111.049 42.8195 111.05 42.8058 111.055 42.7929C111.058 42.7804 111.064 42.7686 111.072 42.7583C111.08 42.748 111.09 42.7394 111.101 42.7329C111.112 42.7265 111.125 42.7223 111.138 42.7207C111.15 42.7191 111.164 42.7201 111.176 42.7236C111.675 42.8778 112.203 42.9126 112.718 42.8253C113.232 42.738 113.719 42.531 114.139 42.2211C114.159 42.2023 114.185 42.1919 114.212 42.1919C114.238 42.1919 114.264 42.2023 114.284 42.2211C114.302 42.2404 114.313 42.2663 114.313 42.2933C114.313 42.3202 114.302 42.3461 114.284 42.3655C113.599 42.8962 112.737 43.1443 111.875 43.0586Z" fill="#263238"/>
<path d="M116.964 36.0468C116.929 36.0437 116.896 36.0314 116.868 36.0111C116.839 35.9907 116.817 35.9632 116.802 35.9313C116.672 35.6453 116.475 35.3948 116.228 35.2008C115.98 35.0068 115.69 34.875 115.381 34.8165C115.328 34.8079 115.279 34.7792 115.246 34.7363C115.213 34.6934 115.197 34.6395 115.202 34.5854C115.211 34.5333 115.239 34.4864 115.281 34.4543C115.323 34.4221 115.375 34.407 115.428 34.4121C115.803 34.4799 116.156 34.6371 116.458 34.8703C116.76 35.1036 117.001 35.4061 117.161 35.7522C117.183 35.8007 117.186 35.8559 117.169 35.9065C117.151 35.957 117.115 35.999 117.068 36.0237C117.036 36.0392 117 36.0471 116.964 36.0468Z" fill="#263238"/>
<path d="M108.38 34.5726C108.344 34.5705 108.31 34.5586 108.28 34.5382C108.251 34.5179 108.227 34.4898 108.212 34.4571C108.19 34.4079 108.188 34.3521 108.207 34.3015C108.225 34.2509 108.262 34.2093 108.311 34.1856C108.655 34.0201 109.033 33.939 109.415 33.9491C109.797 33.9591 110.171 34.06 110.506 34.2433C110.55 34.2739 110.581 34.32 110.593 34.3724C110.605 34.4249 110.596 34.4799 110.569 34.5264C110.54 34.5718 110.493 34.6038 110.441 34.6157C110.388 34.6275 110.332 34.6183 110.286 34.5899C110.011 34.4398 109.703 34.3582 109.389 34.3522C109.076 34.3461 108.765 34.4158 108.484 34.5553C108.452 34.5721 108.416 34.5782 108.38 34.5726Z" fill="#263238"/>
<path d="M147.816 57.6155L148.394 53.0405L152.905 55.9981C152.905 55.9981 151.64 58.8863 148.7 59.3658L147.816 57.6155Z" fill="#FFB573"/>
<path d="M151.663 49.8804L154.609 52.6993L152.917 55.9977L148.405 53.0401L151.663 49.8804Z" fill="#FFB573"/>
<path d="M148.046 68.6201C149.744 64.2011 150.495 57.3733 150.495 57.3733L148.144 56.0332C147.235 59.2816 146.014 62.4347 144.499 65.4489L148.046 68.6201Z" fill="#FFB573"/>
<path d="M128.013 56.8359C128.319 57.4829 128.712 58.257 129.093 58.9617C129.475 59.6664 129.885 60.3885 130.295 61.0932C131.121 62.5027 131.993 63.8775 132.906 65.1945C133.789 66.4838 134.739 67.7255 135.754 68.9145C136.245 69.4922 136.736 70.0121 137.227 70.4973C137.664 70.9267 138.131 71.3244 138.624 71.6872C138.719 71.7587 138.817 71.8243 138.919 71.8836L139.046 71.9703C139.087 71.9703 139.046 71.9703 139.046 71.9703H139C138.772 71.8694 138.527 71.8126 138.278 71.8028C138.039 71.7926 137.801 71.8238 137.573 71.8952C137.44 71.9414 137.44 71.953 137.498 71.8952C137.8 71.638 138.068 71.3429 138.295 71.0172C138.664 70.5045 139.001 69.9701 139.306 69.4171C139.989 68.1069 140.569 66.7453 141.039 65.3447C141.305 64.6168 141.518 63.8659 141.738 63.115L142.027 61.9597C142.073 61.769 142.113 61.5784 142.148 61.382C142.183 61.1856 142.235 60.9892 142.241 60.8852L153.378 64.2934C153.262 64.5995 153.175 64.7901 153.071 65.0212L152.783 65.6797L152.205 66.9794C151.824 67.8401 151.408 68.7124 150.998 69.55C150.146 71.3184 149.197 73.0385 148.156 74.7026C147.583 75.627 146.95 76.5127 146.261 77.354C145.43 78.3859 144.469 79.3062 143.402 80.092C142.69 80.6061 141.913 81.0237 141.091 81.334C140.057 81.7147 138.957 81.8875 137.856 81.8423C136.745 81.7948 135.656 81.5195 134.656 81.0336L134.327 80.8661C134.223 80.8141 134.096 80.7447 134.044 80.7101L133.622 80.4559C133.333 80.2884 133.085 80.1151 132.842 79.9418C131.144 78.6964 129.579 77.2774 128.175 75.7077C126.875 74.2751 125.679 72.8483 124.547 71.3984C123.415 69.9485 122.335 68.5102 121.278 67.0256L119.706 64.8132L118.932 63.7157C118.661 63.3287 118.418 62.9821 118.13 62.5604L128.013 56.8359Z" fill="#263238"/>
<path d="M114.312 37.5942L113.434 37.0166C113.434 37.0166 113.735 37.9351 114.312 37.5942Z" fill="#263238"/>
<path d="M135.303 29.8999L135.211 30.2639L102.678 22.1017L102.77 21.7378L119.886 22.431L135.303 29.8999Z" fill="#263238"/>
<path d="M135.211 30.2642L118.095 29.571L102.678 22.1021L119.793 22.801L135.211 30.2642Z" fill="#407BFF"/>
<path d="M127.02 34.14C120.898 31.8664 114.544 30.2722 108.073 29.386C107.669 29.334 107.369 29.0163 107.444 28.7159L108.599 24.0947C108.65 23.9615 108.748 23.8518 108.875 23.7867C109.002 23.7217 109.149 23.7059 109.286 23.7424C115.888 24.6312 122.369 26.2568 128.609 28.5888C128.746 28.6231 128.867 28.7068 128.947 28.8239C129.026 28.9411 129.06 29.0836 129.042 29.2242L127.887 33.8454C127.85 33.9227 127.799 33.992 127.735 34.0489C127.672 34.1059 127.597 34.1494 127.516 34.1769C127.435 34.2044 127.35 34.2153 127.264 34.209C127.179 34.2026 127.096 34.1792 127.02 34.14Z" fill="#407BFF"/>
<path opacity="0.3" d="M127.02 34.14C120.898 31.8664 114.544 30.2722 108.073 29.386C107.669 29.334 107.369 29.0163 107.444 28.7159L108.599 24.0947C108.65 23.9615 108.748 23.8518 108.875 23.7867C109.002 23.7217 109.149 23.7059 109.286 23.7424C115.888 24.6312 122.369 26.2568 128.609 28.5888C128.746 28.6231 128.867 28.7068 128.947 28.8239C129.026 28.9411 129.06 29.0836 129.042 29.2242L127.887 33.8454C127.85 33.9227 127.799 33.992 127.735 34.0489C127.672 34.1059 127.597 34.1494 127.516 34.1769C127.435 34.2044 127.35 34.2153 127.264 34.209C127.179 34.2026 127.096 34.1792 127.02 34.14Z" fill="#263238"/>
<path d="M129.91 47.4429C129.838 47.4429 129.769 47.4185 129.713 47.3735C129.652 47.32 129.615 47.2448 129.608 47.164C129.602 47.0831 129.627 47.0028 129.679 46.9403C132.509 43.6073 130.938 42.0996 128.76 40.0085C127.513 38.807 126.092 37.4438 125.375 35.5144C123.394 30.1943 129.448 26.6822 129.505 26.6476C129.576 26.608 129.659 26.5979 129.737 26.6196C129.815 26.6412 129.881 26.6928 129.921 26.7631C129.942 26.7975 129.955 26.8356 129.961 26.8753C129.967 26.915 129.964 26.9554 129.954 26.9942C129.944 27.0329 129.926 27.0693 129.902 27.101C129.877 27.1328 129.846 27.1593 129.812 27.179C129.575 27.3119 124.151 30.4716 125.947 35.3007C126.617 37.103 127.98 38.4142 129.188 39.5695C131.325 41.626 133.347 43.5669 130.147 47.3331C130.118 47.3677 130.081 47.3955 130.04 47.4145C130 47.4335 129.955 47.4432 129.91 47.4429Z" fill="#407BFF"/>
<path d="M129.909 47.9982C129.738 47.9994 129.571 47.9499 129.429 47.856C129.287 47.7621 129.176 47.6281 129.11 47.4709C129.044 47.3138 129.026 47.1405 129.058 46.9732C129.091 46.8058 129.172 46.652 129.292 46.531C129.413 46.4101 129.566 46.3275 129.733 46.2938C129.9 46.2601 130.073 46.2768 130.231 46.3418C130.389 46.4068 130.523 46.5171 130.618 46.6588C130.713 46.8004 130.764 46.9671 130.764 47.1375C130.764 47.3648 130.674 47.5829 130.514 47.7441C130.354 47.9053 130.136 47.9967 129.909 47.9982ZM129.909 46.8949C129.859 46.8938 129.81 46.9075 129.769 46.9344C129.727 46.9612 129.694 46.9999 129.675 47.0456C129.655 47.0912 129.65 47.1416 129.659 47.1903C129.669 47.239 129.692 47.2838 129.727 47.3189C129.763 47.354 129.807 47.3777 129.856 47.3871C129.905 47.3965 129.955 47.3911 130.001 47.3716C130.046 47.3521 130.085 47.3194 130.112 47.2777C130.139 47.2359 130.153 47.1871 130.151 47.1375C130.151 47.0732 130.126 47.0115 130.08 46.966C130.035 46.9205 129.973 46.8949 129.909 46.8949Z" fill="#407BFF"/>
</svg>
