<svg width="40" height="40" viewBox="0 0 40 40" fill="none" xmlns="http://www.w3.org/2000/svg">
<g clip-path="url(#clip0)">
<path d="M33.7307 19.4163C33.4938 18.8393 32.9307 18.4625 32.3077 18.4625H24.9123L27.8692 1.80859C27.9862 1.14703 27.6631 0.488589 27.0692 0.176245C26.4754 -0.132975 25.7492 -0.0268024 25.2723 0.445464L6.61068 18.907C6.16607 19.3454 6.03224 20.0086 6.26912 20.5854C6.50607 21.1624 7.06912 21.5393 7.69217 21.5393H15.0876L12.1323 38.1932C12.0153 38.8548 12.3384 39.5132 12.9323 39.8255C13.1584 39.9425 13.403 40.0009 13.6461 40.0009C14.0415 40.0009 14.4323 39.8486 14.7277 39.5563L33.3892 21.0947C33.8339 20.6563 33.9677 19.9932 33.7307 19.4163ZM16.0077 33.9609L18.4384 20.2686C18.5184 19.8209 18.3954 19.3609 18.1031 19.0116C17.8092 18.6639 17.3784 18.4624 16.923 18.4624H11.4354L23.9923 6.04087L21.5615 19.7332C21.4815 20.1809 21.6045 20.6409 21.8969 20.9902C22.1907 21.3379 22.6215 21.5394 23.0769 21.5394H28.5646L16.0077 33.9609Z" fill="#A36AF7"/>
</g>
<defs>
<clipPath id="clip0">
<rect width="40" height="40" fill="white"/>
</clipPath>
</defs>
</svg>
