<svg width="14" height="14" viewBox="0 0 14 14" fill="none" xmlns="http://www.w3.org/2000/svg">
<g clip-path="url(#clip0)">
<path d="M3.5 5.49963H0.500837C0.225523 5.49963 0.00292887 5.72223 0 6.00047V13.4984C0 13.7766 0.225523 13.9992 0.500837 13.9992H3.5C3.77824 13.9992 4.00084 13.7737 4.00084 13.4984V6.00047C4.00084 5.72223 3.77531 5.49963 3.5 5.49963Z" fill="#B2B2B2"/>
<path d="M8.5 0.000610352H5.50084C5.22552 0.000610352 5 0.223205 5 0.498518V13.4968C5 13.7751 5.22552 13.9977 5.50084 13.9977H8.5C8.77825 13.9977 9.00084 13.7722 9.00084 13.4968V0.501447C9.00084 0.223205 8.77532 0.000610352 8.5 0.000610352Z" fill="#B2B2B2"/>
<path d="M13.5 3.99988H10.5008C10.2226 3.99988 10 4.22247 10 4.50071V13.4982C10 13.7764 10.2255 13.999 10.5008 13.999H13.5C13.7782 13.999 14.0008 13.7735 14.0008 13.4982V4.50071C14.0008 4.22247 13.7753 3.99988 13.5 3.99988Z" fill="#B2B2B2"/>
</g>
<defs>
<clipPath id="clip0">
<rect width="14" height="14" fill="white"/>
</clipPath>
</defs>
</svg>
