<svg width="11" height="14" viewBox="0 0 11 14" fill="none" xmlns="http://www.w3.org/2000/svg">
<path d="M10.0962 0H1.21155C0.543484 0 0 0.543484 0 1.21155V12.7885C0 13.4565 0.543484 14 1.21155 14H10.0962C10.3192 14 10.5 13.8192 10.5 13.5962V0.40384C10.5 0.180824 10.3192 0 10.0962 0ZM2.01923 1.75H8.48077C8.70382 1.75 8.88461 1.93082 8.88461 2.15384C8.88461 2.37686 8.70379 2.55768 8.48077 2.55768H2.01923C1.79618 2.55768 1.61539 2.37686 1.61539 2.15384C1.61539 1.93082 1.79621 1.75 2.01923 1.75ZM2.01923 3.90384H5.26345C5.4865 3.90384 5.66729 4.08466 5.66729 4.30768C5.66729 4.53069 5.48647 4.71152 5.26345 4.71152H2.01923C1.79618 4.71152 1.61539 4.53069 1.61539 4.30768C1.61539 4.08466 1.79621 3.90384 2.01923 3.90384ZM9.69232 13.1923H1.21155C0.988859 13.1923 0.807707 13.0112 0.807707 12.7885V12.25H9.69232V13.1923Z" fill="#B2B2B2"/>
</svg>
