<svg width="18" height="18" viewBox="0 0 18 18" fill="none" xmlns="http://www.w3.org/2000/svg">
<g clip-path="url(#clip0)">
<path d="M16.7556 1.59048L11.9673 7.31221L9.64827 1.77026C9.40789 1.19598 8.59168 1.19601 8.35131 1.77026L6.03228 7.31221L1.24394 1.59048C0.765045 1.01834 -0.161877 1.49428 0.0240555 2.21678L2.67312 12.5124V15.9602C2.67312 16.3485 2.98784 16.6632 3.37608 16.6632H14.6234C15.0117 16.6632 15.3264 16.3485 15.3264 15.9602V12.5124L17.9755 2.21678C18.1614 1.49431 17.2346 1.01834 16.7556 1.59048ZM13.9205 15.2573H4.07904V13.1263H13.9205V15.2573ZM14.0785 11.7204H3.92108L2.15993 4.87568L5.6956 9.10061C6.03319 9.504 6.67992 9.40646 6.88318 8.92083L8.99979 3.86269L11.1164 8.92083C11.3194 9.40604 11.9661 9.50435 12.304 9.10061L15.8396 4.87568L14.0785 11.7204Z" fill="#222222"/>
</g>
<defs>
<clipPath id="clip0">
<rect width="18" height="18" fill="white"/>
</clipPath>
</defs>
</svg>
