<svg width="18" height="18" viewBox="0 0 18 18" fill="none" xmlns="http://www.w3.org/2000/svg">
<path d="M12.7337 8.5095C13.2175 7.79175 13.5002 6.92849 13.5002 6.00001V4.5C13.5002 2.01825 11.482 0 9.00023 0C6.51848 0 4.50023 2.01825 4.50023 4.5V6.00001C4.50023 6.92852 4.78299 7.79175 5.26674 8.5095C3.01973 9.8055 1.50024 12.225 1.50024 15V15.75C1.50024 16.9905 2.50976 18 3.75024 18H14.2503C15.4907 18 16.5003 16.9905 16.5003 15.75V15C16.5002 12.225 14.9807 9.8055 12.7337 8.5095ZM6.00024 4.5C6.00024 2.84551 7.34574 1.50001 9.00023 1.50001C10.6547 1.50001 12.0002 2.84551 12.0002 4.5V6.00001C12.0002 7.6545 10.6547 9 9.00023 9C7.34574 9 6.00024 7.6545 6.00024 6.00001V4.5ZM15.0002 15.75C15.0002 16.1633 14.6635 16.5 14.2503 16.5H3.75024C3.33698 16.5 3.00026 16.1632 3.00026 15.75V15C3.00026 12.6458 4.36376 10.605 6.34224 9.62325C7.08851 10.1715 8.00573 10.5 9.00023 10.5C9.99473 10.5 10.912 10.1715 11.6582 9.62325C13.6367 10.605 15.0002 12.6457 15.0002 15V15.75H15.0002Z" fill="#222222"/>
</svg>
